<?xml version="1.0" encoding="UTF-8"?>
<svg xmlns="http://www.w3.org/2000/svg" xmlns:xlink="http://www.w3.org/1999/xlink"
     width="1060" height="976.25" viewBox="0 -976.25 1060 976.25" font-family="monospace">
<defs>
</defs>
<rect x="0" y="-976.25" width="1060" height="976.25" fill="#00285A" />
<rect x="20" y="-951.25" width="1010" height="926.25" fill="hsl(0, 0%, 90%)" rx="25" stroke="hsl(0, 0%, 60.0%)" stroke-width="4" />
<rect x="346.0" y="-311.25" width="120" height="120" fill="#5167B7" text="dc1-leaf1c" />
<text x="406.0" y="-245.25" font-size="19" fill="white" text-anchor="middle" dy="0em">dc1-leaf1c</text>
<rect x="586.0" y="-311.25" width="120" height="120" fill="#5167B7" text="dc1-leaf2c" />
<text x="646.0" y="-245.25" font-size="19" fill="white" text-anchor="middle" dy="0em">dc1-leaf2c</text>
<rect x="105.5" y="-588.75" width="120" height="120" fill="#5167B7" text="dc1-leaf1a" />
<text x="165.5" y="-522.75" font-size="19" fill="white" text-anchor="middle" dy="0em">dc1-leaf1a</text>
<rect x="345.5" y="-588.75" width="120" height="120" fill="#5167B7" text="dc1-leaf1b" />
<text x="405.5" y="-522.75" font-size="19" fill="white" text-anchor="middle" dy="0em">dc1-leaf1b</text>
<rect x="585.5" y="-588.75" width="120" height="120" fill="#5167B7" text="dc1-leaf2a" />
<text x="645.5" y="-522.75" font-size="19" fill="white" text-anchor="middle" dy="0em">dc1-leaf2a</text>
<rect x="825.5" y="-588.75" width="120" height="120" fill="#5167B7" text="dc1-leaf2b" />
<text x="885.5" y="-522.75" font-size="19" fill="white" text-anchor="middle" dy="0em">dc1-leaf2b</text>
<rect x="345.0" y="-866.25" width="120" height="120" fill="#5167B7" text="dc1-spine1" />
<text x="405.0" y="-800.25" font-size="19" fill="white" text-anchor="middle" dy="0em">dc1-spine1</text>
<rect x="585.0" y="-866.25" width="120" height="120" fill="#5167B7" text="dc1-spine2" />
<text x="645.0" y="-800.25" font-size="19" fill="white" text-anchor="middle" dy="0em">dc1-spine2</text>
<rect x="360.5" y="-746.25" width="20" height="30" fill="white" stroke="black" />
<text x="370.5" y="-725.9166666666666" font-size="16" fill="black" text-anchor="middle" dy="0em">1</text>
<rect x="383.5" y="-746.25" width="20" height="30" fill="white" stroke="black" />
<text x="393.5" y="-725.9166666666666" font-size="16" fill="black" text-anchor="middle" dy="0em">2</text>
<rect x="406.5" y="-746.25" width="20" height="30" fill="white" stroke="black" />
<text x="416.5" y="-725.9166666666666" font-size="16" fill="black" text-anchor="middle" dy="0em">3</text>
<rect x="429.5" y="-746.25" width="20" height="30" fill="white" stroke="black" />
<text x="439.5" y="-725.9166666666666" font-size="16" fill="black" text-anchor="middle" dy="0em">4</text>
<rect x="600.5" y="-746.25" width="20" height="30" fill="white" stroke="black" />
<text x="610.5" y="-725.9166666666666" font-size="16" fill="black" text-anchor="middle" dy="0em">1</text>
<rect x="623.5" y="-746.25" width="20" height="30" fill="white" stroke="black" />
<text x="633.5" y="-725.9166666666666" font-size="16" fill="black" text-anchor="middle" dy="0em">2</text>
<rect x="646.5" y="-746.25" width="20" height="30" fill="white" stroke="black" />
<text x="656.5" y="-725.9166666666666" font-size="16" fill="black" text-anchor="middle" dy="0em">3</text>
<rect x="669.5" y="-746.25" width="20" height="30" fill="white" stroke="black" />
<text x="679.5" y="-725.9166666666666" font-size="16" fill="black" text-anchor="middle" dy="0em">4</text>
<rect x="144.0" y="-618.75" width="20" height="30" fill="white" stroke="black" />
<text x="154.0" y="-598.4166666666666" font-size="16" fill="black" text-anchor="middle" dy="0em">1</text>
<rect x="167.0" y="-618.75" width="20" height="30" fill="white" stroke="black" />
<text x="177.0" y="-598.4166666666666" font-size="16" fill="black" text-anchor="middle" dy="0em">2</text>
<rect x="155.5" y="-468.75" width="20" height="30" fill="white" stroke="black" />
<text x="165.5" y="-448.4166666666667" font-size="16" fill="black" text-anchor="middle" dy="0em">8</text>
<rect x="225.5" y="-550.25" width="30" height="20" fill="white" stroke="black" />
<text x="240.5" y="-534.9166666666666" font-size="16" fill="black" text-anchor="middle" dy="0em">3</text>
<rect x="225.5" y="-527.25" width="30" height="20" fill="white" stroke="black" />
<text x="240.5" y="-511.9166666666667" font-size="16" fill="black" text-anchor="middle" dy="0em">4</text>
<rect x="384.0" y="-618.75" width="20" height="30" fill="white" stroke="black" />
<text x="394.0" y="-598.4166666666666" font-size="16" fill="black" text-anchor="middle" dy="0em">1</text>
<rect x="407.0" y="-618.75" width="20" height="30" fill="white" stroke="black" />
<text x="417.0" y="-598.4166666666666" font-size="16" fill="black" text-anchor="middle" dy="0em">2</text>
<rect x="395.5" y="-468.75" width="20" height="30" fill="white" stroke="black" />
<text x="405.5" y="-448.4166666666667" font-size="16" fill="black" text-anchor="middle" dy="0em">8</text>
<rect x="315.5" y="-550.25" width="30" height="20" fill="white" stroke="black" />
<text x="330.5" y="-534.9166666666666" font-size="16" fill="black" text-anchor="middle" dy="0em">3</text>
<rect x="315.5" y="-527.25" width="30" height="20" fill="white" stroke="black" />
<text x="330.5" y="-511.9166666666667" font-size="16" fill="black" text-anchor="middle" dy="0em">4</text>
<rect x="624.0" y="-618.75" width="20" height="30" fill="white" stroke="black" />
<text x="634.0" y="-598.4166666666666" font-size="16" fill="black" text-anchor="middle" dy="0em">1</text>
<rect x="647.0" y="-618.75" width="20" height="30" fill="white" stroke="black" />
<text x="657.0" y="-598.4166666666666" font-size="16" fill="black" text-anchor="middle" dy="0em">2</text>
<rect x="635.5" y="-468.75" width="20" height="30" fill="white" stroke="black" />
<text x="645.5" y="-448.4166666666667" font-size="16" fill="black" text-anchor="middle" dy="0em">8</text>
<rect x="705.5" y="-550.25" width="30" height="20" fill="white" stroke="black" />
<text x="720.5" y="-534.9166666666666" font-size="16" fill="black" text-anchor="middle" dy="0em">3</text>
<rect x="705.5" y="-527.25" width="30" height="20" fill="white" stroke="black" />
<text x="720.5" y="-511.9166666666667" font-size="16" fill="black" text-anchor="middle" dy="0em">4</text>
<rect x="864.0" y="-618.75" width="20" height="30" fill="white" stroke="black" />
<text x="874.0" y="-598.4166666666666" font-size="16" fill="black" text-anchor="middle" dy="0em">1</text>
<rect x="887.0" y="-618.75" width="20" height="30" fill="white" stroke="black" />
<text x="897.0" y="-598.4166666666666" font-size="16" fill="black" text-anchor="middle" dy="0em">2</text>
<rect x="875.5" y="-468.75" width="20" height="30" fill="white" stroke="black" />
<text x="885.5" y="-448.4166666666667" font-size="16" fill="black" text-anchor="middle" dy="0em">8</text>
<rect x="795.5" y="-550.25" width="30" height="20" fill="white" stroke="black" />
<text x="810.5" y="-534.9166666666666" font-size="16" fill="black" text-anchor="middle" dy="0em">3</text>
<rect x="795.5" y="-527.25" width="30" height="20" fill="white" stroke="black" />
<text x="810.5" y="-511.9166666666667" font-size="16" fill="black" text-anchor="middle" dy="0em">4</text>
<rect x="384.5" y="-341.25" width="20" height="30" fill="white" stroke="black" />
<text x="394.5" y="-320.9166666666667" font-size="16" fill="black" text-anchor="middle" dy="0em">2</text>
<rect x="407.5" y="-341.25" width="20" height="30" fill="white" stroke="black" />
<text x="417.5" y="-320.9166666666667" font-size="16" fill="black" text-anchor="middle" dy="0em">1</text>
<rect x="624.5" y="-341.25" width="20" height="30" fill="white" stroke="black" />
<text x="634.5" y="-320.9166666666667" font-size="16" fill="black" text-anchor="middle" dy="0em">1</text>
<rect x="647.5" y="-341.25" width="20" height="30" fill="white" stroke="black" />
<text x="657.5" y="-320.9166666666667" font-size="16" fill="black" text-anchor="middle" dy="0em">2</text>
<path d="M370.5,-716.25 L154.0,-618.75" stroke="black" stroke-width="2" />
<path d="M393.5,-716.25 L394.0,-618.75" stroke="black" stroke-width="2" />
<path d="M416.5,-716.25 L634.0,-618.75" stroke="black" stroke-width="2" />
<path d="M439.5,-716.25 L874.0,-618.75" stroke="black" stroke-width="2" />
<path d="M610.5,-716.25 L177.0,-618.75" stroke="black" stroke-width="2" />
<path d="M633.5,-716.25 L417.0,-618.75" stroke="black" stroke-width="2" />
<path d="M656.5,-716.25 L657.0,-618.75" stroke="black" stroke-width="2" />
<path d="M679.5,-716.25 L897.0,-618.75" stroke="black" stroke-width="2" />
<path d="M315.5,-540.25 L255.5,-540.25" stroke="black" stroke-width="2" />
<path d="M315.5,-517.25 L255.5,-517.25" stroke="black" stroke-width="2" />
<path d="M405.5,-438.75 L394.5,-341.25" stroke="black" stroke-width="2" />
<path d="M417.5,-341.25 L165.5,-438.75" stroke="black" stroke-width="2" />
<path d="M735.5,-540.25 L795.5,-540.25" stroke="black" stroke-width="2" />
<path d="M735.5,-517.25 L795.5,-517.25" stroke="black" stroke-width="2" />
<path d="M645.5,-438.75 L634.5,-341.25" stroke="black" stroke-width="2" />
<path d="M885.5,-438.75 L657.5,-341.25" stroke="black" stroke-width="2" />
<rect x="480.36" y="-947.25" width="89.28" height="23" fill="hsl(0, 0%, 90%)" />
<text x="525.0" y="-927.25" font-size="24" fill="black" text-anchor="middle" dy="0em">FABRIC</text>
</svg>