<?xml version="1.0" encoding="UTF-8"?>
<svg xmlns="http://www.w3.org/2000/svg" xmlns:xlink="http://www.w3.org/1999/xlink"
     width="786" height="786.0" viewBox="0 -3000 3000 3000" font-family="monospace">
<defs>
</defs>
<rect x="0" y="-3000" width="3000" height="3000" fill="white" />
<rect x="20" y="-2925" width="2040" height="290" stroke="black" fill="white" />
<text x="24" y="-2905" font-size="24" fill="black" dy="0em">FABRIC</text>
<rect x="140.0" y="-2840.0" width="120" height="120" fill="#5167B7" text="dc1-leaf1a" />
<text x="200.0" y="-2774.0" font-size="12" fill="white" text-anchor="middle" dy="0em">dc1-leaf1a</text>
<rect x="380.0" y="-2840.0" width="120" height="120" fill="#5167B7" text="dc1-leaf1b" />
<text x="440.0" y="-2774.0" font-size="12" fill="white" text-anchor="middle" dy="0em">dc1-leaf1b</text>
<rect x="620.0" y="-2840.0" width="120" height="120" fill="#5167B7" text="dc1-leaf1c" />
<text x="680.0" y="-2774.0" font-size="12" fill="white" text-anchor="middle" dy="0em">dc1-leaf1c</text>
<rect x="860.0" y="-2840.0" width="120" height="120" fill="#5167B7" text="dc1-leaf2a" />
<text x="920.0" y="-2774.0" font-size="12" fill="white" text-anchor="middle" dy="0em">dc1-leaf2a</text>
<rect x="1100.0" y="-2840.0" width="120" height="120" fill="#5167B7" text="dc1-leaf2b" />
<text x="1160.0" y="-2774.0" font-size="12" fill="white" text-anchor="middle" dy="0em">dc1-leaf2b</text>
<rect x="1340.0" y="-2840.0" width="120" height="120" fill="#5167B7" text="dc1-leaf2c" />
<text x="1400.0" y="-2774.0" font-size="12" fill="white" text-anchor="middle" dy="0em">dc1-leaf2c</text>
<rect x="1580.0" y="-2840.0" width="120" height="120" fill="#5167B7" text="dc1-spine1" />
<text x="1640.0" y="-2774.0" font-size="12" fill="white" text-anchor="middle" dy="0em">dc1-spine1</text>
<rect x="1820.0" y="-2840.0" width="120" height="120" fill="#5167B7" text="dc1-spine2" />
<text x="1880.0" y="-2774.0" font-size="12" fill="white" text-anchor="middle" dy="0em">dc1-spine2</text>
<rect x="1550.0" y="-2840.0" width="30" height="20" fill="white" stroke="black" />
<text x="1565.0" y="-2824.6666666666665" font-size="16" fill="black" text-anchor="middle" dy="0em">1</text>
<rect x="1550.0" y="-2817.0" width="30" height="20" fill="white" stroke="black" />
<text x="1565.0" y="-2801.6666666666665" font-size="16" fill="black" text-anchor="middle" dy="0em">2</text>
<rect x="1550.0" y="-2817.0" width="30" height="20" fill="white" stroke="black" />
<text x="1565.0" y="-2801.6666666666665" font-size="16" fill="black" text-anchor="middle" dy="0em">3</text>
<rect x="1550.0" y="-2817.0" width="30" height="20" fill="white" stroke="black" />
<text x="1565.0" y="-2801.6666666666665" font-size="16" fill="black" text-anchor="middle" dy="0em">4</text>
<rect x="1790.0" y="-2840.0" width="30" height="20" fill="white" stroke="black" />
<text x="1805.0" y="-2824.6666666666665" font-size="16" fill="black" text-anchor="middle" dy="0em">1</text>
<rect x="1790.0" y="-2817.0" width="30" height="20" fill="white" stroke="black" />
<text x="1805.0" y="-2801.6666666666665" font-size="16" fill="black" text-anchor="middle" dy="0em">2</text>
<rect x="1790.0" y="-2817.0" width="30" height="20" fill="white" stroke="black" />
<text x="1805.0" y="-2801.6666666666665" font-size="16" fill="black" text-anchor="middle" dy="0em">3</text>
<rect x="1790.0" y="-2817.0" width="30" height="20" fill="white" stroke="black" />
<text x="1805.0" y="-2801.6666666666665" font-size="16" fill="black" text-anchor="middle" dy="0em">4</text>
<rect x="500.0" y="-2840.0" width="30" height="20" fill="white" stroke="black" />
<text x="515.0" y="-2824.6666666666665" font-size="16" fill="black" text-anchor="middle" dy="0em">8</text>
<rect x="500.0" y="-2817.0" width="30" height="20" fill="white" stroke="black" />
<text x="515.0" y="-2801.6666666666665" font-size="16" fill="black" text-anchor="middle" dy="0em">1</text>
<rect x="500.0" y="-2817.0" width="30" height="20" fill="white" stroke="black" />
<text x="515.0" y="-2801.6666666666665" font-size="16" fill="black" text-anchor="middle" dy="0em">2</text>
<rect x="350.0" y="-2840.0" width="30" height="20" fill="white" stroke="black" />
<text x="365.0" y="-2824.6666666666665" font-size="16" fill="black" text-anchor="middle" dy="0em">3</text>
<rect x="350.0" y="-2817.0" width="30" height="20" fill="white" stroke="black" />
<text x="365.0" y="-2801.6666666666665" font-size="16" fill="black" text-anchor="middle" dy="0em">4</text>
<rect x="590.0" y="-2840.0" width="30" height="20" fill="white" stroke="black" />
<text x="605.0" y="-2824.6666666666665" font-size="16" fill="black" text-anchor="middle" dy="0em">1</text>
<rect x="590.0" y="-2817.0" width="30" height="20" fill="white" stroke="black" />
<text x="605.0" y="-2801.6666666666665" font-size="16" fill="black" text-anchor="middle" dy="0em">2</text>
<rect x="260.0" y="-2840.0" width="30" height="20" fill="white" stroke="black" />
<text x="275.0" y="-2824.6666666666665" font-size="16" fill="black" text-anchor="middle" dy="0em">3</text>
<rect x="260.0" y="-2817.0" width="30" height="20" fill="white" stroke="black" />
<text x="275.0" y="-2801.6666666666665" font-size="16" fill="black" text-anchor="middle" dy="0em">4</text>
<rect x="260.0" y="-2817.0" width="30" height="20" fill="white" stroke="black" />
<text x="275.0" y="-2801.6666666666665" font-size="16" fill="black" text-anchor="middle" dy="0em">8</text>
<rect x="260.0" y="-2817.0" width="30" height="20" fill="white" stroke="black" />
<text x="275.0" y="-2801.6666666666665" font-size="16" fill="black" text-anchor="middle" dy="0em">1</text>
<rect x="260.0" y="-2817.0" width="30" height="20" fill="white" stroke="black" />
<text x="275.0" y="-2801.6666666666665" font-size="16" fill="black" text-anchor="middle" dy="0em">2</text>
<rect x="980.0" y="-2840.0" width="30" height="20" fill="white" stroke="black" />
<text x="995.0" y="-2824.6666666666665" font-size="16" fill="black" text-anchor="middle" dy="0em">3</text>
<rect x="980.0" y="-2817.0" width="30" height="20" fill="white" stroke="black" />
<text x="995.0" y="-2801.6666666666665" font-size="16" fill="black" text-anchor="middle" dy="0em">4</text>
<rect x="980.0" y="-2817.0" width="30" height="20" fill="white" stroke="black" />
<text x="995.0" y="-2801.6666666666665" font-size="16" fill="black" text-anchor="middle" dy="0em">8</text>
<rect x="980.0" y="-2817.0" width="30" height="20" fill="white" stroke="black" />
<text x="995.0" y="-2801.6666666666665" font-size="16" fill="black" text-anchor="middle" dy="0em">1</text>
<rect x="980.0" y="-2817.0" width="30" height="20" fill="white" stroke="black" />
<text x="995.0" y="-2801.6666666666665" font-size="16" fill="black" text-anchor="middle" dy="0em">2</text>
<rect x="1220.0" y="-2840.0" width="30" height="20" fill="white" stroke="black" />
<text x="1235.0" y="-2824.6666666666665" font-size="16" fill="black" text-anchor="middle" dy="0em">8</text>
<rect x="1220.0" y="-2817.0" width="30" height="20" fill="white" stroke="black" />
<text x="1235.0" y="-2801.6666666666665" font-size="16" fill="black" text-anchor="middle" dy="0em">1</text>
<rect x="1220.0" y="-2817.0" width="30" height="20" fill="white" stroke="black" />
<text x="1235.0" y="-2801.6666666666665" font-size="16" fill="black" text-anchor="middle" dy="0em">2</text>
<rect x="1070.0" y="-2840.0" width="30" height="20" fill="white" stroke="black" />
<text x="1085.0" y="-2824.6666666666665" font-size="16" fill="black" text-anchor="middle" dy="0em">3</text>
<rect x="1070.0" y="-2817.0" width="30" height="20" fill="white" stroke="black" />
<text x="1085.0" y="-2801.6666666666665" font-size="16" fill="black" text-anchor="middle" dy="0em">4</text>
<rect x="1310.0" y="-2840.0" width="30" height="20" fill="white" stroke="black" />
<text x="1325.0" y="-2824.6666666666665" font-size="16" fill="black" text-anchor="middle" dy="0em">1</text>
<rect x="1310.0" y="-2817.0" width="30" height="20" fill="white" stroke="black" />
<text x="1325.0" y="-2801.6666666666665" font-size="16" fill="black" text-anchor="middle" dy="0em">2</text>
<path d="M290.0,-2807.0 L300.0,-2807.0" stroke="hsl(301,100%,33%)" stroke-width="2" />
<path d="M300.0,-2807.0 L300.0,-2886.0" stroke="hsl(301,100%,33%)" stroke-width="2" />
<path d="M300.0,-2886.0 L920.0,-2886.0" stroke="hsl(301,100%,33%)" stroke-width="2" />
<path d="M1550.0,-2830.0 L1540.0,-2830.0" stroke="hsl(301,100%,33%)" stroke-width="2" />
<path d="M1540.0,-2830.0 L1540.0,-2886.0" stroke="hsl(301,100%,33%)" stroke-width="2" />
<path d="M1540.0,-2886.0 L920.0,-2886.0" stroke="hsl(301,100%,33%)" stroke-width="2" />
<path d="M530.0,-2807.0 L540.0,-2807.0" stroke="hsl(278,89%,64%)" stroke-width="2" />
<path d="M540.0,-2807.0 L540.0,-2892.0" stroke="hsl(278,89%,64%)" stroke-width="2" />
<path d="M540.0,-2892.0 L1040.0,-2892.0" stroke="hsl(278,89%,64%)" stroke-width="2" />
<path d="M1550.0,-2807.0 L1540.0,-2807.0" stroke="hsl(278,89%,64%)" stroke-width="2" />
<path d="M1540.0,-2807.0 L1540.0,-2892.0" stroke="hsl(278,89%,64%)" stroke-width="2" />
<path d="M1540.0,-2892.0 L1040.0,-2892.0" stroke="hsl(278,89%,64%)" stroke-width="2" />
<path d="M1010.0,-2807.0 L1020.0,-2807.0" stroke="hsl(244,91%,62%)" stroke-width="2" />
<path d="M1020.0,-2807.0 L1020.0,-2898.0" stroke="hsl(244,91%,62%)" stroke-width="2" />
<path d="M1020.0,-2898.0 L1280.0,-2898.0" stroke="hsl(244,91%,62%)" stroke-width="2" />
<path d="M1550.0,-2807.0 L1540.0,-2807.0" stroke="hsl(244,91%,62%)" stroke-width="2" />
<path d="M1540.0,-2807.0 L1540.0,-2898.0" stroke="hsl(244,91%,62%)" stroke-width="2" />
<path d="M1540.0,-2898.0 L1280.0,-2898.0" stroke="hsl(244,91%,62%)" stroke-width="2" />
<path d="M1250.0,-2807.0 L1260.0,-2807.0" stroke="hsl(117,53%,32%)" stroke-width="2" />
<path d="M1260.0,-2807.0 L1260.0,-2904.0" stroke="hsl(117,53%,32%)" stroke-width="2" />
<path d="M1260.0,-2904.0 L1400.0,-2904.0" stroke="hsl(117,53%,32%)" stroke-width="2" />
<path d="M1550.0,-2807.0 L1540.0,-2807.0" stroke="hsl(117,53%,32%)" stroke-width="2" />
<path d="M1540.0,-2807.0 L1540.0,-2904.0" stroke="hsl(117,53%,32%)" stroke-width="2" />
<path d="M1540.0,-2904.0 L1400.0,-2904.0" stroke="hsl(117,53%,32%)" stroke-width="2" />
<path d="M290.0,-2807.0 L300.0,-2807.0" stroke="hsl(69,54%,75%)" stroke-width="2" />
<path d="M300.0,-2807.0 L300.0,-2910.0" stroke="hsl(69,54%,75%)" stroke-width="2" />
<path d="M300.0,-2910.0 L1040.0,-2910.0" stroke="hsl(69,54%,75%)" stroke-width="2" />
<path d="M1790.0,-2830.0 L1780.0,-2830.0" stroke="hsl(69,54%,75%)" stroke-width="2" />
<path d="M1780.0,-2830.0 L1780.0,-2910.0" stroke="hsl(69,54%,75%)" stroke-width="2" />
<path d="M1780.0,-2910.0 L1040.0,-2910.0" stroke="hsl(69,54%,75%)" stroke-width="2" />
<path d="M530.0,-2807.0 L540.0,-2807.0" stroke="hsl(206,87%,48%)" stroke-width="2" />
<path d="M540.0,-2807.0 L540.0,-2916.0" stroke="hsl(206,87%,48%)" stroke-width="2" />
<path d="M540.0,-2916.0 L1160.0,-2916.0" stroke="hsl(206,87%,48%)" stroke-width="2" />
<path d="M1790.0,-2807.0 L1780.0,-2807.0" stroke="hsl(206,87%,48%)" stroke-width="2" />
<path d="M1780.0,-2807.0 L1780.0,-2916.0" stroke="hsl(206,87%,48%)" stroke-width="2" />
<path d="M1780.0,-2916.0 L1160.0,-2916.0" stroke="hsl(206,87%,48%)" stroke-width="2" />
<path d="M1010.0,-2807.0 L1020.0,-2807.0" stroke="hsl(216,54%,66%)" stroke-width="2" />
<path d="M1020.0,-2807.0 L1020.0,-2922.0" stroke="hsl(216,54%,66%)" stroke-width="2" />
<path d="M1020.0,-2922.0 L1400.0,-2922.0" stroke="hsl(216,54%,66%)" stroke-width="2" />
<path d="M1790.0,-2807.0 L1780.0,-2807.0" stroke="hsl(216,54%,66%)" stroke-width="2" />
<path d="M1780.0,-2807.0 L1780.0,-2922.0" stroke="hsl(216,54%,66%)" stroke-width="2" />
<path d="M1780.0,-2922.0 L1400.0,-2922.0" stroke="hsl(216,54%,66%)" stroke-width="2" />
<path d="M1250.0,-2807.0 L1260.0,-2807.0" stroke="hsl(38,98%,68%)" stroke-width="2" />
<path d="M1260.0,-2807.0 L1260.0,-2928.0" stroke="hsl(38,98%,68%)" stroke-width="2" />
<path d="M1260.0,-2928.0 L1520.0,-2928.0" stroke="hsl(38,98%,68%)" stroke-width="2" />
<path d="M1790.0,-2807.0 L1780.0,-2807.0" stroke="hsl(38,98%,68%)" stroke-width="2" />
<path d="M1780.0,-2807.0 L1780.0,-2928.0" stroke="hsl(38,98%,68%)" stroke-width="2" />
<path d="M1780.0,-2928.0 L1520.0,-2928.0" stroke="hsl(38,98%,68%)" stroke-width="2" />
<path d="M350.0,-2830.0 L290.0,-2830.0" stroke="hsl(157,99%,33%)" stroke-width="2" />
<path d="M350.0,-2807.0 L290.0,-2807.0" stroke="hsl(83,93%,34%)" stroke-width="2" />
<path d="M530.0,-2830.0 L590.0,-2807.0" stroke="hsl(357,76%,57%)" stroke-width="2" />
<path d="M290.0,-2807.0 L300.0,-2807.0" stroke="hsl(267,53%,51%)" stroke-width="2" />
<path d="M300.0,-2807.0 L300.0,-2934.0" stroke="hsl(267,53%,51%)" stroke-width="2" />
<path d="M300.0,-2934.0 L440.0,-2934.0" stroke="hsl(267,53%,51%)" stroke-width="2" />
<path d="M590.0,-2830.0 L580.0,-2830.0" stroke="hsl(267,53%,51%)" stroke-width="2" />
<path d="M580.0,-2830.0 L580.0,-2934.0" stroke="hsl(267,53%,51%)" stroke-width="2" />
<path d="M580.0,-2934.0 L440.0,-2934.0" stroke="hsl(267,53%,51%)" stroke-width="2" />
<path d="M1010.0,-2830.0 L1070.0,-2830.0" stroke="hsl(293,87%,28%)" stroke-width="2" />
<path d="M1010.0,-2807.0 L1070.0,-2807.0" stroke="hsl(197,51%,37%)" stroke-width="2" />
<path d="M1010.0,-2807.0 L1020.0,-2807.0" stroke="hsl(288,51%,27%)" stroke-width="2" />
<path d="M1020.0,-2807.0 L1020.0,-2940.0" stroke="hsl(288,51%,27%)" stroke-width="2" />
<path d="M1020.0,-2940.0 L1160.0,-2940.0" stroke="hsl(288,51%,27%)" stroke-width="2" />
<path d="M1310.0,-2830.0 L1300.0,-2830.0" stroke="hsl(288,51%,27%)" stroke-width="2" />
<path d="M1300.0,-2830.0 L1300.0,-2940.0" stroke="hsl(288,51%,27%)" stroke-width="2" />
<path d="M1300.0,-2940.0 L1160.0,-2940.0" stroke="hsl(288,51%,27%)" stroke-width="2" />
<path d="M1250.0,-2830.0 L1310.0,-2807.0" stroke="hsl(174,60%,65%)" stroke-width="2" />
</svg>