<?xml version="1.0" encoding="UTF-8"?>
<svg xmlns="http://www.w3.org/2000/svg" xmlns:xlink="http://www.w3.org/1999/xlink"
     width="1590" height="736.25" viewBox="0 -736.25 1590 736.25" font-family="monospace">
<defs>
</defs>
<rect x="0" y="-736.25" width="1590" height="736.25" fill="#00285A" />
<rect x="20" y="-711.25" width="1540" height="686.25" fill="hsl(0, 0%, 90%)" rx="25" stroke="hsl(0, 0%, 60.0%)" stroke-width="4" />
<rect x="45.5" y="-673.75" width="1490" height="617.5" fill="hsl(0, 0%, 80%)" rx="25" stroke="hsl(0, 0%, 52.5%)" stroke-width="4" />
<rect x="71.0" y="-396.25" width="1440" height="308.75" fill="hsl(0, 0%, 70%)" rx="25" stroke="hsl(0, 0%, 45.0%)" stroke-width="4" />
<rect x="131.0" y="-311.25" width="120" height="120" fill="#5167B7" text="campus-leaf-4" />
<text x="191.0" y="-254.25" font-size="18" fill="white" text-anchor="middle" dy="0em">campus</text>
<text x="191.0" y="-236.25" font-size="18" fill="white" text-anchor="middle" dy="0em">leaf-4</text>
<rect x="371.0" y="-311.25" width="120" height="120" fill="#5167B7" text="media-PTP-1" />
<text x="431.0" y="-254.25" font-size="18" fill="white" text-anchor="middle" dy="0em">media</text>
<text x="431.0" y="-236.25" font-size="18" fill="white" text-anchor="middle" dy="0em">PTP-1</text>
<rect x="611.0" y="-311.25" width="120" height="120" fill="#5167B7" text="media-PTP-2" />
<text x="671.0" y="-254.25" font-size="18" fill="white" text-anchor="middle" dy="0em">media</text>
<text x="671.0" y="-236.25" font-size="18" fill="white" text-anchor="middle" dy="0em">PTP-2</text>
<rect x="851.0" y="-311.25" width="120" height="120" fill="#5167B7" text="media-leaf-1" />
<text x="911.0" y="-254.25" font-size="18" fill="white" text-anchor="middle" dy="0em">media</text>
<text x="911.0" y="-236.25" font-size="18" fill="white" text-anchor="middle" dy="0em">leaf-1</text>
<rect x="1091.0" y="-311.25" width="120" height="120" fill="#5167B7" text="media-leaf-2" />
<text x="1151.0" y="-254.25" font-size="18" fill="white" text-anchor="middle" dy="0em">media</text>
<text x="1151.0" y="-236.25" font-size="18" fill="white" text-anchor="middle" dy="0em">leaf-2</text>
<rect x="1331.0" y="-311.25" width="120" height="120" fill="#5167B7" text="media-leaf-3" />
<text x="1391.0" y="-254.25" font-size="18" fill="white" text-anchor="middle" dy="0em">media</text>
<text x="1391.0" y="-236.25" font-size="18" fill="white" text-anchor="middle" dy="0em">leaf-3</text>
<rect x="610.5" y="-588.75" width="120" height="120" fill="#5167B7" text="media-spine-1" />
<text x="670.5" y="-531.75" font-size="18" fill="white" text-anchor="middle" dy="0em">media</text>
<text x="670.5" y="-513.75" font-size="18" fill="white" text-anchor="middle" dy="0em">spine-1</text>
<rect x="850.5" y="-588.75" width="120" height="120" fill="#5167B7" text="media-spine-2" />
<text x="910.5" y="-531.75" font-size="18" fill="white" text-anchor="middle" dy="0em">media</text>
<text x="910.5" y="-513.75" font-size="18" fill="white" text-anchor="middle" dy="0em">spine-2</text>
<rect x="808.5" y="-468.75" width="20" height="30" fill="white" stroke="black" />
<text x="818.5" y="-448.4166666666667" font-size="10" fill="black" text-anchor="middle" dy="0em">1/1</text>
<rect x="831.5" y="-468.75" width="20" height="30" fill="white" stroke="black" />
<text x="841.5" y="-448.4166666666667" font-size="10" fill="black" text-anchor="middle" dy="0em">2/1</text>
<rect x="854.5" y="-468.75" width="20" height="30" fill="white" stroke="black" />
<text x="864.5" y="-448.4166666666667" font-size="10" fill="black" text-anchor="middle" dy="0em">3/1</text>
<rect x="877.5" y="-468.75" width="20" height="30" fill="white" stroke="black" />
<text x="887.5" y="-448.4166666666667" font-size="10" fill="black" text-anchor="middle" dy="0em">4/1</text>
<rect x="900.5" y="-468.75" width="20" height="30" fill="white" stroke="black" />
<text x="910.5" y="-448.4166666666667" font-size="8" fill="black" text-anchor="middle" dy="0em">17/1</text>
<rect x="923.5" y="-468.75" width="20" height="30" fill="white" stroke="black" />
<text x="933.5" y="-448.4166666666667" font-size="8" fill="black" text-anchor="middle" dy="0em">18/1</text>
<rect x="946.5" y="-468.75" width="20" height="30" fill="white" stroke="black" />
<text x="956.5" y="-448.4166666666667" font-size="8" fill="black" text-anchor="middle" dy="0em">25/1</text>
<rect x="969.5" y="-468.75" width="20" height="30" fill="white" stroke="black" />
<text x="979.5" y="-448.4166666666667" font-size="8" fill="black" text-anchor="middle" dy="0em">27/1</text>
<rect x="992.5" y="-468.75" width="20" height="30" fill="white" stroke="black" />
<text x="1002.5" y="-448.4166666666667" font-size="8" fill="black" text-anchor="middle" dy="0em">28/1</text>
<rect x="568.5" y="-468.75" width="20" height="30" fill="white" stroke="black" />
<text x="578.5" y="-448.4166666666667" font-size="10" fill="black" text-anchor="middle" dy="0em">1/1</text>
<rect x="591.5" y="-468.75" width="20" height="30" fill="white" stroke="black" />
<text x="601.5" y="-448.4166666666667" font-size="10" fill="black" text-anchor="middle" dy="0em">2/1</text>
<rect x="614.5" y="-468.75" width="20" height="30" fill="white" stroke="black" />
<text x="624.5" y="-448.4166666666667" font-size="10" fill="black" text-anchor="middle" dy="0em">3/1</text>
<rect x="637.5" y="-468.75" width="20" height="30" fill="white" stroke="black" />
<text x="647.5" y="-448.4166666666667" font-size="10" fill="black" text-anchor="middle" dy="0em">4/1</text>
<rect x="660.5" y="-468.75" width="20" height="30" fill="white" stroke="black" />
<text x="670.5" y="-448.4166666666667" font-size="8" fill="black" text-anchor="middle" dy="0em">17/1</text>
<rect x="683.5" y="-468.75" width="20" height="30" fill="white" stroke="black" />
<text x="693.5" y="-448.4166666666667" font-size="8" fill="black" text-anchor="middle" dy="0em">18/1</text>
<rect x="706.5" y="-468.75" width="20" height="30" fill="white" stroke="black" />
<text x="716.5" y="-448.4166666666667" font-size="8" fill="black" text-anchor="middle" dy="0em">25/1</text>
<rect x="729.5" y="-468.75" width="20" height="30" fill="white" stroke="black" />
<text x="739.5" y="-448.4166666666667" font-size="8" fill="black" text-anchor="middle" dy="0em">27/1</text>
<rect x="752.5" y="-468.75" width="20" height="30" fill="white" stroke="black" />
<text x="762.5" y="-448.4166666666667" font-size="8" fill="black" text-anchor="middle" dy="0em">28/1</text>
<rect x="866.5" y="-341.25" width="20" height="30" fill="white" stroke="black" />
<text x="876.5" y="-320.9166666666667" font-size="8" fill="black" text-anchor="middle" dy="0em">51/1</text>
<rect x="889.5" y="-341.25" width="20" height="30" fill="white" stroke="black" />
<text x="899.5" y="-320.9166666666667" font-size="8" fill="black" text-anchor="middle" dy="0em">52/1</text>
<rect x="912.5" y="-341.25" width="20" height="30" fill="white" stroke="black" />
<text x="922.5" y="-320.9166666666667" font-size="8" fill="black" text-anchor="middle" dy="0em">49/1</text>
<rect x="935.5" y="-341.25" width="20" height="30" fill="white" stroke="black" />
<text x="945.5" y="-320.9166666666667" font-size="8" fill="black" text-anchor="middle" dy="0em">50/1</text>
<rect x="1106.5" y="-341.25" width="20" height="30" fill="white" stroke="black" />
<text x="1116.5" y="-320.9166666666667" font-size="8" fill="black" text-anchor="middle" dy="0em">51/1</text>
<rect x="1129.5" y="-341.25" width="20" height="30" fill="white" stroke="black" />
<text x="1139.5" y="-320.9166666666667" font-size="8" fill="black" text-anchor="middle" dy="0em">52/1</text>
<rect x="1152.5" y="-341.25" width="20" height="30" fill="white" stroke="black" />
<text x="1162.5" y="-320.9166666666667" font-size="8" fill="black" text-anchor="middle" dy="0em">49/1</text>
<rect x="1175.5" y="-341.25" width="20" height="30" fill="white" stroke="black" />
<text x="1185.5" y="-320.9166666666667" font-size="8" fill="black" text-anchor="middle" dy="0em">50/1</text>
<rect x="1346.5" y="-341.25" width="20" height="30" fill="white" stroke="black" />
<text x="1356.5" y="-320.9166666666667" font-size="8" fill="black" text-anchor="middle" dy="0em">51/1</text>
<rect x="1369.5" y="-341.25" width="20" height="30" fill="white" stroke="black" />
<text x="1379.5" y="-320.9166666666667" font-size="8" fill="black" text-anchor="middle" dy="0em">52/1</text>
<rect x="1392.5" y="-341.25" width="20" height="30" fill="white" stroke="black" />
<text x="1402.5" y="-320.9166666666667" font-size="8" fill="black" text-anchor="middle" dy="0em">49/1</text>
<rect x="1415.5" y="-341.25" width="20" height="30" fill="white" stroke="black" />
<text x="1425.5" y="-320.9166666666667" font-size="8" fill="black" text-anchor="middle" dy="0em">50/1</text>
<rect x="169.5" y="-341.25" width="20" height="30" fill="white" stroke="black" />
<text x="179.5" y="-320.9166666666667" font-size="8" fill="black" text-anchor="middle" dy="0em">54/1</text>
<rect x="192.5" y="-341.25" width="20" height="30" fill="white" stroke="black" />
<text x="202.5" y="-320.9166666666667" font-size="8" fill="black" text-anchor="middle" dy="0em">53/1</text>
<rect x="409.5" y="-341.25" width="20" height="30" fill="white" stroke="black" />
<text x="419.5" y="-320.9166666666667" font-size="16" fill="black" text-anchor="middle" dy="0em">52</text>
<rect x="432.5" y="-341.25" width="20" height="30" fill="white" stroke="black" />
<text x="442.5" y="-320.9166666666667" font-size="16" fill="black" text-anchor="middle" dy="0em">51</text>
<rect x="491.0" y="-272.75" width="30" height="20" fill="white" stroke="black" />
<text x="506.0" y="-257.4166666666667" font-size="16" fill="black" text-anchor="middle" dy="0em">1</text>
<rect x="491.0" y="-249.75" width="30" height="20" fill="white" stroke="black" />
<text x="506.0" y="-234.41666666666666" font-size="16" fill="black" text-anchor="middle" dy="0em">2</text>
<rect x="649.5" y="-341.25" width="20" height="30" fill="white" stroke="black" />
<text x="659.5" y="-320.9166666666667" font-size="16" fill="black" text-anchor="middle" dy="0em">52</text>
<rect x="672.5" y="-341.25" width="20" height="30" fill="white" stroke="black" />
<text x="682.5" y="-320.9166666666667" font-size="16" fill="black" text-anchor="middle" dy="0em">51</text>
<rect x="581.0" y="-272.75" width="30" height="20" fill="white" stroke="black" />
<text x="596.0" y="-257.4166666666667" font-size="16" fill="black" text-anchor="middle" dy="0em">1</text>
<rect x="581.0" y="-249.75" width="30" height="20" fill="white" stroke="black" />
<text x="596.0" y="-234.41666666666666" font-size="16" fill="black" text-anchor="middle" dy="0em">2</text>
<path d="M818.5,-438.75 L876.5,-341.25" stroke="black" stroke-width="2" />
<path d="M841.5,-438.75 L899.5,-341.25" stroke="black" stroke-width="2" />
<path d="M864.5,-438.75 L1116.5,-341.25" stroke="black" stroke-width="2" />
<path d="M887.5,-438.75 L1139.5,-341.25" stroke="black" stroke-width="2" />
<path d="M910.5,-438.75 L1356.5,-341.25" stroke="black" stroke-width="2" />
<path d="M933.5,-438.75 L1379.5,-341.25" stroke="black" stroke-width="2" />
<path d="M956.5,-438.75 L179.5,-341.25" stroke="black" stroke-width="2" />
<path d="M979.5,-438.75 L419.5,-341.25" stroke="black" stroke-width="2" />
<path d="M1002.5,-438.75 L659.5,-341.25" stroke="black" stroke-width="2" />
<path d="M578.5,-438.75 L922.5,-341.25" stroke="black" stroke-width="2" />
<path d="M601.5,-438.75 L945.5,-341.25" stroke="black" stroke-width="2" />
<path d="M624.5,-438.75 L1162.5,-341.25" stroke="black" stroke-width="2" />
<path d="M647.5,-438.75 L1185.5,-341.25" stroke="black" stroke-width="2" />
<path d="M670.5,-438.75 L1402.5,-341.25" stroke="black" stroke-width="2" />
<path d="M693.5,-438.75 L1425.5,-341.25" stroke="black" stroke-width="2" />
<path d="M716.5,-438.75 L202.5,-341.25" stroke="black" stroke-width="2" />
<path d="M739.5,-438.75 L442.5,-341.25" stroke="black" stroke-width="2" />
<path d="M762.5,-438.75 L682.5,-341.25" stroke="black" stroke-width="2" />
<path d="M581.0,-262.75 L521.0,-262.75" stroke="black" stroke-width="2" />
<path d="M581.0,-239.75 L521.0,-239.75" stroke="black" stroke-width="2" />
<rect x="693.28" y="-707.25" width="193.44" height="23" fill="hsl(0, 0%, 90%)" />
<text x="790.0" y="-687.25" font-size="24" fill="black" text-anchor="middle" dy="0em">ME_LAB_FABRIC</text>
<rect x="768.18" y="-669.75" width="44.64" height="23" fill="hsl(0, 0%, 80%)" />
<text x="790.5" y="-649.75" font-size="24" fill="black" text-anchor="middle" dy="0em">DC1</text>
<rect x="731.48" y="-392.25" width="119.03999999999999" height="23" fill="hsl(0, 0%, 70%)" />
<text x="791.0" y="-372.25" font-size="24" fill="black" text-anchor="middle" dy="0em">DC1_POD1</text>
</svg>