<?xml version="1.0" encoding="UTF-8"?>
<svg xmlns="http://www.w3.org/2000/svg" xmlns:xlink="http://www.w3.org/1999/xlink"
     width="786" height="786.0" viewBox="0 -3000 3000 3000" font-family="monospace">
<defs>
</defs>
<rect x="0" y="-3000" width="3000" height="3000" fill="white" />
<rect x="20" y="-2925" width="2440" height="1210" stroke="black" fill="white" />
<text x="24" y="-2905" font-size="24" fill="black" dy="0em">TWODC_5STAGE_CLOS</text>
<rect x="45" y="-2900" width="1615" height="1160" stroke="black" fill="white" />
<text x="49" y="-2880" font-size="24" fill="black" dy="0em">DC1</text>
<rect x="70" y="-2635" width="600" height="580" stroke="black" fill="white" />
<text x="74" y="-2615" font-size="24" fill="black" dy="0em">DC1_POD2</text>
<rect x="215.0" y="-2285.0" width="120" height="120" fill="#5167B7" text="DC1-POD2-LEAF1A" />
<text x="275.0" y="-2219.0" font-size="12" fill="white" text-anchor="middle" dy="0em">DC1-POD2-LEAF1A</text>
<rect x="190.0" y="-2550.0" width="120" height="120" fill="#5167B7" text="DC1-POD2-SPINE1" />
<text x="250.0" y="-2484.0" font-size="12" fill="white" text-anchor="middle" dy="0em">DC1-POD2-SPINE1</text>
<rect x="430.0" y="-2550.0" width="120" height="120" fill="#5167B7" text="DC1-POD2-SPINE2" />
<text x="490.0" y="-2484.0" font-size="12" fill="white" text-anchor="middle" dy="0em">DC1-POD2-SPINE2</text>
<rect x="695" y="-2635" width="940" height="870" stroke="black" fill="white" />
<text x="699" y="-2615" font-size="24" fill="black" dy="0em">DC1_POD1</text>
<rect x="865.0" y="-2020.0" width="120" height="120" fill="#5167B7" text="DC1-POD1-L2LEAF1A" />
<text x="925.0" y="-1954.0" font-size="12" fill="white" text-anchor="middle" dy="0em">DC1-POD1-L2LEAF1A</text>
<rect x="1105.0" y="-2020.0" width="120" height="120" fill="#5167B7" text="DC1-POD1-L2LEAF2A" />
<text x="1165.0" y="-1954.0" font-size="12" fill="white" text-anchor="middle" dy="0em">DC1-POD1-L2LEAF2A</text>
<rect x="1345.0" y="-2020.0" width="120" height="120" fill="#5167B7" text="DC1-POD1-L2LEAF2B" />
<text x="1405.0" y="-1954.0" font-size="12" fill="white" text-anchor="middle" dy="0em">DC1-POD1-L2LEAF2B</text>
<rect x="985.0" y="-2285.0" width="120" height="120" fill="#5167B7" text="DC1-POD1-LEAF1A" />
<text x="1045.0" y="-2219.0" font-size="12" fill="white" text-anchor="middle" dy="0em">DC1-POD1-LEAF1A</text>
<rect x="1225.0" y="-2285.0" width="120" height="120" fill="#5167B7" text="DC1-POD1-LEAF2B" />
<text x="1285.0" y="-2219.0" font-size="12" fill="white" text-anchor="middle" dy="0em">DC1-POD1-LEAF2B</text>
<rect x="985.0" y="-2550.0" width="120" height="120" fill="#5167B7" text="DC1-POD1-SPINE1" />
<text x="1045.0" y="-2484.0" font-size="12" fill="white" text-anchor="middle" dy="0em">DC1-POD1-SPINE1</text>
<rect x="1225.0" y="-2550.0" width="120" height="120" fill="#5167B7" text="DC1-POD1-SPINE2" />
<text x="1285.0" y="-2484.0" font-size="12" fill="white" text-anchor="middle" dy="0em">DC1-POD1-SPINE2</text>
<rect x="672.5" y="-2815.0" width="120" height="120" fill="#5167B7" text="DC1-SUPER-SPINE1" />
<text x="732.5" y="-2749.0" font-size="12" fill="white" text-anchor="middle" dy="0em">DC1-SUPER-SPINE1</text>
<rect x="912.5" y="-2815.0" width="120" height="120" fill="#5167B7" text="DC1-SUPER-SPINE2" />
<text x="972.5" y="-2749.0" font-size="12" fill="white" text-anchor="middle" dy="0em">DC1-SUPER-SPINE2</text>
<rect x="1685" y="-2900" width="750" height="1160" stroke="black" fill="white" />
<text x="1689" y="-2880" font-size="24" fill="black" dy="0em">DC2</text>
<rect x="1710" y="-2635" width="700" height="870" stroke="black" fill="white" />
<text x="1714" y="-2615" font-size="24" fill="black" dy="0em">DC2_POD1</text>
<rect x="1880.0" y="-2020.0" width="120" height="120" fill="#5167B7" text="DC2-POD1-L2LEAF1A" />
<text x="1940.0" y="-1954.0" font-size="12" fill="white" text-anchor="middle" dy="0em">DC2-POD1-L2LEAF1A</text>
<rect x="2120.0" y="-2020.0" width="120" height="120" fill="#5167B7" text="DC2-POD1-L2LEAF2A" />
<text x="2180.0" y="-1954.0" font-size="12" fill="white" text-anchor="middle" dy="0em">DC2-POD1-L2LEAF2A</text>
<rect x="1880.0" y="-2285.0" width="120" height="120" fill="#5167B7" text="DC2-POD1-LEAF1A" />
<text x="1940.0" y="-2219.0" font-size="12" fill="white" text-anchor="middle" dy="0em">DC2-POD1-LEAF1A</text>
<rect x="2120.0" y="-2285.0" width="120" height="120" fill="#5167B7" text="DC2-POD1-LEAF2A" />
<text x="2180.0" y="-2219.0" font-size="12" fill="white" text-anchor="middle" dy="0em">DC2-POD1-LEAF2A</text>
<rect x="1880.0" y="-2550.0" width="120" height="120" fill="#5167B7" text="DC2-POD1-SPINE1" />
<text x="1940.0" y="-2484.0" font-size="12" fill="white" text-anchor="middle" dy="0em">DC2-POD1-SPINE1</text>
<rect x="2120.0" y="-2550.0" width="120" height="120" fill="#5167B7" text="DC2-POD1-SPINE2" />
<text x="2180.0" y="-2484.0" font-size="12" fill="white" text-anchor="middle" dy="0em">DC2-POD1-SPINE2</text>
<rect x="1880.0" y="-2815.0" width="120" height="120" fill="#5167B7" text="DC2-SUPER-SPINE1" />
<text x="1940.0" y="-2749.0" font-size="12" fill="white" text-anchor="middle" dy="0em">DC2-SUPER-SPINE1</text>
<rect x="2120.0" y="-2815.0" width="120" height="120" fill="#5167B7" text="DC2-SUPER-SPINE2" />
<text x="2180.0" y="-2749.0" font-size="12" fill="white" text-anchor="middle" dy="0em">DC2-SUPER-SPINE2</text>
<rect x="672.5" y="-2695.0" width="20" height="30" fill="white" stroke="black" />
<text x="682.5" y="-2674.6666666666665" font-size="16" fill="black" text-anchor="middle" dy="0em">1</text>
<rect x="695.5" y="-2695.0" width="20" height="30" fill="white" stroke="black" />
<text x="705.5" y="-2674.6666666666665" font-size="16" fill="black" text-anchor="middle" dy="0em">2</text>
<rect x="695.5" y="-2695.0" width="20" height="30" fill="white" stroke="black" />
<text x="705.5" y="-2674.6666666666665" font-size="16" fill="black" text-anchor="middle" dy="0em">3</text>
<rect x="695.5" y="-2695.0" width="20" height="30" fill="white" stroke="black" />
<text x="705.5" y="-2674.6666666666665" font-size="16" fill="black" text-anchor="middle" dy="0em">4</text>
<rect x="792.5" y="-2815.0" width="30" height="20" fill="white" stroke="black" />
<text x="807.5" y="-2799.6666666666665" font-size="16" fill="black" text-anchor="middle" dy="0em">6</text>
<rect x="912.5" y="-2695.0" width="20" height="30" fill="white" stroke="black" />
<text x="922.5" y="-2674.6666666666665" font-size="16" fill="black" text-anchor="middle" dy="0em">1</text>
<rect x="935.5" y="-2695.0" width="20" height="30" fill="white" stroke="black" />
<text x="945.5" y="-2674.6666666666665" font-size="16" fill="black" text-anchor="middle" dy="0em">2</text>
<rect x="935.5" y="-2695.0" width="20" height="30" fill="white" stroke="black" />
<text x="945.5" y="-2674.6666666666665" font-size="16" fill="black" text-anchor="middle" dy="0em">3</text>
<rect x="935.5" y="-2695.0" width="20" height="30" fill="white" stroke="black" />
<text x="945.5" y="-2674.6666666666665" font-size="16" fill="black" text-anchor="middle" dy="0em">4</text>
<rect x="1032.5" y="-2815.0" width="30" height="20" fill="white" stroke="black" />
<text x="1047.5" y="-2799.6666666666665" font-size="16" fill="black" text-anchor="middle" dy="0em">6</text>
<rect x="2120.0" y="-2695.0" width="20" height="30" fill="white" stroke="black" />
<text x="2130.0" y="-2674.6666666666665" font-size="16" fill="black" text-anchor="middle" dy="0em">1</text>
<rect x="2143.0" y="-2695.0" width="20" height="30" fill="white" stroke="black" />
<text x="2153.0" y="-2674.6666666666665" font-size="16" fill="black" text-anchor="middle" dy="0em">2</text>
<rect x="2090.0" y="-2815.0" width="30" height="20" fill="white" stroke="black" />
<text x="2105.0" y="-2799.6666666666665" font-size="16" fill="black" text-anchor="middle" dy="0em">4</text>
<rect x="1880.0" y="-2695.0" width="20" height="30" fill="white" stroke="black" />
<text x="1890.0" y="-2674.6666666666665" font-size="16" fill="black" text-anchor="middle" dy="0em">1</text>
<rect x="1903.0" y="-2695.0" width="20" height="30" fill="white" stroke="black" />
<text x="1913.0" y="-2674.6666666666665" font-size="16" fill="black" text-anchor="middle" dy="0em">2</text>
<rect x="1850.0" y="-2815.0" width="30" height="20" fill="white" stroke="black" />
<text x="1865.0" y="-2799.6666666666665" font-size="16" fill="black" text-anchor="middle" dy="0em">4</text>
<rect x="985.0" y="-2580.0" width="20" height="30" fill="white" stroke="black" />
<text x="995.0" y="-2559.6666666666665" font-size="16" fill="black" text-anchor="middle" dy="0em">1</text>
<rect x="1008.0" y="-2580.0" width="20" height="30" fill="white" stroke="black" />
<text x="1018.0" y="-2559.6666666666665" font-size="16" fill="black" text-anchor="middle" dy="0em">2</text>
<rect x="985.0" y="-2430.0" width="20" height="30" fill="white" stroke="black" />
<text x="995.0" y="-2409.6666666666665" font-size="16" fill="black" text-anchor="middle" dy="0em">5</text>
<rect x="1008.0" y="-2430.0" width="20" height="30" fill="white" stroke="black" />
<text x="1018.0" y="-2409.6666666666665" font-size="16" fill="black" text-anchor="middle" dy="0em">8</text>
<rect x="1008.0" y="-2430.0" width="20" height="30" fill="white" stroke="black" />
<text x="1018.0" y="-2409.6666666666665" font-size="16" fill="black" text-anchor="middle" dy="0em">3</text>
<rect x="1225.0" y="-2580.0" width="20" height="30" fill="white" stroke="black" />
<text x="1235.0" y="-2559.6666666666665" font-size="16" fill="black" text-anchor="middle" dy="0em">1</text>
<rect x="1248.0" y="-2580.0" width="20" height="30" fill="white" stroke="black" />
<text x="1258.0" y="-2559.6666666666665" font-size="16" fill="black" text-anchor="middle" dy="0em">2</text>
<rect x="1225.0" y="-2430.0" width="20" height="30" fill="white" stroke="black" />
<text x="1235.0" y="-2409.6666666666665" font-size="16" fill="black" text-anchor="middle" dy="0em">5</text>
<rect x="1248.0" y="-2430.0" width="20" height="30" fill="white" stroke="black" />
<text x="1258.0" y="-2409.6666666666665" font-size="16" fill="black" text-anchor="middle" dy="0em">8</text>
<rect x="1248.0" y="-2430.0" width="20" height="30" fill="white" stroke="black" />
<text x="1258.0" y="-2409.6666666666665" font-size="16" fill="black" text-anchor="middle" dy="0em">3</text>
<rect x="190.0" y="-2580.0" width="20" height="30" fill="white" stroke="black" />
<text x="200.0" y="-2559.6666666666665" font-size="16" fill="black" text-anchor="middle" dy="0em">1</text>
<rect x="213.0" y="-2580.0" width="20" height="30" fill="white" stroke="black" />
<text x="223.0" y="-2559.6666666666665" font-size="16" fill="black" text-anchor="middle" dy="0em">2</text>
<rect x="190.0" y="-2430.0" width="20" height="30" fill="white" stroke="black" />
<text x="200.0" y="-2409.6666666666665" font-size="16" fill="black" text-anchor="middle" dy="0em">3</text>
<rect x="310.0" y="-2550.0" width="30" height="20" fill="white" stroke="black" />
<text x="325.0" y="-2534.6666666666665" font-size="16" fill="black" text-anchor="middle" dy="0em">5</text>
<rect x="430.0" y="-2580.0" width="20" height="30" fill="white" stroke="black" />
<text x="440.0" y="-2559.6666666666665" font-size="16" fill="black" text-anchor="middle" dy="0em">1</text>
<rect x="453.0" y="-2580.0" width="20" height="30" fill="white" stroke="black" />
<text x="463.0" y="-2559.6666666666665" font-size="16" fill="black" text-anchor="middle" dy="0em">2</text>
<rect x="430.0" y="-2430.0" width="20" height="30" fill="white" stroke="black" />
<text x="440.0" y="-2409.6666666666665" font-size="16" fill="black" text-anchor="middle" dy="0em">3</text>
<rect x="550.0" y="-2550.0" width="30" height="20" fill="white" stroke="black" />
<text x="565.0" y="-2534.6666666666665" font-size="16" fill="black" text-anchor="middle" dy="0em">4</text>
<rect x="1880.0" y="-2580.0" width="20" height="30" fill="white" stroke="black" />
<text x="1890.0" y="-2559.6666666666665" font-size="16" fill="black" text-anchor="middle" dy="0em">2</text>
<rect x="1903.0" y="-2580.0" width="20" height="30" fill="white" stroke="black" />
<text x="1913.0" y="-2559.6666666666665" font-size="16" fill="black" text-anchor="middle" dy="0em">1</text>
<rect x="1880.0" y="-2430.0" width="20" height="30" fill="white" stroke="black" />
<text x="1890.0" y="-2409.6666666666665" font-size="16" fill="black" text-anchor="middle" dy="0em">3</text>
<rect x="1903.0" y="-2430.0" width="20" height="30" fill="white" stroke="black" />
<text x="1913.0" y="-2409.6666666666665" font-size="16" fill="black" text-anchor="middle" dy="0em">4</text>
<rect x="1850.0" y="-2550.0" width="30" height="20" fill="white" stroke="black" />
<text x="1865.0" y="-2534.6666666666665" font-size="16" fill="black" text-anchor="middle" dy="0em">5</text>
<rect x="2120.0" y="-2580.0" width="20" height="30" fill="white" stroke="black" />
<text x="2130.0" y="-2559.6666666666665" font-size="16" fill="black" text-anchor="middle" dy="0em">2</text>
<rect x="2143.0" y="-2580.0" width="20" height="30" fill="white" stroke="black" />
<text x="2153.0" y="-2559.6666666666665" font-size="16" fill="black" text-anchor="middle" dy="0em">1</text>
<rect x="2120.0" y="-2430.0" width="20" height="30" fill="white" stroke="black" />
<text x="2130.0" y="-2409.6666666666665" font-size="16" fill="black" text-anchor="middle" dy="0em">3</text>
<rect x="2143.0" y="-2430.0" width="20" height="30" fill="white" stroke="black" />
<text x="2153.0" y="-2409.6666666666665" font-size="16" fill="black" text-anchor="middle" dy="0em">4</text>
<rect x="2090.0" y="-2550.0" width="30" height="20" fill="white" stroke="black" />
<text x="2105.0" y="-2534.6666666666665" font-size="16" fill="black" text-anchor="middle" dy="0em">5</text>
<rect x="985.0" y="-2315.0" width="20" height="30" fill="white" stroke="black" />
<text x="995.0" y="-2294.6666666666665" font-size="16" fill="black" text-anchor="middle" dy="0em">1</text>
<rect x="1008.0" y="-2315.0" width="20" height="30" fill="white" stroke="black" />
<text x="1018.0" y="-2294.6666666666665" font-size="16" fill="black" text-anchor="middle" dy="0em">2</text>
<rect x="985.0" y="-2165.0" width="20" height="30" fill="white" stroke="black" />
<text x="995.0" y="-2144.6666666666665" font-size="16" fill="black" text-anchor="middle" dy="0em">3</text>
<rect x="1225.0" y="-2315.0" width="20" height="30" fill="white" stroke="black" />
<text x="1235.0" y="-2294.6666666666665" font-size="16" fill="black" text-anchor="middle" dy="0em">1</text>
<rect x="1248.0" y="-2315.0" width="20" height="30" fill="white" stroke="black" />
<text x="1258.0" y="-2294.6666666666665" font-size="16" fill="black" text-anchor="middle" dy="0em">2</text>
<rect x="1248.0" y="-2315.0" width="20" height="30" fill="white" stroke="black" />
<text x="1258.0" y="-2294.6666666666665" font-size="16" fill="black" text-anchor="middle" dy="0em">11</text>
<rect x="1248.0" y="-2315.0" width="20" height="30" fill="white" stroke="black" />
<text x="1258.0" y="-2294.6666666666665" font-size="16" fill="black" text-anchor="middle" dy="0em">12</text>
<rect x="1225.0" y="-2165.0" width="20" height="30" fill="white" stroke="black" />
<text x="1235.0" y="-2144.6666666666665" font-size="16" fill="black" text-anchor="middle" dy="0em">3</text>
<rect x="1248.0" y="-2165.0" width="20" height="30" fill="white" stroke="black" />
<text x="1258.0" y="-2144.6666666666665" font-size="16" fill="black" text-anchor="middle" dy="0em">4</text>
<rect x="1345.0" y="-2285.0" width="30" height="20" fill="white" stroke="black" />
<text x="1360.0" y="-2269.6666666666665" font-size="16" fill="black" text-anchor="middle" dy="0em">7</text>
<rect x="215.0" y="-2315.0" width="20" height="30" fill="white" stroke="black" />
<text x="225.0" y="-2294.6666666666665" font-size="16" fill="black" text-anchor="middle" dy="0em">1</text>
<rect x="238.0" y="-2315.0" width="20" height="30" fill="white" stroke="black" />
<text x="248.0" y="-2294.6666666666665" font-size="16" fill="black" text-anchor="middle" dy="0em">2</text>
<rect x="1880.0" y="-2315.0" width="20" height="30" fill="white" stroke="black" />
<text x="1890.0" y="-2294.6666666666665" font-size="16" fill="black" text-anchor="middle" dy="0em">1</text>
<rect x="1903.0" y="-2315.0" width="20" height="30" fill="white" stroke="black" />
<text x="1913.0" y="-2294.6666666666665" font-size="16" fill="black" text-anchor="middle" dy="0em">2</text>
<rect x="1880.0" y="-2165.0" width="20" height="30" fill="white" stroke="black" />
<text x="1890.0" y="-2144.6666666666665" font-size="16" fill="black" text-anchor="middle" dy="0em">3</text>
<rect x="1850.0" y="-2285.0" width="30" height="20" fill="white" stroke="black" />
<text x="1865.0" y="-2269.6666666666665" font-size="16" fill="black" text-anchor="middle" dy="0em">7</text>
<rect x="2120.0" y="-2315.0" width="20" height="30" fill="white" stroke="black" />
<text x="2130.0" y="-2294.6666666666665" font-size="16" fill="black" text-anchor="middle" dy="0em">1</text>
<rect x="2143.0" y="-2315.0" width="20" height="30" fill="white" stroke="black" />
<text x="2153.0" y="-2294.6666666666665" font-size="16" fill="black" text-anchor="middle" dy="0em">2</text>
<rect x="2120.0" y="-2165.0" width="20" height="30" fill="white" stroke="black" />
<text x="2130.0" y="-2144.6666666666665" font-size="16" fill="black" text-anchor="middle" dy="0em">3</text>
<rect x="865.0" y="-2050.0" width="20" height="30" fill="white" stroke="black" />
<text x="875.0" y="-2029.6666666666667" font-size="16" fill="black" text-anchor="middle" dy="0em">1</text>
<rect x="1105.0" y="-2050.0" width="20" height="30" fill="white" stroke="black" />
<text x="1115.0" y="-2029.6666666666667" font-size="16" fill="black" text-anchor="middle" dy="0em">2</text>
<rect x="1225.0" y="-2020.0" width="30" height="20" fill="white" stroke="black" />
<text x="1240.0" y="-2004.6666666666667" font-size="16" fill="black" text-anchor="middle" dy="0em">3</text>
<rect x="1225.0" y="-1997.0" width="30" height="20" fill="white" stroke="black" />
<text x="1240.0" y="-1981.6666666666667" font-size="16" fill="black" text-anchor="middle" dy="0em">4</text>
<rect x="1345.0" y="-2050.0" width="20" height="30" fill="white" stroke="black" />
<text x="1355.0" y="-2029.6666666666667" font-size="16" fill="black" text-anchor="middle" dy="0em">2</text>
<rect x="1315.0" y="-2020.0" width="30" height="20" fill="white" stroke="black" />
<text x="1330.0" y="-2004.6666666666667" font-size="16" fill="black" text-anchor="middle" dy="0em">3</text>
<rect x="1315.0" y="-1997.0" width="30" height="20" fill="white" stroke="black" />
<text x="1330.0" y="-1981.6666666666667" font-size="16" fill="black" text-anchor="middle" dy="0em">4</text>
<rect x="1880.0" y="-2050.0" width="20" height="30" fill="white" stroke="black" />
<text x="1890.0" y="-2029.6666666666667" font-size="16" fill="black" text-anchor="middle" dy="0em">1</text>
<rect x="2120.0" y="-2050.0" width="20" height="30" fill="white" stroke="black" />
<text x="2130.0" y="-2029.6666666666667" font-size="16" fill="black" text-anchor="middle" dy="0em">1</text>
<path d="M682.5,-2665.0 L995.0,-2580.0" stroke="black" stroke-width="2" />
<path d="M705.5,-2665.0 L1235.0,-2580.0" stroke="black" stroke-width="2" />
<path d="M705.5,-2665.0 L200.0,-2580.0" stroke="black" stroke-width="2" />
<path d="M705.5,-2665.0 L440.0,-2580.0" stroke="black" stroke-width="2" />
<path d="M822.5,-2805.0 L832.5,-2805.0" stroke="black" stroke-width="2" />
<path d="M832.5,-2805.0 L832.5,-2861.0" stroke="black" stroke-width="2" />
<path d="M832.5,-2861.0 L1336.25,-2861.0" stroke="black" stroke-width="2" />
<path d="M1850.0,-2805.0 L1840.0,-2805.0" stroke="black" stroke-width="2" />
<path d="M1840.0,-2805.0 L1840.0,-2861.0" stroke="black" stroke-width="2" />
<path d="M1840.0,-2861.0 L1336.25,-2861.0" stroke="black" stroke-width="2" />
<path d="M922.5,-2665.0 L1018.0,-2580.0" stroke="black" stroke-width="2" />
<path d="M945.5,-2665.0 L1258.0,-2580.0" stroke="black" stroke-width="2" />
<path d="M945.5,-2665.0 L223.0,-2580.0" stroke="black" stroke-width="2" />
<path d="M945.5,-2665.0 L463.0,-2580.0" stroke="black" stroke-width="2" />
<path d="M1062.5,-2805.0 L1072.5,-2805.0" stroke="black" stroke-width="2" />
<path d="M1072.5,-2805.0 L1072.5,-2867.0" stroke="black" stroke-width="2" />
<path d="M1072.5,-2867.0 L1576.25,-2867.0" stroke="black" stroke-width="2" />
<path d="M2090.0,-2805.0 L2080.0,-2805.0" stroke="black" stroke-width="2" />
<path d="M2080.0,-2805.0 L2080.0,-2867.0" stroke="black" stroke-width="2" />
<path d="M2080.0,-2867.0 L1576.25,-2867.0" stroke="black" stroke-width="2" />
<path d="M200.0,-2400.0 L225.0,-2315.0" stroke="black" stroke-width="2" />
<path d="M340.0,-2540.0 L350.0,-2540.0" stroke="black" stroke-width="2" />
<path d="M350.0,-2540.0 L350.0,-2596.0" stroke="black" stroke-width="2" />
<path d="M350.0,-2596.0 L1095.0,-2596.0" stroke="black" stroke-width="2" />
<path d="M1850.0,-2540.0 L1840.0,-2540.0" stroke="black" stroke-width="2" />
<path d="M1840.0,-2540.0 L1840.0,-2596.0" stroke="black" stroke-width="2" />
<path d="M1840.0,-2596.0 L1095.0,-2596.0" stroke="black" stroke-width="2" />
<path d="M440.0,-2400.0 L248.0,-2315.0" stroke="black" stroke-width="2" />
<path d="M580.0,-2540.0 L590.0,-2540.0" stroke="black" stroke-width="2" />
<path d="M590.0,-2540.0 L590.0,-2602.0" stroke="black" stroke-width="2" />
<path d="M590.0,-2602.0 L1335.0,-2602.0" stroke="black" stroke-width="2" />
<path d="M2090.0,-2540.0 L2080.0,-2540.0" stroke="black" stroke-width="2" />
<path d="M2080.0,-2540.0 L2080.0,-2602.0" stroke="black" stroke-width="2" />
<path d="M2080.0,-2602.0 L1335.0,-2602.0" stroke="black" stroke-width="2" />
<path d="M1235.0,-2315.0 L995.0,-2400.0" stroke="black" stroke-width="2" />
<path d="M1258.0,-2315.0 L1235.0,-2400.0" stroke="black" stroke-width="2" />
<path d="M1235.0,-2135.0 L1115.0,-2050.0" stroke="black" stroke-width="2" />
<path d="M1258.0,-2135.0 L1355.0,-2050.0" stroke="black" stroke-width="2" />
<path d="M1258.0,-2315.0 L1018.0,-2400.0" stroke="black" stroke-width="2" />
<path d="M1258.0,-2315.0 L1258.0,-2400.0" stroke="black" stroke-width="2" />
<path d="M1375.0,-2275.0 L1850.0,-2275.0" stroke="black" stroke-width="2" />
<path d="M1315.0,-2010.0 L1255.0,-2010.0" stroke="black" stroke-width="2" />
<path d="M1315.0,-1987.0 L1255.0,-1987.0" stroke="black" stroke-width="2" />
<path d="M875.0,-2050.0 L995.0,-2135.0" stroke="black" stroke-width="2" />
<path d="M995.0,-2315.0 L1018.0,-2400.0" stroke="black" stroke-width="2" />
<path d="M1018.0,-2315.0 L1258.0,-2400.0" stroke="black" stroke-width="2" />
<path d="M2130.0,-2665.0 L1890.0,-2580.0" stroke="black" stroke-width="2" />
<path d="M2153.0,-2665.0 L2130.0,-2580.0" stroke="black" stroke-width="2" />
<path d="M1890.0,-2665.0 L1913.0,-2580.0" stroke="black" stroke-width="2" />
<path d="M1913.0,-2665.0 L2153.0,-2580.0" stroke="black" stroke-width="2" />
<path d="M1890.0,-2315.0 L1890.0,-2400.0" stroke="black" stroke-width="2" />
<path d="M1913.0,-2315.0 L2130.0,-2400.0" stroke="black" stroke-width="2" />
<path d="M1890.0,-2135.0 L1890.0,-2050.0" stroke="black" stroke-width="2" />
<path d="M2130.0,-2050.0 L2130.0,-2135.0" stroke="black" stroke-width="2" />
<path d="M1913.0,-2400.0 L2130.0,-2315.0" stroke="black" stroke-width="2" />
<path d="M2153.0,-2400.0 L2153.0,-2315.0" stroke="black" stroke-width="2" />
</svg>