<?xml version="1.0" encoding="UTF-8"?>
<svg xmlns="http://www.w3.org/2000/svg" xmlns:xlink="http://www.w3.org/1999/xlink"
     width="786" height="786.0" viewBox="0 -3000 3000 3000" font-family="monospace">
<defs>
</defs>
<rect x="0" y="-3000" width="3000" height="3000" fill="white" />
<rect x="20" y="-2925.0" width="2080" height="1303.75" fill="hsl(0, 0%, 90%)" rx="25" stroke="hsl(0, 0%, 60.0%)" stroke-width="4" />
<rect x="45" y="-2887.5" width="1375" height="1235.0" fill="hsl(0, 0%, 80%)" rx="25" stroke="hsl(0, 0%, 52.5%)" stroke-width="4" />
<rect x="70" y="-2610.0" width="480" height="617.5" fill="hsl(0, 0%, 70%)" rx="25" stroke="hsl(0, 0%, 45.0%)" stroke-width="4" />
<rect x="155.0" y="-2247.5" width="120" height="120" fill="#5167B7" text="DC1-POD2-LEAF1A" />
<text x="215.0" y="-2190.5" font-size="18" fill="white" text-anchor="middle" dy="0em">DC1-POD2</text>
<text x="215.0" y="-2172.5" font-size="18" fill="white" text-anchor="middle" dy="0em">LEAF1A</text>
<rect x="130.0" y="-2525.0" width="120" height="120" fill="#5167B7" text="DC1-POD2-SPINE1" />
<text x="190.0" y="-2468.0" font-size="18" fill="white" text-anchor="middle" dy="0em">DC1-POD2</text>
<text x="190.0" y="-2450.0" font-size="18" fill="white" text-anchor="middle" dy="0em">SPINE1</text>
<rect x="370.0" y="-2525.0" width="120" height="120" fill="#5167B7" text="DC1-POD2-SPINE2" />
<text x="430.0" y="-2468.0" font-size="18" fill="white" text-anchor="middle" dy="0em">DC1-POD2</text>
<text x="430.0" y="-2450.0" font-size="18" fill="white" text-anchor="middle" dy="0em">SPINE2</text>
<rect x="575" y="-2610.0" width="820" height="926.25" fill="hsl(0, 0%, 70%)" rx="25" stroke="hsl(0, 0%, 45.0%)" stroke-width="4" />
<rect x="685.0" y="-1970.0" width="120" height="120" fill="#5167B7" text="DC1-POD1-L2LEAF1A" />
<text x="745.0" y="-1913.0" font-size="18" fill="white" text-anchor="middle" dy="0em">DC1-POD1</text>
<text x="745.0" y="-1895.0" font-size="18" fill="white" text-anchor="middle" dy="0em">L2LEAF1A</text>
<rect x="925.0" y="-1970.0" width="120" height="120" fill="#5167B7" text="DC1-POD1-L2LEAF2A" />
<text x="985.0" y="-1913.0" font-size="18" fill="white" text-anchor="middle" dy="0em">DC1-POD1</text>
<text x="985.0" y="-1895.0" font-size="18" fill="white" text-anchor="middle" dy="0em">L2LEAF2A</text>
<rect x="1165.0" y="-1970.0" width="120" height="120" fill="#5167B7" text="DC1-POD1-L2LEAF2B" />
<text x="1225.0" y="-1913.0" font-size="18" fill="white" text-anchor="middle" dy="0em">DC1-POD1</text>
<text x="1225.0" y="-1895.0" font-size="18" fill="white" text-anchor="middle" dy="0em">L2LEAF2B</text>
<rect x="805.0" y="-2247.5" width="120" height="120" fill="#5167B7" text="DC1-POD1-LEAF1A" />
<text x="865.0" y="-2190.5" font-size="18" fill="white" text-anchor="middle" dy="0em">DC1-POD1</text>
<text x="865.0" y="-2172.5" font-size="18" fill="white" text-anchor="middle" dy="0em">LEAF1A</text>
<rect x="1045.0" y="-2247.5" width="120" height="120" fill="#5167B7" text="DC1-POD1-LEAF2B" />
<text x="1105.0" y="-2190.5" font-size="18" fill="white" text-anchor="middle" dy="0em">DC1-POD1</text>
<text x="1105.0" y="-2172.5" font-size="18" fill="white" text-anchor="middle" dy="0em">LEAF2B</text>
<rect x="805.0" y="-2525.0" width="120" height="120" fill="#5167B7" text="DC1-POD1-SPINE1" />
<text x="865.0" y="-2468.0" font-size="18" fill="white" text-anchor="middle" dy="0em">DC1-POD1</text>
<text x="865.0" y="-2450.0" font-size="18" fill="white" text-anchor="middle" dy="0em">SPINE1</text>
<rect x="1045.0" y="-2525.0" width="120" height="120" fill="#5167B7" text="DC1-POD1-SPINE2" />
<text x="1105.0" y="-2468.0" font-size="18" fill="white" text-anchor="middle" dy="0em">DC1-POD1</text>
<text x="1105.0" y="-2450.0" font-size="18" fill="white" text-anchor="middle" dy="0em">SPINE2</text>
<rect x="552.5" y="-2802.5" width="120" height="120" fill="#5167B7" text="DC1-SUPER-SPINE1" />
<text x="612.5" y="-2745.5" font-size="18" fill="white" text-anchor="middle" dy="0em">DC1-SUPER</text>
<text x="612.5" y="-2727.5" font-size="18" fill="white" text-anchor="middle" dy="0em">SPINE1</text>
<rect x="792.5" y="-2802.5" width="120" height="120" fill="#5167B7" text="DC1-SUPER-SPINE2" />
<text x="852.5" y="-2745.5" font-size="18" fill="white" text-anchor="middle" dy="0em">DC1-SUPER</text>
<text x="852.5" y="-2727.5" font-size="18" fill="white" text-anchor="middle" dy="0em">SPINE2</text>
<rect x="1445" y="-2887.5" width="630" height="1235.0" fill="hsl(0, 0%, 80%)" rx="25" stroke="hsl(0, 0%, 52.5%)" stroke-width="4" />
<rect x="1470" y="-2610.0" width="580" height="926.25" fill="hsl(0, 0%, 70%)" rx="25" stroke="hsl(0, 0%, 45.0%)" stroke-width="4" />
<rect x="1580.0" y="-1970.0" width="120" height="120" fill="#5167B7" text="DC2-POD1-L2LEAF1A" />
<text x="1640.0" y="-1913.0" font-size="18" fill="white" text-anchor="middle" dy="0em">DC2-POD1</text>
<text x="1640.0" y="-1895.0" font-size="18" fill="white" text-anchor="middle" dy="0em">L2LEAF1A</text>
<rect x="1820.0" y="-1970.0" width="120" height="120" fill="#5167B7" text="DC2-POD1-L2LEAF2A" />
<text x="1880.0" y="-1913.0" font-size="18" fill="white" text-anchor="middle" dy="0em">DC2-POD1</text>
<text x="1880.0" y="-1895.0" font-size="18" fill="white" text-anchor="middle" dy="0em">L2LEAF2A</text>
<rect x="1580.0" y="-2247.5" width="120" height="120" fill="#5167B7" text="DC2-POD1-LEAF1A" />
<text x="1640.0" y="-2190.5" font-size="18" fill="white" text-anchor="middle" dy="0em">DC2-POD1</text>
<text x="1640.0" y="-2172.5" font-size="18" fill="white" text-anchor="middle" dy="0em">LEAF1A</text>
<rect x="1820.0" y="-2247.5" width="120" height="120" fill="#5167B7" text="DC2-POD1-LEAF2A" />
<text x="1880.0" y="-2190.5" font-size="18" fill="white" text-anchor="middle" dy="0em">DC2-POD1</text>
<text x="1880.0" y="-2172.5" font-size="18" fill="white" text-anchor="middle" dy="0em">LEAF2A</text>
<rect x="1580.0" y="-2525.0" width="120" height="120" fill="#5167B7" text="DC2-POD1-SPINE1" />
<text x="1640.0" y="-2468.0" font-size="18" fill="white" text-anchor="middle" dy="0em">DC2-POD1</text>
<text x="1640.0" y="-2450.0" font-size="18" fill="white" text-anchor="middle" dy="0em">SPINE1</text>
<rect x="1820.0" y="-2525.0" width="120" height="120" fill="#5167B7" text="DC2-POD1-SPINE2" />
<text x="1880.0" y="-2468.0" font-size="18" fill="white" text-anchor="middle" dy="0em">DC2-POD1</text>
<text x="1880.0" y="-2450.0" font-size="18" fill="white" text-anchor="middle" dy="0em">SPINE2</text>
<rect x="1580.0" y="-2802.5" width="120" height="120" fill="#5167B7" text="DC2-SUPER-SPINE1" />
<text x="1640.0" y="-2745.5" font-size="18" fill="white" text-anchor="middle" dy="0em">DC2-SUPER</text>
<text x="1640.0" y="-2727.5" font-size="18" fill="white" text-anchor="middle" dy="0em">SPINE1</text>
<rect x="1820.0" y="-2802.5" width="120" height="120" fill="#5167B7" text="DC2-SUPER-SPINE2" />
<text x="1880.0" y="-2745.5" font-size="18" fill="white" text-anchor="middle" dy="0em">DC2-SUPER</text>
<text x="1880.0" y="-2727.5" font-size="18" fill="white" text-anchor="middle" dy="0em">SPINE2</text>
<rect x="552.5" y="-2682.5" width="20" height="30" fill="white" stroke="black" />
<text x="562.5" y="-2662.1666666666665" font-size="16" fill="black" text-anchor="middle" dy="0em">1</text>
<rect x="575.5" y="-2682.5" width="20" height="30" fill="white" stroke="black" />
<text x="585.5" y="-2662.1666666666665" font-size="16" fill="black" text-anchor="middle" dy="0em">2</text>
<rect x="575.5" y="-2682.5" width="20" height="30" fill="white" stroke="black" />
<text x="585.5" y="-2662.1666666666665" font-size="16" fill="black" text-anchor="middle" dy="0em">3</text>
<rect x="575.5" y="-2682.5" width="20" height="30" fill="white" stroke="black" />
<text x="585.5" y="-2662.1666666666665" font-size="16" fill="black" text-anchor="middle" dy="0em">4</text>
<rect x="672.5" y="-2802.5" width="30" height="20" fill="white" stroke="black" />
<text x="687.5" y="-2787.1666666666665" font-size="16" fill="black" text-anchor="middle" dy="0em">6</text>
<rect x="792.5" y="-2682.5" width="20" height="30" fill="white" stroke="black" />
<text x="802.5" y="-2662.1666666666665" font-size="16" fill="black" text-anchor="middle" dy="0em">1</text>
<rect x="815.5" y="-2682.5" width="20" height="30" fill="white" stroke="black" />
<text x="825.5" y="-2662.1666666666665" font-size="16" fill="black" text-anchor="middle" dy="0em">2</text>
<rect x="815.5" y="-2682.5" width="20" height="30" fill="white" stroke="black" />
<text x="825.5" y="-2662.1666666666665" font-size="16" fill="black" text-anchor="middle" dy="0em">3</text>
<rect x="815.5" y="-2682.5" width="20" height="30" fill="white" stroke="black" />
<text x="825.5" y="-2662.1666666666665" font-size="16" fill="black" text-anchor="middle" dy="0em">4</text>
<rect x="912.5" y="-2802.5" width="30" height="20" fill="white" stroke="black" />
<text x="927.5" y="-2787.1666666666665" font-size="16" fill="black" text-anchor="middle" dy="0em">6</text>
<rect x="1820.0" y="-2682.5" width="20" height="30" fill="white" stroke="black" />
<text x="1830.0" y="-2662.1666666666665" font-size="16" fill="black" text-anchor="middle" dy="0em">1</text>
<rect x="1843.0" y="-2682.5" width="20" height="30" fill="white" stroke="black" />
<text x="1853.0" y="-2662.1666666666665" font-size="16" fill="black" text-anchor="middle" dy="0em">2</text>
<rect x="1790.0" y="-2802.5" width="30" height="20" fill="white" stroke="black" />
<text x="1805.0" y="-2787.1666666666665" font-size="16" fill="black" text-anchor="middle" dy="0em">4</text>
<rect x="1580.0" y="-2682.5" width="20" height="30" fill="white" stroke="black" />
<text x="1590.0" y="-2662.1666666666665" font-size="16" fill="black" text-anchor="middle" dy="0em">1</text>
<rect x="1603.0" y="-2682.5" width="20" height="30" fill="white" stroke="black" />
<text x="1613.0" y="-2662.1666666666665" font-size="16" fill="black" text-anchor="middle" dy="0em">2</text>
<rect x="1550.0" y="-2802.5" width="30" height="20" fill="white" stroke="black" />
<text x="1565.0" y="-2787.1666666666665" font-size="16" fill="black" text-anchor="middle" dy="0em">4</text>
<rect x="805.0" y="-2555.0" width="20" height="30" fill="white" stroke="black" />
<text x="815.0" y="-2534.6666666666665" font-size="16" fill="black" text-anchor="middle" dy="0em">1</text>
<rect x="828.0" y="-2555.0" width="20" height="30" fill="white" stroke="black" />
<text x="838.0" y="-2534.6666666666665" font-size="16" fill="black" text-anchor="middle" dy="0em">2</text>
<rect x="805.0" y="-2405.0" width="20" height="30" fill="white" stroke="black" />
<text x="815.0" y="-2384.6666666666665" font-size="16" fill="black" text-anchor="middle" dy="0em">5</text>
<rect x="828.0" y="-2405.0" width="20" height="30" fill="white" stroke="black" />
<text x="838.0" y="-2384.6666666666665" font-size="16" fill="black" text-anchor="middle" dy="0em">8</text>
<rect x="828.0" y="-2405.0" width="20" height="30" fill="white" stroke="black" />
<text x="838.0" y="-2384.6666666666665" font-size="16" fill="black" text-anchor="middle" dy="0em">3</text>
<rect x="1045.0" y="-2555.0" width="20" height="30" fill="white" stroke="black" />
<text x="1055.0" y="-2534.6666666666665" font-size="16" fill="black" text-anchor="middle" dy="0em">1</text>
<rect x="1068.0" y="-2555.0" width="20" height="30" fill="white" stroke="black" />
<text x="1078.0" y="-2534.6666666666665" font-size="16" fill="black" text-anchor="middle" dy="0em">2</text>
<rect x="1045.0" y="-2405.0" width="20" height="30" fill="white" stroke="black" />
<text x="1055.0" y="-2384.6666666666665" font-size="16" fill="black" text-anchor="middle" dy="0em">5</text>
<rect x="1068.0" y="-2405.0" width="20" height="30" fill="white" stroke="black" />
<text x="1078.0" y="-2384.6666666666665" font-size="16" fill="black" text-anchor="middle" dy="0em">8</text>
<rect x="1068.0" y="-2405.0" width="20" height="30" fill="white" stroke="black" />
<text x="1078.0" y="-2384.6666666666665" font-size="16" fill="black" text-anchor="middle" dy="0em">3</text>
<rect x="130.0" y="-2555.0" width="20" height="30" fill="white" stroke="black" />
<text x="140.0" y="-2534.6666666666665" font-size="16" fill="black" text-anchor="middle" dy="0em">1</text>
<rect x="153.0" y="-2555.0" width="20" height="30" fill="white" stroke="black" />
<text x="163.0" y="-2534.6666666666665" font-size="16" fill="black" text-anchor="middle" dy="0em">2</text>
<rect x="130.0" y="-2405.0" width="20" height="30" fill="white" stroke="black" />
<text x="140.0" y="-2384.6666666666665" font-size="16" fill="black" text-anchor="middle" dy="0em">3</text>
<rect x="250.0" y="-2525.0" width="30" height="20" fill="white" stroke="black" />
<text x="265.0" y="-2509.6666666666665" font-size="16" fill="black" text-anchor="middle" dy="0em">5</text>
<rect x="370.0" y="-2555.0" width="20" height="30" fill="white" stroke="black" />
<text x="380.0" y="-2534.6666666666665" font-size="16" fill="black" text-anchor="middle" dy="0em">1</text>
<rect x="393.0" y="-2555.0" width="20" height="30" fill="white" stroke="black" />
<text x="403.0" y="-2534.6666666666665" font-size="16" fill="black" text-anchor="middle" dy="0em">2</text>
<rect x="370.0" y="-2405.0" width="20" height="30" fill="white" stroke="black" />
<text x="380.0" y="-2384.6666666666665" font-size="16" fill="black" text-anchor="middle" dy="0em">3</text>
<rect x="490.0" y="-2525.0" width="30" height="20" fill="white" stroke="black" />
<text x="505.0" y="-2509.6666666666665" font-size="16" fill="black" text-anchor="middle" dy="0em">4</text>
<rect x="1580.0" y="-2555.0" width="20" height="30" fill="white" stroke="black" />
<text x="1590.0" y="-2534.6666666666665" font-size="16" fill="black" text-anchor="middle" dy="0em">2</text>
<rect x="1603.0" y="-2555.0" width="20" height="30" fill="white" stroke="black" />
<text x="1613.0" y="-2534.6666666666665" font-size="16" fill="black" text-anchor="middle" dy="0em">1</text>
<rect x="1580.0" y="-2405.0" width="20" height="30" fill="white" stroke="black" />
<text x="1590.0" y="-2384.6666666666665" font-size="16" fill="black" text-anchor="middle" dy="0em">3</text>
<rect x="1603.0" y="-2405.0" width="20" height="30" fill="white" stroke="black" />
<text x="1613.0" y="-2384.6666666666665" font-size="16" fill="black" text-anchor="middle" dy="0em">4</text>
<rect x="1550.0" y="-2525.0" width="30" height="20" fill="white" stroke="black" />
<text x="1565.0" y="-2509.6666666666665" font-size="16" fill="black" text-anchor="middle" dy="0em">5</text>
<rect x="1820.0" y="-2555.0" width="20" height="30" fill="white" stroke="black" />
<text x="1830.0" y="-2534.6666666666665" font-size="16" fill="black" text-anchor="middle" dy="0em">2</text>
<rect x="1843.0" y="-2555.0" width="20" height="30" fill="white" stroke="black" />
<text x="1853.0" y="-2534.6666666666665" font-size="16" fill="black" text-anchor="middle" dy="0em">1</text>
<rect x="1820.0" y="-2405.0" width="20" height="30" fill="white" stroke="black" />
<text x="1830.0" y="-2384.6666666666665" font-size="16" fill="black" text-anchor="middle" dy="0em">3</text>
<rect x="1843.0" y="-2405.0" width="20" height="30" fill="white" stroke="black" />
<text x="1853.0" y="-2384.6666666666665" font-size="16" fill="black" text-anchor="middle" dy="0em">4</text>
<rect x="1790.0" y="-2525.0" width="30" height="20" fill="white" stroke="black" />
<text x="1805.0" y="-2509.6666666666665" font-size="16" fill="black" text-anchor="middle" dy="0em">5</text>
<rect x="805.0" y="-2277.5" width="20" height="30" fill="white" stroke="black" />
<text x="815.0" y="-2257.1666666666665" font-size="16" fill="black" text-anchor="middle" dy="0em">1</text>
<rect x="828.0" y="-2277.5" width="20" height="30" fill="white" stroke="black" />
<text x="838.0" y="-2257.1666666666665" font-size="16" fill="black" text-anchor="middle" dy="0em">2</text>
<rect x="805.0" y="-2127.5" width="20" height="30" fill="white" stroke="black" />
<text x="815.0" y="-2107.1666666666665" font-size="16" fill="black" text-anchor="middle" dy="0em">3</text>
<rect x="1045.0" y="-2277.5" width="20" height="30" fill="white" stroke="black" />
<text x="1055.0" y="-2257.1666666666665" font-size="16" fill="black" text-anchor="middle" dy="0em">1</text>
<rect x="1068.0" y="-2277.5" width="20" height="30" fill="white" stroke="black" />
<text x="1078.0" y="-2257.1666666666665" font-size="16" fill="black" text-anchor="middle" dy="0em">2</text>
<rect x="1068.0" y="-2277.5" width="20" height="30" fill="white" stroke="black" />
<text x="1078.0" y="-2257.1666666666665" font-size="16" fill="black" text-anchor="middle" dy="0em">11</text>
<rect x="1068.0" y="-2277.5" width="20" height="30" fill="white" stroke="black" />
<text x="1078.0" y="-2257.1666666666665" font-size="16" fill="black" text-anchor="middle" dy="0em">12</text>
<rect x="1045.0" y="-2127.5" width="20" height="30" fill="white" stroke="black" />
<text x="1055.0" y="-2107.1666666666665" font-size="16" fill="black" text-anchor="middle" dy="0em">3</text>
<rect x="1068.0" y="-2127.5" width="20" height="30" fill="white" stroke="black" />
<text x="1078.0" y="-2107.1666666666665" font-size="16" fill="black" text-anchor="middle" dy="0em">4</text>
<rect x="1165.0" y="-2247.5" width="30" height="20" fill="white" stroke="black" />
<text x="1180.0" y="-2232.1666666666665" font-size="16" fill="black" text-anchor="middle" dy="0em">7</text>
<rect x="155.0" y="-2277.5" width="20" height="30" fill="white" stroke="black" />
<text x="165.0" y="-2257.1666666666665" font-size="16" fill="black" text-anchor="middle" dy="0em">1</text>
<rect x="178.0" y="-2277.5" width="20" height="30" fill="white" stroke="black" />
<text x="188.0" y="-2257.1666666666665" font-size="16" fill="black" text-anchor="middle" dy="0em">2</text>
<rect x="1580.0" y="-2277.5" width="20" height="30" fill="white" stroke="black" />
<text x="1590.0" y="-2257.1666666666665" font-size="16" fill="black" text-anchor="middle" dy="0em">1</text>
<rect x="1603.0" y="-2277.5" width="20" height="30" fill="white" stroke="black" />
<text x="1613.0" y="-2257.1666666666665" font-size="16" fill="black" text-anchor="middle" dy="0em">2</text>
<rect x="1580.0" y="-2127.5" width="20" height="30" fill="white" stroke="black" />
<text x="1590.0" y="-2107.1666666666665" font-size="16" fill="black" text-anchor="middle" dy="0em">3</text>
<rect x="1550.0" y="-2247.5" width="30" height="20" fill="white" stroke="black" />
<text x="1565.0" y="-2232.1666666666665" font-size="16" fill="black" text-anchor="middle" dy="0em">7</text>
<rect x="1820.0" y="-2277.5" width="20" height="30" fill="white" stroke="black" />
<text x="1830.0" y="-2257.1666666666665" font-size="16" fill="black" text-anchor="middle" dy="0em">1</text>
<rect x="1843.0" y="-2277.5" width="20" height="30" fill="white" stroke="black" />
<text x="1853.0" y="-2257.1666666666665" font-size="16" fill="black" text-anchor="middle" dy="0em">2</text>
<rect x="1820.0" y="-2127.5" width="20" height="30" fill="white" stroke="black" />
<text x="1830.0" y="-2107.1666666666665" font-size="16" fill="black" text-anchor="middle" dy="0em">3</text>
<rect x="685.0" y="-2000.0" width="20" height="30" fill="white" stroke="black" />
<text x="695.0" y="-1979.6666666666667" font-size="16" fill="black" text-anchor="middle" dy="0em">1</text>
<rect x="925.0" y="-2000.0" width="20" height="30" fill="white" stroke="black" />
<text x="935.0" y="-1979.6666666666667" font-size="16" fill="black" text-anchor="middle" dy="0em">2</text>
<rect x="1045.0" y="-1970.0" width="30" height="20" fill="white" stroke="black" />
<text x="1060.0" y="-1954.6666666666667" font-size="16" fill="black" text-anchor="middle" dy="0em">3</text>
<rect x="1045.0" y="-1947.0" width="30" height="20" fill="white" stroke="black" />
<text x="1060.0" y="-1931.6666666666667" font-size="16" fill="black" text-anchor="middle" dy="0em">4</text>
<rect x="1165.0" y="-2000.0" width="20" height="30" fill="white" stroke="black" />
<text x="1175.0" y="-1979.6666666666667" font-size="16" fill="black" text-anchor="middle" dy="0em">2</text>
<rect x="1135.0" y="-1970.0" width="30" height="20" fill="white" stroke="black" />
<text x="1150.0" y="-1954.6666666666667" font-size="16" fill="black" text-anchor="middle" dy="0em">3</text>
<rect x="1135.0" y="-1947.0" width="30" height="20" fill="white" stroke="black" />
<text x="1150.0" y="-1931.6666666666667" font-size="16" fill="black" text-anchor="middle" dy="0em">4</text>
<rect x="1580.0" y="-2000.0" width="20" height="30" fill="white" stroke="black" />
<text x="1590.0" y="-1979.6666666666667" font-size="16" fill="black" text-anchor="middle" dy="0em">1</text>
<rect x="1820.0" y="-2000.0" width="20" height="30" fill="white" stroke="black" />
<text x="1830.0" y="-1979.6666666666667" font-size="16" fill="black" text-anchor="middle" dy="0em">1</text>
<path d="M562.5,-2652.5 L815.0,-2555.0" stroke="black" stroke-width="2" />
<path d="M585.5,-2652.5 L1055.0,-2555.0" stroke="black" stroke-width="2" />
<path d="M585.5,-2652.5 L140.0,-2555.0" stroke="black" stroke-width="2" />
<path d="M585.5,-2652.5 L380.0,-2555.0" stroke="black" stroke-width="2" />
<path d="M702.5,-2792.5 L712.5,-2792.5" stroke="black" stroke-width="2" />
<path d="M712.5,-2792.5 L712.5,-2848.5" stroke="black" stroke-width="2" />
<path d="M712.5,-2848.5 L1126.25,-2848.5" stroke="black" stroke-width="2" />
<path d="M1550.0,-2792.5 L1540.0,-2792.5" stroke="black" stroke-width="2" />
<path d="M1540.0,-2792.5 L1540.0,-2848.5" stroke="black" stroke-width="2" />
<path d="M1540.0,-2848.5 L1126.25,-2848.5" stroke="black" stroke-width="2" />
<path d="M802.5,-2652.5 L838.0,-2555.0" stroke="black" stroke-width="2" />
<path d="M825.5,-2652.5 L1078.0,-2555.0" stroke="black" stroke-width="2" />
<path d="M825.5,-2652.5 L163.0,-2555.0" stroke="black" stroke-width="2" />
<path d="M825.5,-2652.5 L403.0,-2555.0" stroke="black" stroke-width="2" />
<path d="M942.5,-2792.5 L952.5,-2792.5" stroke="black" stroke-width="2" />
<path d="M952.5,-2792.5 L952.5,-2854.5" stroke="black" stroke-width="2" />
<path d="M952.5,-2854.5 L1366.25,-2854.5" stroke="black" stroke-width="2" />
<path d="M1790.0,-2792.5 L1780.0,-2792.5" stroke="black" stroke-width="2" />
<path d="M1780.0,-2792.5 L1780.0,-2854.5" stroke="black" stroke-width="2" />
<path d="M1780.0,-2854.5 L1366.25,-2854.5" stroke="black" stroke-width="2" />
<path d="M140.0,-2375.0 L165.0,-2277.5" stroke="black" stroke-width="2" />
<path d="M280.0,-2515.0 L290.0,-2515.0" stroke="black" stroke-width="2" />
<path d="M290.0,-2515.0 L290.0,-2571.0" stroke="black" stroke-width="2" />
<path d="M290.0,-2571.0 L915.0,-2571.0" stroke="black" stroke-width="2" />
<path d="M1550.0,-2515.0 L1540.0,-2515.0" stroke="black" stroke-width="2" />
<path d="M1540.0,-2515.0 L1540.0,-2571.0" stroke="black" stroke-width="2" />
<path d="M1540.0,-2571.0 L915.0,-2571.0" stroke="black" stroke-width="2" />
<path d="M380.0,-2375.0 L188.0,-2277.5" stroke="black" stroke-width="2" />
<path d="M520.0,-2515.0 L530.0,-2515.0" stroke="black" stroke-width="2" />
<path d="M530.0,-2515.0 L530.0,-2577.0" stroke="black" stroke-width="2" />
<path d="M530.0,-2577.0 L1155.0,-2577.0" stroke="black" stroke-width="2" />
<path d="M1790.0,-2515.0 L1780.0,-2515.0" stroke="black" stroke-width="2" />
<path d="M1780.0,-2515.0 L1780.0,-2577.0" stroke="black" stroke-width="2" />
<path d="M1780.0,-2577.0 L1155.0,-2577.0" stroke="black" stroke-width="2" />
<path d="M1055.0,-2277.5 L815.0,-2375.0" stroke="black" stroke-width="2" />
<path d="M1078.0,-2277.5 L1055.0,-2375.0" stroke="black" stroke-width="2" />
<path d="M1055.0,-2097.5 L935.0,-2000.0" stroke="black" stroke-width="2" />
<path d="M1078.0,-2097.5 L1175.0,-2000.0" stroke="black" stroke-width="2" />
<path d="M1078.0,-2277.5 L838.0,-2375.0" stroke="black" stroke-width="2" />
<path d="M1078.0,-2277.5 L1078.0,-2375.0" stroke="black" stroke-width="2" />
<path d="M1195.0,-2237.5 L1550.0,-2237.5" stroke="black" stroke-width="2" />
<path d="M1135.0,-1960.0 L1075.0,-1960.0" stroke="black" stroke-width="2" />
<path d="M1135.0,-1937.0 L1075.0,-1937.0" stroke="black" stroke-width="2" />
<path d="M695.0,-2000.0 L815.0,-2097.5" stroke="black" stroke-width="2" />
<path d="M815.0,-2277.5 L838.0,-2375.0" stroke="black" stroke-width="2" />
<path d="M838.0,-2277.5 L1078.0,-2375.0" stroke="black" stroke-width="2" />
<path d="M1830.0,-2652.5 L1590.0,-2555.0" stroke="black" stroke-width="2" />
<path d="M1853.0,-2652.5 L1830.0,-2555.0" stroke="black" stroke-width="2" />
<path d="M1590.0,-2652.5 L1613.0,-2555.0" stroke="black" stroke-width="2" />
<path d="M1613.0,-2652.5 L1853.0,-2555.0" stroke="black" stroke-width="2" />
<path d="M1590.0,-2277.5 L1590.0,-2375.0" stroke="black" stroke-width="2" />
<path d="M1613.0,-2277.5 L1830.0,-2375.0" stroke="black" stroke-width="2" />
<path d="M1590.0,-2097.5 L1590.0,-2000.0" stroke="black" stroke-width="2" />
<path d="M1830.0,-2000.0 L1830.0,-2097.5" stroke="black" stroke-width="2" />
<path d="M1613.0,-2375.0 L1830.0,-2277.5" stroke="black" stroke-width="2" />
<path d="M1853.0,-2375.0 L1853.0,-2277.5" stroke="black" stroke-width="2" />
<rect x="933.52" y="-2921" width="252.96" height="23" fill="hsl(0, 0%, 90%)" />
<text x="1060.0" y="-2901" font-size="24" fill="black" text-anchor="middle" dy="0em">TWODC_5STAGE_CLOS</text>
<rect x="710.18" y="-2883.5" width="44.64" height="23" fill="hsl(0, 0%, 80%)" />
<text x="732.5" y="-2863.5" font-size="24" fill="black" text-anchor="middle" dy="0em">DC1</text>
<rect x="250.48000000000002" y="-2606.0" width="119.03999999999999" height="23" fill="hsl(0, 0%, 70%)" />
<text x="310.0" y="-2586.0" font-size="24" fill="black" text-anchor="middle" dy="0em">DC1_POD2</text>
<rect x="925.48" y="-2606.0" width="119.03999999999999" height="23" fill="hsl(0, 0%, 70%)" />
<text x="985.0" y="-2586.0" font-size="24" fill="black" text-anchor="middle" dy="0em">DC1_POD1</text>
<rect x="1737.68" y="-2883.5" width="44.64" height="23" fill="hsl(0, 0%, 80%)" />
<text x="1760.0" y="-2863.5" font-size="24" fill="black" text-anchor="middle" dy="0em">DC2</text>
<rect x="1700.48" y="-2606.0" width="119.03999999999999" height="23" fill="hsl(0, 0%, 70%)" />
<text x="1760.0" y="-2586.0" font-size="24" fill="black" text-anchor="middle" dy="0em">DC2_POD1</text>
</svg>