<?xml version="1.0" encoding="UTF-8" standalone="no"?>
<!DOCTYPE svg PUBLIC "-//W3C//DTD SVG 1.1//EN"
 "http://www.w3.org/Graphics/SVG/1.1/DTD/svg11.dtd">
<!-- Generated by graphviz version 6.0.1 (20220911.1526)
 -->
<!-- Title: parent Pages: 1 -->
<svg width="604pt" height="799pt"
 viewBox="0.00 0.00 604.00 799.00" xmlns="http://www.w3.org/2000/svg" xmlns:xlink="http://www.w3.org/1999/xlink">
<g id="graph0" class="graph" transform="scale(1 1) rotate(0) translate(4 795)">
<title>parent</title>
<polygon fill="white" stroke="none" points="-4,4 -4,-795 600,-795 600,4 -4,4"/>
<g id="clust1" class="cluster">
<title>cluster_child_fabric_name</title>
<polygon fill="none" stroke="black" points="8,-8 8,-783 588,-783 588,-8 8,-8"/>
<text text-anchor="middle" x="298" y="-767.8" font-family="Times,serif" font-size="14.00">fabric_name</text>
</g>
<g id="clust3" class="cluster">
<title>cluster_child_dc_name1</title>
<polygon fill="none" stroke="black" points="16,-16 16,-587 580,-587 580,-16 16,-16"/>
<text text-anchor="middle" x="298" y="-571.8" font-family="Times,serif" font-size="14.00">dc_name1</text>
</g>
<g id="clust5" class="cluster">
<title>cluster_child_pod_name1</title>
<polygon fill="none" stroke="black" points="24,-24 24,-368 294,-368 294,-24 24,-24"/>
<text text-anchor="middle" x="159" y="-352.8" font-family="Times,serif" font-size="14.00">pod_name1</text>
</g>
<g id="clust7" class="cluster">
<title>cluster_child_pod_name1.5</title>
<polygon fill="none" stroke="black" points="95,-32 95,-149 241,-149 241,-32 95,-32"/>
<text text-anchor="middle" x="168" y="-133.8" font-family="Times,serif" font-size="14.00">pod_name1.5</text>
</g>
<g id="clust9" class="cluster">
<title>cluster_child_pod_name2</title>
<polygon fill="none" stroke="black" points="302,-24 302,-368 572,-368 572,-24 302,-24"/>
<text text-anchor="middle" x="437" y="-352.8" font-family="Times,serif" font-size="14.00">pod_name2</text>
</g>
<g id="clust11" class="cluster">
<title>cluster_child_pod_name2.5</title>
<polygon fill="none" stroke="black" points="373,-32 373,-149 519,-149 519,-32 373,-32"/>
<text text-anchor="middle" x="446" y="-133.8" font-family="Times,serif" font-size="14.00">pod_name2.5</text>
</g>
<!-- FIREWALL -->
<g id="node1" class="node">
<title>FIREWALL</title>
<text text-anchor="start" x="266" y="-737.1" font-family="Times,serif" font-size="8.00"> </text>
<polygon fill="#4a69bd" stroke="none" points="273,-679.5 273,-747.5 334,-747.5 334,-679.5 273,-679.5"/>
<polygon fill="none" stroke="black" points="273,-679.5 273,-747.5 334,-747.5 334,-679.5 273,-679.5"/>
<text text-anchor="start" x="279.5" y="-712.6" font-family="Times,serif" font-size="8.00"> </text>
<text text-anchor="start" x="282.5" y="-712.6" font-family="Times,serif" font-size="8.00" fill="#ffffff">FIREWALL</text>
<text text-anchor="start" x="324.5" y="-712.6" font-family="Times,serif" font-size="8.00"> </text>
<text text-anchor="start" x="338" y="-737.1" font-family="Times,serif" font-size="8.00"> </text>
<text text-anchor="start" x="266" y="-720.1" font-family="Times,serif" font-size="8.00"> </text>
<text text-anchor="start" x="338" y="-720.1" font-family="Times,serif" font-size="8.00"> </text>
<text text-anchor="start" x="266" y="-703.1" font-family="Times,serif" font-size="8.00"> </text>
<text text-anchor="start" x="338" y="-703.1" font-family="Times,serif" font-size="8.00"> </text>
<text text-anchor="start" x="266" y="-686.1" font-family="Times,serif" font-size="8.00"> </text>
<text text-anchor="start" x="338" y="-686.1" font-family="Times,serif" font-size="8.00"> </text>
<text text-anchor="start" x="266" y="-668.1" font-family="Times,serif" font-size="8.00"> </text>
<text text-anchor="start" x="277" y="-668.1" font-family="Times,serif" font-size="8.00"> </text>
<text text-anchor="start" x="288" y="-668.1" font-family="Times,serif" font-size="8.00"> </text>
<polygon fill="none" stroke="black" points="295,-660.5 295,-679.5 309,-679.5 309,-660.5 295,-660.5"/>
<text text-anchor="start" x="300" y="-668.1" font-family="Times,serif" font-size="8.00">4</text>
<polygon fill="none" stroke="black" points="309,-660.5 309,-679.5 323,-679.5 323,-660.5 309,-660.5"/>
<text text-anchor="start" x="314" y="-668.1" font-family="Times,serif" font-size="8.00">6</text>
<text text-anchor="start" x="327" y="-668.1" font-family="Times,serif" font-size="8.00"> </text>
<text text-anchor="start" x="338" y="-668.1" font-family="Times,serif" font-size="8.00"> </text>
</g>
<!-- SPINE1 -->
<g id="node2" class="node">
<title>SPINE1</title>
<text text-anchor="start" x="186" y="-540.6" font-family="Times,serif" font-size="8.00"> </text>
<text text-anchor="start" x="199.5" y="-540.6" font-family="Times,serif" font-size="8.00"> </text>
<text text-anchor="start" x="213.5" y="-540.6" font-family="Times,serif" font-size="8.00"> </text>
<polygon fill="none" stroke="black" points="222,-533 222,-552 236,-552 236,-533 222,-533"/>
<text text-anchor="start" x="227" y="-540.6" font-family="Times,serif" font-size="8.00">5</text>
<text text-anchor="start" x="241.5" y="-540.6" font-family="Times,serif" font-size="8.00"> </text>
<text text-anchor="start" x="254" y="-540.6" font-family="Times,serif" font-size="8.00"> </text>
<text text-anchor="start" x="269.5" y="-540.6" font-family="Times,serif" font-size="8.00"> </text>
<text text-anchor="start" x="185" y="-522.6" font-family="Times,serif" font-size="8.00"> &#160;</text>
<polygon fill="#4a69bd" stroke="none" points="194,-461 194,-533 261,-533 261,-461 194,-461"/>
<polygon fill="none" stroke="black" points="194,-461 194,-533 261,-533 261,-461 194,-461"/>
<text text-anchor="start" x="210.5" y="-496.1" font-family="Times,serif" font-size="8.00"> </text>
<text text-anchor="start" x="213.5" y="-496.1" font-family="Times,serif" font-size="8.00" fill="#ffffff">SPINE1</text>
<text text-anchor="start" x="241.5" y="-496.1" font-family="Times,serif" font-size="8.00"> </text>
<text text-anchor="start" x="269.5" y="-522.6" font-family="Times,serif" font-size="8.00"> </text>
<text text-anchor="start" x="186" y="-504.6" font-family="Times,serif" font-size="8.00"> </text>
<polygon fill="none" stroke="black" points="261,-497 261,-516 281,-516 281,-497 261,-497"/>
<text text-anchor="start" x="266" y="-504.6" font-family="Times,serif" font-size="8.00"> 47</text>
<text text-anchor="start" x="186" y="-485.6" font-family="Times,serif" font-size="8.00"> </text>
<polygon fill="none" stroke="black" points="261,-478 261,-497 281,-497 281,-478 261,-478"/>
<text text-anchor="start" x="266" y="-485.6" font-family="Times,serif" font-size="8.00"> 48</text>
<text text-anchor="start" x="186" y="-467.6" font-family="Times,serif" font-size="8.00"> </text>
<text text-anchor="start" x="269.5" y="-467.6" font-family="Times,serif" font-size="8.00"> </text>
<text text-anchor="start" x="186" y="-449.6" font-family="Times,serif" font-size="8.00"> </text>
<polygon fill="none" stroke="black" points="194,-442 194,-461 208,-461 208,-442 194,-442"/>
<text text-anchor="start" x="199" y="-449.6" font-family="Times,serif" font-size="8.00">1</text>
<polygon fill="none" stroke="black" points="208,-442 208,-461 222,-461 222,-442 208,-442"/>
<text text-anchor="start" x="213" y="-449.6" font-family="Times,serif" font-size="8.00">2</text>
<polygon fill="none" stroke="black" points="222,-442 222,-461 236,-461 236,-442 222,-442"/>
<text text-anchor="start" x="227" y="-449.6" font-family="Times,serif" font-size="8.00">3</text>
<polygon fill="none" stroke="black" points="236,-442 236,-461 250,-461 250,-442 236,-442"/>
<text text-anchor="start" x="241" y="-449.6" font-family="Times,serif" font-size="8.00">4</text>
<text text-anchor="start" x="254" y="-449.6" font-family="Times,serif" font-size="8.00"> </text>
<text text-anchor="start" x="269.5" y="-449.6" font-family="Times,serif" font-size="8.00"> </text>
</g>
<!-- FIREWALL&#45;&#45;SPINE1 -->
<g id="edge1" class="edge">
<title>FIREWALL:4&#45;&#45;SPINE1:5</title>
<path fill="none" stroke="black" d="M296.75,-660.4C283.28,-637.06 247.62,-575.26 234.2,-552.02"/>
</g>
<!-- SPINE2 -->
<g id="node3" class="node">
<title>SPINE2</title>
<text text-anchor="start" x="341.5" y="-540.6" font-family="Times,serif" font-size="8.00"> </text>
<text text-anchor="start" x="358.5" y="-540.6" font-family="Times,serif" font-size="8.00"> </text>
<text text-anchor="start" x="372.5" y="-540.6" font-family="Times,serif" font-size="8.00"> </text>
<polygon fill="none" stroke="black" points="381,-533 381,-552 395,-552 395,-533 381,-533"/>
<text text-anchor="start" x="386" y="-540.6" font-family="Times,serif" font-size="8.00">5</text>
<text text-anchor="start" x="400.5" y="-540.6" font-family="Times,serif" font-size="8.00"> </text>
<text text-anchor="start" x="413" y="-540.6" font-family="Times,serif" font-size="8.00"> </text>
<text text-anchor="start" x="424" y="-540.6" font-family="Times,serif" font-size="8.00"> </text>
<text text-anchor="start" x="341.5" y="-522.6" font-family="Times,serif" font-size="8.00"> </text>
<polygon fill="#4a69bd" stroke="none" points="353,-461 353,-533 420,-533 420,-461 353,-461"/>
<polygon fill="none" stroke="black" points="353,-461 353,-533 420,-533 420,-461 353,-461"/>
<text text-anchor="start" x="369.5" y="-496.1" font-family="Times,serif" font-size="8.00"> </text>
<text text-anchor="start" x="372.5" y="-496.1" font-family="Times,serif" font-size="8.00" fill="#ffffff">SPINE2</text>
<text text-anchor="start" x="400.5" y="-496.1" font-family="Times,serif" font-size="8.00"> </text>
<text text-anchor="start" x="424" y="-522.6" font-family="Times,serif" font-size="8.00"> </text>
<polygon fill="none" stroke="black" points="333,-497 333,-516 353,-516 353,-497 333,-497"/>
<text text-anchor="start" x="338" y="-504.6" font-family="Times,serif" font-size="8.00"> 47</text>
<text text-anchor="start" x="424" y="-504.6" font-family="Times,serif" font-size="8.00"> </text>
<polygon fill="none" stroke="black" points="333,-478 333,-497 353,-497 353,-478 333,-478"/>
<text text-anchor="start" x="338" y="-485.6" font-family="Times,serif" font-size="8.00"> 48</text>
<text text-anchor="start" x="424" y="-485.6" font-family="Times,serif" font-size="8.00"> </text>
<text text-anchor="start" x="341.5" y="-467.6" font-family="Times,serif" font-size="8.00"> </text>
<text text-anchor="start" x="424" y="-467.6" font-family="Times,serif" font-size="8.00"> </text>
<text text-anchor="start" x="341.5" y="-449.6" font-family="Times,serif" font-size="8.00"> </text>
<polygon fill="none" stroke="black" points="353,-442 353,-461 367,-461 367,-442 353,-442"/>
<text text-anchor="start" x="358" y="-449.6" font-family="Times,serif" font-size="8.00">1</text>
<polygon fill="none" stroke="black" points="367,-442 367,-461 381,-461 381,-442 367,-442"/>
<text text-anchor="start" x="372" y="-449.6" font-family="Times,serif" font-size="8.00">2</text>
<polygon fill="none" stroke="black" points="381,-442 381,-461 395,-461 395,-442 381,-442"/>
<text text-anchor="start" x="386" y="-449.6" font-family="Times,serif" font-size="8.00">3</text>
<polygon fill="none" stroke="black" points="395,-442 395,-461 409,-461 409,-442 395,-442"/>
<text text-anchor="start" x="400" y="-449.6" font-family="Times,serif" font-size="8.00">4</text>
<text text-anchor="start" x="413" y="-449.6" font-family="Times,serif" font-size="8.00"> </text>
<text text-anchor="start" x="424" y="-449.6" font-family="Times,serif" font-size="8.00"> </text>
</g>
<!-- FIREWALL&#45;&#45;SPINE2 -->
<g id="edge2" class="edge">
<title>FIREWALL:6&#45;&#45;SPINE2:5</title>
<path fill="none" stroke="black" d="M321.18,-660.4C334.46,-637.06 369.64,-575.26 382.87,-552.02"/>
</g>
<!-- LEAF1 -->
<g id="node4" class="node">
<title>LEAF1</title>
<text text-anchor="start" x="45" y="-321.6" font-family="Times,serif" font-size="8.00"> </text>
<text text-anchor="start" x="57" y="-321.6" font-family="Times,serif" font-size="8.00"> </text>
<text text-anchor="start" x="68" y="-321.6" font-family="Times,serif" font-size="8.00"> </text>
<polygon fill="none" stroke="black" points="75,-314 75,-333 89,-333 89,-314 75,-314"/>
<text text-anchor="start" x="80" y="-321.6" font-family="Times,serif" font-size="8.00">1</text>
<polygon fill="none" stroke="black" points="89,-314 89,-333 103,-333 103,-314 89,-314"/>
<text text-anchor="start" x="94" y="-321.6" font-family="Times,serif" font-size="8.00">2</text>
<text text-anchor="start" x="107" y="-321.6" font-family="Times,serif" font-size="8.00"> </text>
<text text-anchor="start" x="122.5" y="-321.6" font-family="Times,serif" font-size="8.00"> </text>
<text text-anchor="start" x="44" y="-303.6" font-family="Times,serif" font-size="8.00"> &#160;</text>
<polygon fill="#4a69bd" stroke="none" points="53,-242 53,-314 114,-314 114,-242 53,-242"/>
<polygon fill="none" stroke="black" points="53,-242 53,-314 114,-314 114,-242 53,-242"/>
<text text-anchor="start" x="68" y="-277.1" font-family="Times,serif" font-size="8.00"> </text>
<text text-anchor="start" x="71" y="-277.1" font-family="Times,serif" font-size="8.00" fill="#ffffff">LEAF1</text>
<text text-anchor="start" x="96" y="-277.1" font-family="Times,serif" font-size="8.00"> </text>
<text text-anchor="start" x="122.5" y="-303.6" font-family="Times,serif" font-size="8.00"> </text>
<text text-anchor="start" x="45" y="-285.6" font-family="Times,serif" font-size="8.00"> </text>
<polygon fill="none" stroke="black" points="114,-278 114,-297 134,-297 134,-278 114,-278"/>
<text text-anchor="start" x="119" y="-285.6" font-family="Times,serif" font-size="8.00"> 47</text>
<text text-anchor="start" x="45" y="-266.6" font-family="Times,serif" font-size="8.00"> </text>
<polygon fill="none" stroke="black" points="114,-259 114,-278 134,-278 134,-259 114,-259"/>
<text text-anchor="start" x="119" y="-266.6" font-family="Times,serif" font-size="8.00"> 48</text>
<text text-anchor="start" x="45" y="-248.6" font-family="Times,serif" font-size="8.00"> </text>
<text text-anchor="start" x="122.5" y="-248.6" font-family="Times,serif" font-size="8.00"> </text>
<text text-anchor="start" x="45" y="-230.6" font-family="Times,serif" font-size="8.00"> </text>
<text text-anchor="start" x="57" y="-230.6" font-family="Times,serif" font-size="8.00"> </text>
<text text-anchor="start" x="68" y="-230.6" font-family="Times,serif" font-size="8.00"> </text>
<polygon fill="none" stroke="black" points="75,-223 75,-242 89,-242 89,-223 75,-223"/>
<text text-anchor="start" x="80" y="-230.6" font-family="Times,serif" font-size="8.00">3</text>
<text text-anchor="start" x="94.5" y="-230.6" font-family="Times,serif" font-size="8.00"> </text>
<text text-anchor="start" x="107" y="-230.6" font-family="Times,serif" font-size="8.00"> </text>
<text text-anchor="start" x="122.5" y="-230.6" font-family="Times,serif" font-size="8.00"> </text>
</g>
<!-- SPINE1&#45;&#45;LEAF1 -->
<g id="edge9" class="edge">
<title>SPINE1:1&#45;&#45;LEAF1:1</title>
<path fill="none" stroke="black" d="M193.91,-443.44C172.8,-420.9 110.46,-354.38 89.2,-331.69"/>
</g>
<!-- LEAF2 -->
<g id="node5" class="node">
<title>LEAF2</title>
<text text-anchor="start" x="194.5" y="-321.6" font-family="Times,serif" font-size="8.00"> </text>
<text text-anchor="start" x="210" y="-321.6" font-family="Times,serif" font-size="8.00"> </text>
<text text-anchor="start" x="221" y="-321.6" font-family="Times,serif" font-size="8.00"> </text>
<polygon fill="none" stroke="black" points="228,-314 228,-333 242,-333 242,-314 228,-314"/>
<text text-anchor="start" x="233" y="-321.6" font-family="Times,serif" font-size="8.00">1</text>
<polygon fill="none" stroke="black" points="242,-314 242,-333 256,-333 256,-314 242,-314"/>
<text text-anchor="start" x="247" y="-321.6" font-family="Times,serif" font-size="8.00">2</text>
<text text-anchor="start" x="260" y="-321.6" font-family="Times,serif" font-size="8.00"> </text>
<text text-anchor="start" x="271" y="-321.6" font-family="Times,serif" font-size="8.00"> </text>
<text text-anchor="start" x="194.5" y="-303.6" font-family="Times,serif" font-size="8.00"> </text>
<polygon fill="#4a69bd" stroke="none" points="206,-242 206,-314 267,-314 267,-242 206,-242"/>
<polygon fill="none" stroke="black" points="206,-242 206,-314 267,-314 267,-242 206,-242"/>
<text text-anchor="start" x="221" y="-277.1" font-family="Times,serif" font-size="8.00"> </text>
<text text-anchor="start" x="224" y="-277.1" font-family="Times,serif" font-size="8.00" fill="#ffffff">LEAF2</text>
<text text-anchor="start" x="249" y="-277.1" font-family="Times,serif" font-size="8.00"> </text>
<text text-anchor="start" x="271" y="-303.6" font-family="Times,serif" font-size="8.00"> </text>
<polygon fill="none" stroke="black" points="186,-278 186,-297 206,-297 206,-278 186,-278"/>
<text text-anchor="start" x="191" y="-285.6" font-family="Times,serif" font-size="8.00"> 47</text>
<text text-anchor="start" x="271" y="-285.6" font-family="Times,serif" font-size="8.00"> </text>
<polygon fill="none" stroke="black" points="186,-259 186,-278 206,-278 206,-259 186,-259"/>
<text text-anchor="start" x="191" y="-266.6" font-family="Times,serif" font-size="8.00"> 48</text>
<text text-anchor="start" x="271" y="-266.6" font-family="Times,serif" font-size="8.00"> </text>
<text text-anchor="start" x="194.5" y="-248.6" font-family="Times,serif" font-size="8.00"> </text>
<text text-anchor="start" x="271" y="-248.6" font-family="Times,serif" font-size="8.00"> </text>
<text text-anchor="start" x="194.5" y="-230.6" font-family="Times,serif" font-size="8.00"> </text>
<text text-anchor="start" x="210" y="-230.6" font-family="Times,serif" font-size="8.00"> </text>
<text text-anchor="start" x="221" y="-230.6" font-family="Times,serif" font-size="8.00"> </text>
<polygon fill="none" stroke="black" points="228,-223 228,-242 242,-242 242,-223 228,-223"/>
<text text-anchor="start" x="233" y="-230.6" font-family="Times,serif" font-size="8.00">3</text>
<text text-anchor="start" x="247.5" y="-230.6" font-family="Times,serif" font-size="8.00"> </text>
<text text-anchor="start" x="260" y="-230.6" font-family="Times,serif" font-size="8.00"> </text>
<text text-anchor="start" x="271" y="-230.6" font-family="Times,serif" font-size="8.00"> </text>
</g>
<!-- SPINE1&#45;&#45;LEAF2 -->
<g id="edge10" class="edge">
<title>SPINE1:2&#45;&#45;LEAF2:1</title>
<path fill="none" stroke="black" d="M216.44,-441.87C220.13,-418.43 229.9,-356.39 233.57,-333.05"/>
</g>
<!-- LEAF3 -->
<g id="node8" class="node">
<title>LEAF3</title>
<text text-anchor="start" x="323" y="-321.6" font-family="Times,serif" font-size="8.00"> </text>
<text text-anchor="start" x="335" y="-321.6" font-family="Times,serif" font-size="8.00"> </text>
<text text-anchor="start" x="346" y="-321.6" font-family="Times,serif" font-size="8.00"> </text>
<polygon fill="none" stroke="black" points="353,-314 353,-333 367,-333 367,-314 353,-314"/>
<text text-anchor="start" x="358" y="-321.6" font-family="Times,serif" font-size="8.00">1</text>
<polygon fill="none" stroke="black" points="367,-314 367,-333 381,-333 381,-314 367,-314"/>
<text text-anchor="start" x="372" y="-321.6" font-family="Times,serif" font-size="8.00">2</text>
<text text-anchor="start" x="385" y="-321.6" font-family="Times,serif" font-size="8.00"> </text>
<text text-anchor="start" x="400.5" y="-321.6" font-family="Times,serif" font-size="8.00"> </text>
<text text-anchor="start" x="322" y="-303.6" font-family="Times,serif" font-size="8.00"> &#160;</text>
<polygon fill="#4a69bd" stroke="none" points="331,-242 331,-314 392,-314 392,-242 331,-242"/>
<polygon fill="none" stroke="black" points="331,-242 331,-314 392,-314 392,-242 331,-242"/>
<text text-anchor="start" x="346" y="-277.1" font-family="Times,serif" font-size="8.00"> </text>
<text text-anchor="start" x="349" y="-277.1" font-family="Times,serif" font-size="8.00" fill="#ffffff">LEAF3</text>
<text text-anchor="start" x="374" y="-277.1" font-family="Times,serif" font-size="8.00"> </text>
<text text-anchor="start" x="400.5" y="-303.6" font-family="Times,serif" font-size="8.00"> </text>
<text text-anchor="start" x="323" y="-285.6" font-family="Times,serif" font-size="8.00"> </text>
<polygon fill="none" stroke="black" points="392,-278 392,-297 412,-297 412,-278 392,-278"/>
<text text-anchor="start" x="397" y="-285.6" font-family="Times,serif" font-size="8.00"> 47</text>
<text text-anchor="start" x="323" y="-266.6" font-family="Times,serif" font-size="8.00"> </text>
<polygon fill="none" stroke="black" points="392,-259 392,-278 412,-278 412,-259 392,-259"/>
<text text-anchor="start" x="397" y="-266.6" font-family="Times,serif" font-size="8.00"> 48</text>
<text text-anchor="start" x="323" y="-248.6" font-family="Times,serif" font-size="8.00"> </text>
<text text-anchor="start" x="400.5" y="-248.6" font-family="Times,serif" font-size="8.00"> </text>
<text text-anchor="start" x="323" y="-230.6" font-family="Times,serif" font-size="8.00"> </text>
<text text-anchor="start" x="335" y="-230.6" font-family="Times,serif" font-size="8.00"> </text>
<text text-anchor="start" x="346" y="-230.6" font-family="Times,serif" font-size="8.00"> </text>
<polygon fill="none" stroke="black" points="353,-223 353,-242 367,-242 367,-223 353,-223"/>
<text text-anchor="start" x="358" y="-230.6" font-family="Times,serif" font-size="8.00">3</text>
<text text-anchor="start" x="372.5" y="-230.6" font-family="Times,serif" font-size="8.00"> </text>
<text text-anchor="start" x="385" y="-230.6" font-family="Times,serif" font-size="8.00"> </text>
<text text-anchor="start" x="400.5" y="-230.6" font-family="Times,serif" font-size="8.00"> </text>
</g>
<!-- SPINE1&#45;&#45;LEAF3 -->
<g id="edge11" class="edge">
<title>SPINE1:3&#45;&#45;LEAF3:1</title>
<path fill="none" stroke="black" d="M236.04,-444.17C258.79,-422.12 330.13,-352.96 352.92,-330.86"/>
</g>
<!-- LEAF4 -->
<g id="node9" class="node">
<title>LEAF4</title>
<text text-anchor="start" x="472.5" y="-321.6" font-family="Times,serif" font-size="8.00"> </text>
<text text-anchor="start" x="488" y="-321.6" font-family="Times,serif" font-size="8.00"> </text>
<text text-anchor="start" x="499" y="-321.6" font-family="Times,serif" font-size="8.00"> </text>
<polygon fill="none" stroke="black" points="506,-314 506,-333 520,-333 520,-314 506,-314"/>
<text text-anchor="start" x="511" y="-321.6" font-family="Times,serif" font-size="8.00">1</text>
<polygon fill="none" stroke="black" points="520,-314 520,-333 534,-333 534,-314 520,-314"/>
<text text-anchor="start" x="525" y="-321.6" font-family="Times,serif" font-size="8.00">2</text>
<text text-anchor="start" x="538" y="-321.6" font-family="Times,serif" font-size="8.00"> </text>
<text text-anchor="start" x="549" y="-321.6" font-family="Times,serif" font-size="8.00"> </text>
<text text-anchor="start" x="472.5" y="-303.6" font-family="Times,serif" font-size="8.00"> </text>
<polygon fill="#4a69bd" stroke="none" points="484,-242 484,-314 545,-314 545,-242 484,-242"/>
<polygon fill="none" stroke="black" points="484,-242 484,-314 545,-314 545,-242 484,-242"/>
<text text-anchor="start" x="499" y="-277.1" font-family="Times,serif" font-size="8.00"> </text>
<text text-anchor="start" x="502" y="-277.1" font-family="Times,serif" font-size="8.00" fill="#ffffff">LEAF4</text>
<text text-anchor="start" x="527" y="-277.1" font-family="Times,serif" font-size="8.00"> </text>
<text text-anchor="start" x="549" y="-303.6" font-family="Times,serif" font-size="8.00"> </text>
<polygon fill="none" stroke="black" points="464,-278 464,-297 484,-297 484,-278 464,-278"/>
<text text-anchor="start" x="469" y="-285.6" font-family="Times,serif" font-size="8.00"> 47</text>
<text text-anchor="start" x="549" y="-285.6" font-family="Times,serif" font-size="8.00"> </text>
<polygon fill="none" stroke="black" points="464,-259 464,-278 484,-278 484,-259 464,-259"/>
<text text-anchor="start" x="469" y="-266.6" font-family="Times,serif" font-size="8.00"> 48</text>
<text text-anchor="start" x="549" y="-266.6" font-family="Times,serif" font-size="8.00"> </text>
<text text-anchor="start" x="472.5" y="-248.6" font-family="Times,serif" font-size="8.00"> </text>
<text text-anchor="start" x="549" y="-248.6" font-family="Times,serif" font-size="8.00"> </text>
<text text-anchor="start" x="472.5" y="-230.6" font-family="Times,serif" font-size="8.00"> </text>
<text text-anchor="start" x="488" y="-230.6" font-family="Times,serif" font-size="8.00"> </text>
<text text-anchor="start" x="499" y="-230.6" font-family="Times,serif" font-size="8.00"> </text>
<polygon fill="none" stroke="black" points="506,-223 506,-242 520,-242 520,-223 506,-223"/>
<text text-anchor="start" x="511" y="-230.6" font-family="Times,serif" font-size="8.00">3</text>
<text text-anchor="start" x="525.5" y="-230.6" font-family="Times,serif" font-size="8.00"> </text>
<text text-anchor="start" x="538" y="-230.6" font-family="Times,serif" font-size="8.00"> </text>
<text text-anchor="start" x="549" y="-230.6" font-family="Times,serif" font-size="8.00"> </text>
</g>
<!-- SPINE1&#45;&#45;LEAF4 -->
<g id="edge12" class="edge">
<title>SPINE1:4&#45;&#45;LEAF4:1</title>
<path fill="none" stroke="black" d="M250.22,-447.6C288.46,-429.62 467.03,-345.62 505.63,-327.47"/>
</g>
<!-- SPINE2&#45;&#45;SPINE1 -->
<g id="edge3" class="edge">
<title>SPINE2:47&#45;&#45;SPINE1:47</title>
<path fill="none" stroke="black" d="M332,-507C332,-507 282,-507 282,-507"/>
</g>
<!-- SPINE2&#45;&#45;SPINE1 -->
<g id="edge4" class="edge">
<title>SPINE2:48&#45;&#45;SPINE1:48</title>
<path fill="none" stroke="black" d="M332,-487C332,-487 282,-487 282,-487"/>
</g>
<!-- SPINE2&#45;&#45;LEAF1 -->
<g id="edge5" class="edge">
<title>SPINE2:1&#45;&#45;LEAF1:2</title>
<path fill="none" stroke="black" d="M352.94,-447.6C315.55,-429.62 140.95,-345.62 103.21,-327.47"/>
</g>
<!-- SPINE2&#45;&#45;LEAF2 -->
<g id="edge6" class="edge">
<title>SPINE2:2&#45;&#45;LEAF2:2</title>
<path fill="none" stroke="black" d="M366.92,-443.81C344.92,-421.45 277.9,-353.36 256,-331.11"/>
</g>
<!-- SPINE2&#45;&#45;LEAF3 -->
<g id="edge7" class="edge">
<title>SPINE2:3&#45;&#45;LEAF3:2</title>
<path fill="none" stroke="black" d="M386.99,-441.87C384.41,-418.43 377.57,-356.39 375,-333.05"/>
</g>
<!-- SPINE2&#45;&#45;LEAF4 -->
<g id="edge8" class="edge">
<title>SPINE2:4&#45;&#45;LEAF4:2</title>
<path fill="none" stroke="black" d="M409.08,-443.81C431.08,-421.45 498.1,-353.36 520,-331.11"/>
</g>
<!-- LEAF1&#45;&#45;LEAF2 -->
<g id="edge13" class="edge">
<title>LEAF1:47&#45;&#45;LEAF2:47</title>
<path fill="none" stroke="black" d="M135,-288C135,-288 185,-288 185,-288"/>
</g>
<!-- LEAF1&#45;&#45;LEAF2 -->
<g id="edge14" class="edge">
<title>LEAF1:48&#45;&#45;LEAF2:48</title>
<path fill="none" stroke="black" d="M135,-268C135,-268 185,-268 185,-268"/>
</g>
<!-- HostA -->
<g id="node6" class="node">
<title>HostA</title>
<polygon fill="#4a69bd" stroke="none" points="111,-44 111,-114 151,-114 151,-44 111,-44"/>
<polygon fill="none" stroke="black" points="111,-44 111,-114 151,-114 151,-44 111,-44"/>
<text text-anchor="start" x="117" y="-78.1" font-family="Times,serif" font-size="8.00"> </text>
<text text-anchor="start" x="120" y="-78.1" font-family="Times,serif" font-size="8.00" fill="#ffffff">HostA</text>
<text text-anchor="start" x="142" y="-78.1" font-family="Times,serif" font-size="8.00"> </text>
</g>
<!-- LEAF1&#45;&#45;HostA -->
<g id="edge15" class="edge">
<title>LEAF1:3&#45;&#45;HostA</title>
<path fill="none" stroke="black" d="M84.92,-222.89C91.37,-202.75 107.15,-153.46 118.45,-118.19"/>
</g>
<!-- HostB -->
<g id="node7" class="node">
<title>HostB</title>
<polygon fill="#4a69bd" stroke="none" points="185,-44 185,-114 225,-114 225,-44 185,-44"/>
<polygon fill="none" stroke="black" points="185,-44 185,-114 225,-114 225,-44 185,-44"/>
<text text-anchor="start" x="191.5" y="-78.1" font-family="Times,serif" font-size="8.00"> </text>
<text text-anchor="start" x="194.5" y="-78.1" font-family="Times,serif" font-size="8.00" fill="#ffffff">HostB</text>
<text text-anchor="start" x="215.5" y="-78.1" font-family="Times,serif" font-size="8.00"> </text>
</g>
<!-- LEAF2&#45;&#45;HostB -->
<g id="edge16" class="edge">
<title>LEAF2:3&#45;&#45;HostB</title>
<path fill="none" stroke="black" d="M233.21,-222.89C229.26,-202.75 219.6,-153.46 212.68,-118.19"/>
</g>
<!-- LEAF3&#45;&#45;LEAF4 -->
<g id="edge17" class="edge">
<title>LEAF3:47&#45;&#45;LEAF4:47</title>
<path fill="none" stroke="black" d="M413,-288C413,-288 463,-288 463,-288"/>
</g>
<!-- LEAF3&#45;&#45;LEAF4 -->
<g id="edge18" class="edge">
<title>LEAF3:48&#45;&#45;LEAF4:48</title>
<path fill="none" stroke="black" d="M413,-268C413,-268 463,-268 463,-268"/>
</g>
<!-- HostC -->
<g id="node10" class="node">
<title>HostC</title>
<polygon fill="#4a69bd" stroke="none" points="389,-44 389,-114 429,-114 429,-44 389,-44"/>
<polygon fill="none" stroke="black" points="389,-44 389,-114 429,-114 429,-44 389,-44"/>
<text text-anchor="start" x="395.5" y="-78.1" font-family="Times,serif" font-size="8.00"> </text>
<text text-anchor="start" x="398.5" y="-78.1" font-family="Times,serif" font-size="8.00" fill="#ffffff">HostC</text>
<text text-anchor="start" x="419.5" y="-78.1" font-family="Times,serif" font-size="8.00"> </text>
</g>
<!-- LEAF3&#45;&#45;HostC -->
<g id="edge19" class="edge">
<title>LEAF3:3&#45;&#45;HostC</title>
<path fill="none" stroke="black" d="M362.92,-222.89C369.37,-202.75 385.15,-153.46 396.45,-118.19"/>
</g>
<!-- Host2 -->
<g id="node11" class="node">
<title>Host2</title>
<polygon fill="#4a69bd" stroke="none" points="463,-44 463,-114 503,-114 503,-44 463,-44"/>
<polygon fill="none" stroke="black" points="463,-44 463,-114 503,-114 503,-44 463,-44"/>
<text text-anchor="start" x="470.5" y="-78.1" font-family="Times,serif" font-size="8.00"> </text>
<text text-anchor="start" x="473.5" y="-78.1" font-family="Times,serif" font-size="8.00" fill="#ffffff">Host2</text>
<text text-anchor="start" x="492.5" y="-78.1" font-family="Times,serif" font-size="8.00"> </text>
</g>
<!-- LEAF4&#45;&#45;Host2 -->
<g id="edge20" class="edge">
<title>LEAF4:3&#45;&#45;Host2</title>
<path fill="none" stroke="black" d="M511.21,-222.89C507.26,-202.75 497.6,-153.46 490.68,-118.19"/>
</g>
</g>
</svg>
