<?xml version="1.0" encoding="UTF-8" standalone="no"?>
<!DOCTYPE svg PUBLIC "-//W3C//DTD SVG 1.1//EN"
 "http://www.w3.org/Graphics/SVG/1.1/DTD/svg11.dtd">
<!-- Generated by graphviz version 6.0.1 (20220911.1526)
 -->
<!-- Title: parent Pages: 1 -->
<svg width="604pt" height="814pt"
 viewBox="0.00 0.00 604.00 814.00" xmlns="http://www.w3.org/2000/svg" xmlns:xlink="http://www.w3.org/1999/xlink">
<g id="graph0" class="graph" transform="scale(1 1) rotate(0) translate(4 810)">
<title>parent</title>
<polygon fill="white" stroke="none" points="-4,4 -4,-810 600,-810 600,4 -4,4"/>
<g id="clust1" class="cluster">
<title>cluster_child_fabric_name</title>
<polygon fill="none" stroke="black" points="8,-8 8,-798 588,-798 588,-8 8,-8"/>
<text text-anchor="middle" x="298" y="-782.8" font-family="Times,serif" font-size="14.00">fabric_name</text>
</g>
<g id="clust3" class="cluster">
<title>cluster_child_dc_name1</title>
<polygon fill="none" stroke="black" points="16,-16 16,-602 580,-602 580,-16 16,-16"/>
<text text-anchor="middle" x="298" y="-586.8" font-family="Times,serif" font-size="14.00">dc_name1</text>
</g>
<g id="clust5" class="cluster">
<title>cluster_child_pod_name1</title>
<polygon fill="none" stroke="black" points="24,-24 24,-383 294,-383 294,-24 24,-24"/>
<text text-anchor="middle" x="159" y="-367.8" font-family="Times,serif" font-size="14.00">pod_name1</text>
</g>
<g id="clust7" class="cluster">
<title>cluster_child_pod_name1.5</title>
<polygon fill="none" stroke="black" points="48,-32 48,-164 269,-164 269,-32 48,-32"/>
<text text-anchor="middle" x="158.5" y="-148.8" font-family="Times,serif" font-size="14.00">pod_name1.5</text>
</g>
<g id="clust9" class="cluster">
<title>cluster_child_pod_name2</title>
<polygon fill="none" stroke="black" points="302,-24 302,-383 572,-383 572,-24 302,-24"/>
<text text-anchor="middle" x="437" y="-367.8" font-family="Times,serif" font-size="14.00">pod_name2</text>
</g>
<g id="clust11" class="cluster">
<title>cluster_child_pod_name2.5</title>
<polygon fill="none" stroke="black" points="326,-32 326,-164 547,-164 547,-32 326,-32"/>
<text text-anchor="middle" x="436.5" y="-148.8" font-family="Times,serif" font-size="14.00">pod_name2.5</text>
</g>
<!-- FIREWALL -->
<g id="node1" class="node">
<title>FIREWALL</title>
<text text-anchor="start" x="266" y="-752.1" font-family="Times,serif" font-size="8.00"> </text>
<polygon fill="#4a69bd" stroke="none" points="273,-694.5 273,-762.5 334,-762.5 334,-694.5 273,-694.5"/>
<polygon fill="none" stroke="black" points="273,-694.5 273,-762.5 334,-762.5 334,-694.5 273,-694.5"/>
<text text-anchor="start" x="279.5" y="-727.6" font-family="Times,serif" font-size="8.00"> </text>
<text text-anchor="start" x="282.5" y="-727.6" font-family="Times,serif" font-size="8.00" fill="#ffffff">FIREWALL</text>
<text text-anchor="start" x="324.5" y="-727.6" font-family="Times,serif" font-size="8.00"> </text>
<text text-anchor="start" x="338" y="-752.1" font-family="Times,serif" font-size="8.00"> </text>
<text text-anchor="start" x="266" y="-735.1" font-family="Times,serif" font-size="8.00"> </text>
<text text-anchor="start" x="338" y="-735.1" font-family="Times,serif" font-size="8.00"> </text>
<text text-anchor="start" x="266" y="-718.1" font-family="Times,serif" font-size="8.00"> </text>
<text text-anchor="start" x="338" y="-718.1" font-family="Times,serif" font-size="8.00"> </text>
<text text-anchor="start" x="266" y="-701.1" font-family="Times,serif" font-size="8.00"> </text>
<text text-anchor="start" x="338" y="-701.1" font-family="Times,serif" font-size="8.00"> </text>
<text text-anchor="start" x="266" y="-683.1" font-family="Times,serif" font-size="8.00"> </text>
<text text-anchor="start" x="277" y="-683.1" font-family="Times,serif" font-size="8.00"> </text>
<text text-anchor="start" x="288" y="-683.1" font-family="Times,serif" font-size="8.00"> </text>
<polygon fill="none" stroke="black" points="295,-675.5 295,-694.5 309,-694.5 309,-675.5 295,-675.5"/>
<text text-anchor="start" x="300" y="-683.1" font-family="Times,serif" font-size="8.00">4</text>
<polygon fill="none" stroke="black" points="309,-675.5 309,-694.5 323,-694.5 323,-675.5 309,-675.5"/>
<text text-anchor="start" x="314" y="-683.1" font-family="Times,serif" font-size="8.00">6</text>
<text text-anchor="start" x="327" y="-683.1" font-family="Times,serif" font-size="8.00"> </text>
<text text-anchor="start" x="338" y="-683.1" font-family="Times,serif" font-size="8.00"> </text>
</g>
<!-- SPINE1 -->
<g id="node2" class="node">
<title>SPINE1</title>
<text text-anchor="start" x="186" y="-555.6" font-family="Times,serif" font-size="8.00"> </text>
<text text-anchor="start" x="199.5" y="-555.6" font-family="Times,serif" font-size="8.00"> </text>
<text text-anchor="start" x="213.5" y="-555.6" font-family="Times,serif" font-size="8.00"> </text>
<polygon fill="none" stroke="black" points="222,-548 222,-567 236,-567 236,-548 222,-548"/>
<text text-anchor="start" x="227" y="-555.6" font-family="Times,serif" font-size="8.00">5</text>
<text text-anchor="start" x="241.5" y="-555.6" font-family="Times,serif" font-size="8.00"> </text>
<text text-anchor="start" x="254" y="-555.6" font-family="Times,serif" font-size="8.00"> </text>
<text text-anchor="start" x="269.5" y="-555.6" font-family="Times,serif" font-size="8.00"> </text>
<text text-anchor="start" x="185" y="-537.6" font-family="Times,serif" font-size="8.00"> &#160;</text>
<polygon fill="#4a69bd" stroke="none" points="194,-476 194,-548 261,-548 261,-476 194,-476"/>
<polygon fill="none" stroke="black" points="194,-476 194,-548 261,-548 261,-476 194,-476"/>
<text text-anchor="start" x="210.5" y="-511.1" font-family="Times,serif" font-size="8.00"> </text>
<text text-anchor="start" x="213.5" y="-511.1" font-family="Times,serif" font-size="8.00" fill="#ffffff">SPINE1</text>
<text text-anchor="start" x="241.5" y="-511.1" font-family="Times,serif" font-size="8.00"> </text>
<text text-anchor="start" x="269.5" y="-537.6" font-family="Times,serif" font-size="8.00"> </text>
<text text-anchor="start" x="186" y="-519.6" font-family="Times,serif" font-size="8.00"> </text>
<polygon fill="none" stroke="black" points="261,-512 261,-531 281,-531 281,-512 261,-512"/>
<text text-anchor="start" x="266" y="-519.6" font-family="Times,serif" font-size="8.00"> 47</text>
<text text-anchor="start" x="186" y="-500.6" font-family="Times,serif" font-size="8.00"> </text>
<polygon fill="none" stroke="black" points="261,-493 261,-512 281,-512 281,-493 261,-493"/>
<text text-anchor="start" x="266" y="-500.6" font-family="Times,serif" font-size="8.00"> 48</text>
<text text-anchor="start" x="186" y="-482.6" font-family="Times,serif" font-size="8.00"> </text>
<text text-anchor="start" x="269.5" y="-482.6" font-family="Times,serif" font-size="8.00"> </text>
<text text-anchor="start" x="186" y="-464.6" font-family="Times,serif" font-size="8.00"> </text>
<polygon fill="none" stroke="black" points="194,-457 194,-476 208,-476 208,-457 194,-457"/>
<text text-anchor="start" x="199" y="-464.6" font-family="Times,serif" font-size="8.00">1</text>
<polygon fill="none" stroke="black" points="208,-457 208,-476 222,-476 222,-457 208,-457"/>
<text text-anchor="start" x="213" y="-464.6" font-family="Times,serif" font-size="8.00">2</text>
<polygon fill="none" stroke="black" points="222,-457 222,-476 236,-476 236,-457 222,-457"/>
<text text-anchor="start" x="227" y="-464.6" font-family="Times,serif" font-size="8.00">3</text>
<polygon fill="none" stroke="black" points="236,-457 236,-476 250,-476 250,-457 236,-457"/>
<text text-anchor="start" x="241" y="-464.6" font-family="Times,serif" font-size="8.00">4</text>
<text text-anchor="start" x="254" y="-464.6" font-family="Times,serif" font-size="8.00"> </text>
<text text-anchor="start" x="269.5" y="-464.6" font-family="Times,serif" font-size="8.00"> </text>
</g>
<!-- FIREWALL&#45;&#45;SPINE1 -->
<g id="edge1" class="edge">
<title>FIREWALL:4&#45;&#45;SPINE1:5</title>
<path fill="none" stroke="black" d="M296.75,-675.4C283.28,-652.06 247.62,-590.26 234.2,-567.02"/>
</g>
<!-- SPINE2 -->
<g id="node3" class="node">
<title>SPINE2</title>
<text text-anchor="start" x="341.5" y="-555.6" font-family="Times,serif" font-size="8.00"> </text>
<text text-anchor="start" x="358.5" y="-555.6" font-family="Times,serif" font-size="8.00"> </text>
<text text-anchor="start" x="372.5" y="-555.6" font-family="Times,serif" font-size="8.00"> </text>
<polygon fill="none" stroke="black" points="381,-548 381,-567 395,-567 395,-548 381,-548"/>
<text text-anchor="start" x="386" y="-555.6" font-family="Times,serif" font-size="8.00">5</text>
<text text-anchor="start" x="400.5" y="-555.6" font-family="Times,serif" font-size="8.00"> </text>
<text text-anchor="start" x="413" y="-555.6" font-family="Times,serif" font-size="8.00"> </text>
<text text-anchor="start" x="424" y="-555.6" font-family="Times,serif" font-size="8.00"> </text>
<text text-anchor="start" x="341.5" y="-537.6" font-family="Times,serif" font-size="8.00"> </text>
<polygon fill="#4a69bd" stroke="none" points="353,-476 353,-548 420,-548 420,-476 353,-476"/>
<polygon fill="none" stroke="black" points="353,-476 353,-548 420,-548 420,-476 353,-476"/>
<text text-anchor="start" x="369.5" y="-511.1" font-family="Times,serif" font-size="8.00"> </text>
<text text-anchor="start" x="372.5" y="-511.1" font-family="Times,serif" font-size="8.00" fill="#ffffff">SPINE2</text>
<text text-anchor="start" x="400.5" y="-511.1" font-family="Times,serif" font-size="8.00"> </text>
<text text-anchor="start" x="424" y="-537.6" font-family="Times,serif" font-size="8.00"> </text>
<polygon fill="none" stroke="black" points="333,-512 333,-531 353,-531 353,-512 333,-512"/>
<text text-anchor="start" x="338" y="-519.6" font-family="Times,serif" font-size="8.00"> 47</text>
<text text-anchor="start" x="424" y="-519.6" font-family="Times,serif" font-size="8.00"> </text>
<polygon fill="none" stroke="black" points="333,-493 333,-512 353,-512 353,-493 333,-493"/>
<text text-anchor="start" x="338" y="-500.6" font-family="Times,serif" font-size="8.00"> 48</text>
<text text-anchor="start" x="424" y="-500.6" font-family="Times,serif" font-size="8.00"> </text>
<text text-anchor="start" x="341.5" y="-482.6" font-family="Times,serif" font-size="8.00"> </text>
<text text-anchor="start" x="424" y="-482.6" font-family="Times,serif" font-size="8.00"> </text>
<text text-anchor="start" x="341.5" y="-464.6" font-family="Times,serif" font-size="8.00"> </text>
<polygon fill="none" stroke="black" points="353,-457 353,-476 367,-476 367,-457 353,-457"/>
<text text-anchor="start" x="358" y="-464.6" font-family="Times,serif" font-size="8.00">1</text>
<polygon fill="none" stroke="black" points="367,-457 367,-476 381,-476 381,-457 367,-457"/>
<text text-anchor="start" x="372" y="-464.6" font-family="Times,serif" font-size="8.00">2</text>
<polygon fill="none" stroke="black" points="381,-457 381,-476 395,-476 395,-457 381,-457"/>
<text text-anchor="start" x="386" y="-464.6" font-family="Times,serif" font-size="8.00">3</text>
<polygon fill="none" stroke="black" points="395,-457 395,-476 409,-476 409,-457 395,-457"/>
<text text-anchor="start" x="400" y="-464.6" font-family="Times,serif" font-size="8.00">4</text>
<text text-anchor="start" x="413" y="-464.6" font-family="Times,serif" font-size="8.00"> </text>
<text text-anchor="start" x="424" y="-464.6" font-family="Times,serif" font-size="8.00"> </text>
</g>
<!-- FIREWALL&#45;&#45;SPINE2 -->
<g id="edge2" class="edge">
<title>FIREWALL:6&#45;&#45;SPINE2:5</title>
<path fill="none" stroke="black" d="M321.18,-675.4C334.46,-652.06 369.64,-590.26 382.87,-567.02"/>
</g>
<!-- LEAF1 -->
<g id="node4" class="node">
<title>LEAF1</title>
<text text-anchor="start" x="45" y="-336.6" font-family="Times,serif" font-size="8.00"> </text>
<text text-anchor="start" x="57" y="-336.6" font-family="Times,serif" font-size="8.00"> </text>
<text text-anchor="start" x="68" y="-336.6" font-family="Times,serif" font-size="8.00"> </text>
<polygon fill="none" stroke="black" points="75,-329 75,-348 89,-348 89,-329 75,-329"/>
<text text-anchor="start" x="80" y="-336.6" font-family="Times,serif" font-size="8.00">1</text>
<polygon fill="none" stroke="black" points="89,-329 89,-348 103,-348 103,-329 89,-329"/>
<text text-anchor="start" x="94" y="-336.6" font-family="Times,serif" font-size="8.00">2</text>
<text text-anchor="start" x="107" y="-336.6" font-family="Times,serif" font-size="8.00"> </text>
<text text-anchor="start" x="122.5" y="-336.6" font-family="Times,serif" font-size="8.00"> </text>
<text text-anchor="start" x="44" y="-318.6" font-family="Times,serif" font-size="8.00"> &#160;</text>
<polygon fill="#4a69bd" stroke="none" points="53,-257 53,-329 114,-329 114,-257 53,-257"/>
<polygon fill="none" stroke="black" points="53,-257 53,-329 114,-329 114,-257 53,-257"/>
<text text-anchor="start" x="68" y="-292.1" font-family="Times,serif" font-size="8.00"> </text>
<text text-anchor="start" x="71" y="-292.1" font-family="Times,serif" font-size="8.00" fill="#ffffff">LEAF1</text>
<text text-anchor="start" x="96" y="-292.1" font-family="Times,serif" font-size="8.00"> </text>
<text text-anchor="start" x="122.5" y="-318.6" font-family="Times,serif" font-size="8.00"> </text>
<text text-anchor="start" x="45" y="-300.6" font-family="Times,serif" font-size="8.00"> </text>
<polygon fill="none" stroke="black" points="114,-293 114,-312 134,-312 134,-293 114,-293"/>
<text text-anchor="start" x="119" y="-300.6" font-family="Times,serif" font-size="8.00"> 47</text>
<text text-anchor="start" x="45" y="-281.6" font-family="Times,serif" font-size="8.00"> </text>
<polygon fill="none" stroke="black" points="114,-274 114,-293 134,-293 134,-274 114,-274"/>
<text text-anchor="start" x="119" y="-281.6" font-family="Times,serif" font-size="8.00"> 48</text>
<text text-anchor="start" x="45" y="-263.6" font-family="Times,serif" font-size="8.00"> </text>
<text text-anchor="start" x="122.5" y="-263.6" font-family="Times,serif" font-size="8.00"> </text>
<text text-anchor="start" x="45" y="-245.6" font-family="Times,serif" font-size="8.00"> </text>
<text text-anchor="start" x="57" y="-245.6" font-family="Times,serif" font-size="8.00"> </text>
<text text-anchor="start" x="68" y="-245.6" font-family="Times,serif" font-size="8.00"> </text>
<polygon fill="none" stroke="black" points="75,-238 75,-257 89,-257 89,-238 75,-238"/>
<text text-anchor="start" x="80" y="-245.6" font-family="Times,serif" font-size="8.00">3</text>
<text text-anchor="start" x="94.5" y="-245.6" font-family="Times,serif" font-size="8.00"> </text>
<text text-anchor="start" x="107" y="-245.6" font-family="Times,serif" font-size="8.00"> </text>
<text text-anchor="start" x="122.5" y="-245.6" font-family="Times,serif" font-size="8.00"> </text>
</g>
<!-- SPINE1&#45;&#45;LEAF1 -->
<g id="edge9" class="edge">
<title>SPINE1:1&#45;&#45;LEAF1:1</title>
<path fill="none" stroke="black" d="M193.91,-458.44C172.8,-435.9 110.46,-369.38 89.2,-346.69"/>
</g>
<!-- LEAF2 -->
<g id="node5" class="node">
<title>LEAF2</title>
<text text-anchor="start" x="194.5" y="-336.6" font-family="Times,serif" font-size="8.00"> </text>
<text text-anchor="start" x="210" y="-336.6" font-family="Times,serif" font-size="8.00"> </text>
<text text-anchor="start" x="221" y="-336.6" font-family="Times,serif" font-size="8.00"> </text>
<polygon fill="none" stroke="black" points="228,-329 228,-348 242,-348 242,-329 228,-329"/>
<text text-anchor="start" x="233" y="-336.6" font-family="Times,serif" font-size="8.00">1</text>
<polygon fill="none" stroke="black" points="242,-329 242,-348 256,-348 256,-329 242,-329"/>
<text text-anchor="start" x="247" y="-336.6" font-family="Times,serif" font-size="8.00">2</text>
<text text-anchor="start" x="260" y="-336.6" font-family="Times,serif" font-size="8.00"> </text>
<text text-anchor="start" x="271" y="-336.6" font-family="Times,serif" font-size="8.00"> </text>
<text text-anchor="start" x="194.5" y="-318.6" font-family="Times,serif" font-size="8.00"> </text>
<polygon fill="#4a69bd" stroke="none" points="206,-257 206,-329 267,-329 267,-257 206,-257"/>
<polygon fill="none" stroke="black" points="206,-257 206,-329 267,-329 267,-257 206,-257"/>
<text text-anchor="start" x="221" y="-292.1" font-family="Times,serif" font-size="8.00"> </text>
<text text-anchor="start" x="224" y="-292.1" font-family="Times,serif" font-size="8.00" fill="#ffffff">LEAF2</text>
<text text-anchor="start" x="249" y="-292.1" font-family="Times,serif" font-size="8.00"> </text>
<text text-anchor="start" x="271" y="-318.6" font-family="Times,serif" font-size="8.00"> </text>
<polygon fill="none" stroke="black" points="186,-293 186,-312 206,-312 206,-293 186,-293"/>
<text text-anchor="start" x="191" y="-300.6" font-family="Times,serif" font-size="8.00"> 47</text>
<text text-anchor="start" x="271" y="-300.6" font-family="Times,serif" font-size="8.00"> </text>
<polygon fill="none" stroke="black" points="186,-274 186,-293 206,-293 206,-274 186,-274"/>
<text text-anchor="start" x="191" y="-281.6" font-family="Times,serif" font-size="8.00"> 48</text>
<text text-anchor="start" x="271" y="-281.6" font-family="Times,serif" font-size="8.00"> </text>
<text text-anchor="start" x="194.5" y="-263.6" font-family="Times,serif" font-size="8.00"> </text>
<text text-anchor="start" x="271" y="-263.6" font-family="Times,serif" font-size="8.00"> </text>
<text text-anchor="start" x="194.5" y="-245.6" font-family="Times,serif" font-size="8.00"> </text>
<text text-anchor="start" x="210" y="-245.6" font-family="Times,serif" font-size="8.00"> </text>
<text text-anchor="start" x="221" y="-245.6" font-family="Times,serif" font-size="8.00"> </text>
<polygon fill="none" stroke="black" points="228,-238 228,-257 242,-257 242,-238 228,-238"/>
<text text-anchor="start" x="233" y="-245.6" font-family="Times,serif" font-size="8.00">3</text>
<text text-anchor="start" x="247.5" y="-245.6" font-family="Times,serif" font-size="8.00"> </text>
<text text-anchor="start" x="260" y="-245.6" font-family="Times,serif" font-size="8.00"> </text>
<text text-anchor="start" x="271" y="-245.6" font-family="Times,serif" font-size="8.00"> </text>
</g>
<!-- SPINE1&#45;&#45;LEAF2 -->
<g id="edge10" class="edge">
<title>SPINE1:2&#45;&#45;LEAF2:1</title>
<path fill="none" stroke="black" d="M216.44,-456.87C220.13,-433.43 229.9,-371.39 233.57,-348.05"/>
</g>
<!-- LEAF3 -->
<g id="node8" class="node">
<title>LEAF3</title>
<text text-anchor="start" x="323" y="-336.6" font-family="Times,serif" font-size="8.00"> </text>
<text text-anchor="start" x="335" y="-336.6" font-family="Times,serif" font-size="8.00"> </text>
<text text-anchor="start" x="346" y="-336.6" font-family="Times,serif" font-size="8.00"> </text>
<polygon fill="none" stroke="black" points="353,-329 353,-348 367,-348 367,-329 353,-329"/>
<text text-anchor="start" x="358" y="-336.6" font-family="Times,serif" font-size="8.00">1</text>
<polygon fill="none" stroke="black" points="367,-329 367,-348 381,-348 381,-329 367,-329"/>
<text text-anchor="start" x="372" y="-336.6" font-family="Times,serif" font-size="8.00">2</text>
<text text-anchor="start" x="385" y="-336.6" font-family="Times,serif" font-size="8.00"> </text>
<text text-anchor="start" x="400.5" y="-336.6" font-family="Times,serif" font-size="8.00"> </text>
<text text-anchor="start" x="322" y="-318.6" font-family="Times,serif" font-size="8.00"> &#160;</text>
<polygon fill="#4a69bd" stroke="none" points="331,-257 331,-329 392,-329 392,-257 331,-257"/>
<polygon fill="none" stroke="black" points="331,-257 331,-329 392,-329 392,-257 331,-257"/>
<text text-anchor="start" x="346" y="-292.1" font-family="Times,serif" font-size="8.00"> </text>
<text text-anchor="start" x="349" y="-292.1" font-family="Times,serif" font-size="8.00" fill="#ffffff">LEAF3</text>
<text text-anchor="start" x="374" y="-292.1" font-family="Times,serif" font-size="8.00"> </text>
<text text-anchor="start" x="400.5" y="-318.6" font-family="Times,serif" font-size="8.00"> </text>
<text text-anchor="start" x="323" y="-300.6" font-family="Times,serif" font-size="8.00"> </text>
<polygon fill="none" stroke="black" points="392,-293 392,-312 412,-312 412,-293 392,-293"/>
<text text-anchor="start" x="397" y="-300.6" font-family="Times,serif" font-size="8.00"> 47</text>
<text text-anchor="start" x="323" y="-281.6" font-family="Times,serif" font-size="8.00"> </text>
<polygon fill="none" stroke="black" points="392,-274 392,-293 412,-293 412,-274 392,-274"/>
<text text-anchor="start" x="397" y="-281.6" font-family="Times,serif" font-size="8.00"> 48</text>
<text text-anchor="start" x="323" y="-263.6" font-family="Times,serif" font-size="8.00"> </text>
<text text-anchor="start" x="400.5" y="-263.6" font-family="Times,serif" font-size="8.00"> </text>
<text text-anchor="start" x="323" y="-245.6" font-family="Times,serif" font-size="8.00"> </text>
<text text-anchor="start" x="335" y="-245.6" font-family="Times,serif" font-size="8.00"> </text>
<text text-anchor="start" x="346" y="-245.6" font-family="Times,serif" font-size="8.00"> </text>
<polygon fill="none" stroke="black" points="353,-238 353,-257 367,-257 367,-238 353,-238"/>
<text text-anchor="start" x="358" y="-245.6" font-family="Times,serif" font-size="8.00">3</text>
<text text-anchor="start" x="372.5" y="-245.6" font-family="Times,serif" font-size="8.00"> </text>
<text text-anchor="start" x="385" y="-245.6" font-family="Times,serif" font-size="8.00"> </text>
<text text-anchor="start" x="400.5" y="-245.6" font-family="Times,serif" font-size="8.00"> </text>
</g>
<!-- SPINE1&#45;&#45;LEAF3 -->
<g id="edge11" class="edge">
<title>SPINE1:3&#45;&#45;LEAF3:1</title>
<path fill="none" stroke="black" d="M236.04,-459.17C258.79,-437.12 330.13,-367.96 352.92,-345.86"/>
</g>
<!-- LEAF4 -->
<g id="node9" class="node">
<title>LEAF4</title>
<text text-anchor="start" x="472.5" y="-336.6" font-family="Times,serif" font-size="8.00"> </text>
<text text-anchor="start" x="488" y="-336.6" font-family="Times,serif" font-size="8.00"> </text>
<text text-anchor="start" x="499" y="-336.6" font-family="Times,serif" font-size="8.00"> </text>
<polygon fill="none" stroke="black" points="506,-329 506,-348 520,-348 520,-329 506,-329"/>
<text text-anchor="start" x="511" y="-336.6" font-family="Times,serif" font-size="8.00">1</text>
<polygon fill="none" stroke="black" points="520,-329 520,-348 534,-348 534,-329 520,-329"/>
<text text-anchor="start" x="525" y="-336.6" font-family="Times,serif" font-size="8.00">2</text>
<text text-anchor="start" x="538" y="-336.6" font-family="Times,serif" font-size="8.00"> </text>
<text text-anchor="start" x="549" y="-336.6" font-family="Times,serif" font-size="8.00"> </text>
<text text-anchor="start" x="472.5" y="-318.6" font-family="Times,serif" font-size="8.00"> </text>
<polygon fill="#4a69bd" stroke="none" points="484,-257 484,-329 545,-329 545,-257 484,-257"/>
<polygon fill="none" stroke="black" points="484,-257 484,-329 545,-329 545,-257 484,-257"/>
<text text-anchor="start" x="499" y="-292.1" font-family="Times,serif" font-size="8.00"> </text>
<text text-anchor="start" x="502" y="-292.1" font-family="Times,serif" font-size="8.00" fill="#ffffff">LEAF4</text>
<text text-anchor="start" x="527" y="-292.1" font-family="Times,serif" font-size="8.00"> </text>
<text text-anchor="start" x="549" y="-318.6" font-family="Times,serif" font-size="8.00"> </text>
<polygon fill="none" stroke="black" points="464,-293 464,-312 484,-312 484,-293 464,-293"/>
<text text-anchor="start" x="469" y="-300.6" font-family="Times,serif" font-size="8.00"> 47</text>
<text text-anchor="start" x="549" y="-300.6" font-family="Times,serif" font-size="8.00"> </text>
<polygon fill="none" stroke="black" points="464,-274 464,-293 484,-293 484,-274 464,-274"/>
<text text-anchor="start" x="469" y="-281.6" font-family="Times,serif" font-size="8.00"> 48</text>
<text text-anchor="start" x="549" y="-281.6" font-family="Times,serif" font-size="8.00"> </text>
<text text-anchor="start" x="472.5" y="-263.6" font-family="Times,serif" font-size="8.00"> </text>
<text text-anchor="start" x="549" y="-263.6" font-family="Times,serif" font-size="8.00"> </text>
<text text-anchor="start" x="472.5" y="-245.6" font-family="Times,serif" font-size="8.00"> </text>
<text text-anchor="start" x="488" y="-245.6" font-family="Times,serif" font-size="8.00"> </text>
<text text-anchor="start" x="499" y="-245.6" font-family="Times,serif" font-size="8.00"> </text>
<polygon fill="none" stroke="black" points="506,-238 506,-257 520,-257 520,-238 506,-238"/>
<text text-anchor="start" x="511" y="-245.6" font-family="Times,serif" font-size="8.00">3</text>
<text text-anchor="start" x="525.5" y="-245.6" font-family="Times,serif" font-size="8.00"> </text>
<text text-anchor="start" x="538" y="-245.6" font-family="Times,serif" font-size="8.00"> </text>
<text text-anchor="start" x="549" y="-245.6" font-family="Times,serif" font-size="8.00"> </text>
</g>
<!-- SPINE1&#45;&#45;LEAF4 -->
<g id="edge12" class="edge">
<title>SPINE1:4&#45;&#45;LEAF4:1</title>
<path fill="none" stroke="black" d="M250.22,-462.6C288.46,-444.62 467.03,-360.62 505.63,-342.47"/>
</g>
<!-- SPINE2&#45;&#45;SPINE1 -->
<g id="edge3" class="edge">
<title>SPINE2:47&#45;&#45;SPINE1:47</title>
<path fill="none" stroke="black" d="M332,-522C332,-522 282,-522 282,-522"/>
</g>
<!-- SPINE2&#45;&#45;SPINE1 -->
<g id="edge4" class="edge">
<title>SPINE2:48&#45;&#45;SPINE1:48</title>
<path fill="none" stroke="black" d="M332,-502C332,-502 282,-502 282,-502"/>
</g>
<!-- SPINE2&#45;&#45;LEAF1 -->
<g id="edge5" class="edge">
<title>SPINE2:1&#45;&#45;LEAF1:2</title>
<path fill="none" stroke="black" d="M352.94,-462.6C315.55,-444.62 140.95,-360.62 103.21,-342.47"/>
</g>
<!-- SPINE2&#45;&#45;LEAF2 -->
<g id="edge6" class="edge">
<title>SPINE2:2&#45;&#45;LEAF2:2</title>
<path fill="none" stroke="black" d="M366.92,-458.81C344.92,-436.45 277.9,-368.36 256,-346.11"/>
</g>
<!-- SPINE2&#45;&#45;LEAF3 -->
<g id="edge7" class="edge">
<title>SPINE2:3&#45;&#45;LEAF3:2</title>
<path fill="none" stroke="black" d="M386.99,-456.87C384.41,-433.43 377.57,-371.39 375,-348.05"/>
</g>
<!-- SPINE2&#45;&#45;LEAF4 -->
<g id="edge8" class="edge">
<title>SPINE2:4&#45;&#45;LEAF4:2</title>
<path fill="none" stroke="black" d="M409.08,-458.81C431.08,-436.45 498.1,-368.36 520,-346.11"/>
</g>
<!-- LEAF1&#45;&#45;LEAF2 -->
<g id="edge13" class="edge">
<title>LEAF1:47&#45;&#45;LEAF2:47</title>
<path fill="none" stroke="black" d="M135,-303C135,-303 185,-303 185,-303"/>
</g>
<!-- LEAF1&#45;&#45;LEAF2 -->
<g id="edge14" class="edge">
<title>LEAF1:48&#45;&#45;LEAF2:48</title>
<path fill="none" stroke="black" d="M135,-283C135,-283 185,-283 185,-283"/>
</g>
<!-- HostA -->
<g id="node6" class="node">
<title>HostA</title>
<text text-anchor="start" x="69" y="-118.1" font-family="Times,serif" font-size="8.00"> </text>
<polygon fill="#4a69bd" stroke="none" points="76,-60.5 76,-128.5 131,-128.5 131,-60.5 76,-60.5"/>
<polygon fill="none" stroke="black" points="76,-60.5 76,-128.5 131,-128.5 131,-60.5 76,-60.5"/>
<text text-anchor="start" x="89.5" y="-93.6" font-family="Times,serif" font-size="8.00"> </text>
<text text-anchor="start" x="92.5" y="-93.6" font-family="Times,serif" font-size="8.00" fill="#ffffff">HostA</text>
<text text-anchor="start" x="114.5" y="-93.6" font-family="Times,serif" font-size="8.00"> </text>
<text text-anchor="start" x="135" y="-118.1" font-family="Times,serif" font-size="8.00"> </text>
<text text-anchor="start" x="69" y="-101.1" font-family="Times,serif" font-size="8.00"> </text>
<text text-anchor="start" x="135" y="-101.1" font-family="Times,serif" font-size="8.00"> </text>
<text text-anchor="start" x="69" y="-84.1" font-family="Times,serif" font-size="8.00"> </text>
<text text-anchor="start" x="135" y="-84.1" font-family="Times,serif" font-size="8.00"> </text>
<text text-anchor="start" x="69" y="-67.1" font-family="Times,serif" font-size="8.00"> </text>
<text text-anchor="start" x="135" y="-67.1" font-family="Times,serif" font-size="8.00"> </text>
<text text-anchor="start" x="69" y="-50.1" font-family="Times,serif" font-size="8.00"> </text>
<text text-anchor="start" x="80" y="-50.1" font-family="Times,serif" font-size="8.00"> </text>
<text text-anchor="start" x="91" y="-50.1" font-family="Times,serif" font-size="8.00"> </text>
<text text-anchor="start" x="102" y="-50.1" font-family="Times,serif" font-size="8.00"> </text>
<text text-anchor="start" x="113" y="-50.1" font-family="Times,serif" font-size="8.00"> </text>
<text text-anchor="start" x="124" y="-50.1" font-family="Times,serif" font-size="8.00"> </text>
<text text-anchor="start" x="135" y="-50.1" font-family="Times,serif" font-size="8.00"> </text>
</g>
<!-- LEAF1&#45;&#45;HostA -->
<g id="edge15" class="edge">
<title>LEAF1:3&#45;&#45;HostA</title>
<path fill="none" stroke="black" d="M83.19,-237.91C85.78,-218.08 92.1,-169.78 96.91,-133.02"/>
</g>
<!-- HostB -->
<g id="node7" class="node">
<title>HostB</title>
<text text-anchor="start" x="180" y="-118.1" font-family="Times,serif" font-size="8.00"> </text>
<polygon fill="#4a69bd" stroke="none" points="187,-60.5 187,-128.5 242,-128.5 242,-60.5 187,-60.5"/>
<polygon fill="none" stroke="black" points="187,-60.5 187,-128.5 242,-128.5 242,-60.5 187,-60.5"/>
<text text-anchor="start" x="201" y="-93.6" font-family="Times,serif" font-size="8.00"> </text>
<text text-anchor="start" x="204" y="-93.6" font-family="Times,serif" font-size="8.00" fill="#ffffff">HostB</text>
<text text-anchor="start" x="225" y="-93.6" font-family="Times,serif" font-size="8.00"> </text>
<text text-anchor="start" x="246" y="-118.1" font-family="Times,serif" font-size="8.00"> </text>
<text text-anchor="start" x="180" y="-101.1" font-family="Times,serif" font-size="8.00"> </text>
<text text-anchor="start" x="246" y="-101.1" font-family="Times,serif" font-size="8.00"> </text>
<text text-anchor="start" x="180" y="-84.1" font-family="Times,serif" font-size="8.00"> </text>
<text text-anchor="start" x="246" y="-84.1" font-family="Times,serif" font-size="8.00"> </text>
<text text-anchor="start" x="180" y="-67.1" font-family="Times,serif" font-size="8.00"> </text>
<text text-anchor="start" x="246" y="-67.1" font-family="Times,serif" font-size="8.00"> </text>
<text text-anchor="start" x="180" y="-50.1" font-family="Times,serif" font-size="8.00"> </text>
<text text-anchor="start" x="191" y="-50.1" font-family="Times,serif" font-size="8.00"> </text>
<text text-anchor="start" x="202" y="-50.1" font-family="Times,serif" font-size="8.00"> </text>
<text text-anchor="start" x="213" y="-50.1" font-family="Times,serif" font-size="8.00"> </text>
<text text-anchor="start" x="224" y="-50.1" font-family="Times,serif" font-size="8.00"> </text>
<text text-anchor="start" x="235" y="-50.1" font-family="Times,serif" font-size="8.00"> </text>
<text text-anchor="start" x="246" y="-50.1" font-family="Times,serif" font-size="8.00"> </text>
</g>
<!-- LEAF2&#45;&#45;HostB -->
<g id="edge16" class="edge">
<title>LEAF2:3&#45;&#45;HostB</title>
<path fill="none" stroke="black" d="M233.81,-237.91C231.22,-218.08 224.9,-169.78 220.09,-133.02"/>
</g>
<!-- LEAF3&#45;&#45;LEAF4 -->
<g id="edge17" class="edge">
<title>LEAF3:47&#45;&#45;LEAF4:47</title>
<path fill="none" stroke="black" d="M413,-303C413,-303 463,-303 463,-303"/>
</g>
<!-- LEAF3&#45;&#45;LEAF4 -->
<g id="edge18" class="edge">
<title>LEAF3:48&#45;&#45;LEAF4:48</title>
<path fill="none" stroke="black" d="M413,-283C413,-283 463,-283 463,-283"/>
</g>
<!-- HostC -->
<g id="node10" class="node">
<title>HostC</title>
<text text-anchor="start" x="347" y="-118.1" font-family="Times,serif" font-size="8.00"> </text>
<polygon fill="#4a69bd" stroke="none" points="354,-60.5 354,-128.5 409,-128.5 409,-60.5 354,-60.5"/>
<polygon fill="none" stroke="black" points="354,-60.5 354,-128.5 409,-128.5 409,-60.5 354,-60.5"/>
<text text-anchor="start" x="368" y="-93.6" font-family="Times,serif" font-size="8.00"> </text>
<text text-anchor="start" x="371" y="-93.6" font-family="Times,serif" font-size="8.00" fill="#ffffff">HostC</text>
<text text-anchor="start" x="392" y="-93.6" font-family="Times,serif" font-size="8.00"> </text>
<text text-anchor="start" x="413" y="-118.1" font-family="Times,serif" font-size="8.00"> </text>
<text text-anchor="start" x="347" y="-101.1" font-family="Times,serif" font-size="8.00"> </text>
<text text-anchor="start" x="413" y="-101.1" font-family="Times,serif" font-size="8.00"> </text>
<text text-anchor="start" x="347" y="-84.1" font-family="Times,serif" font-size="8.00"> </text>
<text text-anchor="start" x="413" y="-84.1" font-family="Times,serif" font-size="8.00"> </text>
<text text-anchor="start" x="347" y="-67.1" font-family="Times,serif" font-size="8.00"> </text>
<text text-anchor="start" x="413" y="-67.1" font-family="Times,serif" font-size="8.00"> </text>
<text text-anchor="start" x="347" y="-50.1" font-family="Times,serif" font-size="8.00"> </text>
<text text-anchor="start" x="358" y="-50.1" font-family="Times,serif" font-size="8.00"> </text>
<text text-anchor="start" x="369" y="-50.1" font-family="Times,serif" font-size="8.00"> </text>
<text text-anchor="start" x="380" y="-50.1" font-family="Times,serif" font-size="8.00"> </text>
<text text-anchor="start" x="391" y="-50.1" font-family="Times,serif" font-size="8.00"> </text>
<text text-anchor="start" x="402" y="-50.1" font-family="Times,serif" font-size="8.00"> </text>
<text text-anchor="start" x="413" y="-50.1" font-family="Times,serif" font-size="8.00"> </text>
</g>
<!-- LEAF3&#45;&#45;HostC -->
<g id="edge19" class="edge">
<title>LEAF3:3&#45;&#45;HostC</title>
<path fill="none" stroke="black" d="M361.19,-237.91C363.78,-218.08 370.1,-169.78 374.91,-133.02"/>
</g>
<!-- Host2 -->
<g id="node11" class="node">
<title>Host2</title>
<text text-anchor="start" x="458" y="-118.1" font-family="Times,serif" font-size="8.00"> </text>
<polygon fill="#4a69bd" stroke="none" points="465,-60.5 465,-128.5 520,-128.5 520,-60.5 465,-60.5"/>
<polygon fill="none" stroke="black" points="465,-60.5 465,-128.5 520,-128.5 520,-60.5 465,-60.5"/>
<text text-anchor="start" x="480" y="-93.6" font-family="Times,serif" font-size="8.00"> </text>
<text text-anchor="start" x="483" y="-93.6" font-family="Times,serif" font-size="8.00" fill="#ffffff">Host2</text>
<text text-anchor="start" x="502" y="-93.6" font-family="Times,serif" font-size="8.00"> </text>
<text text-anchor="start" x="524" y="-118.1" font-family="Times,serif" font-size="8.00"> </text>
<text text-anchor="start" x="458" y="-101.1" font-family="Times,serif" font-size="8.00"> </text>
<text text-anchor="start" x="524" y="-101.1" font-family="Times,serif" font-size="8.00"> </text>
<text text-anchor="start" x="458" y="-84.1" font-family="Times,serif" font-size="8.00"> </text>
<text text-anchor="start" x="524" y="-84.1" font-family="Times,serif" font-size="8.00"> </text>
<text text-anchor="start" x="458" y="-67.1" font-family="Times,serif" font-size="8.00"> </text>
<text text-anchor="start" x="524" y="-67.1" font-family="Times,serif" font-size="8.00"> </text>
<text text-anchor="start" x="458" y="-50.1" font-family="Times,serif" font-size="8.00"> </text>
<text text-anchor="start" x="469" y="-50.1" font-family="Times,serif" font-size="8.00"> </text>
<text text-anchor="start" x="480" y="-50.1" font-family="Times,serif" font-size="8.00"> </text>
<text text-anchor="start" x="491" y="-50.1" font-family="Times,serif" font-size="8.00"> </text>
<text text-anchor="start" x="502" y="-50.1" font-family="Times,serif" font-size="8.00"> </text>
<text text-anchor="start" x="513" y="-50.1" font-family="Times,serif" font-size="8.00"> </text>
<text text-anchor="start" x="524" y="-50.1" font-family="Times,serif" font-size="8.00"> </text>
</g>
<!-- LEAF4&#45;&#45;Host2 -->
<g id="edge20" class="edge">
<title>LEAF4:3&#45;&#45;Host2</title>
<path fill="none" stroke="black" d="M511.81,-237.91C509.22,-218.08 502.9,-169.78 498.09,-133.02"/>
</g>
</g>
</svg>
