<?xml version="1.0" encoding="UTF-8" standalone="no"?>
<!DOCTYPE svg PUBLIC "-//W3C//DTD SVG 1.1//EN"
 "http://www.w3.org/Graphics/SVG/1.1/DTD/svg11.dtd">
<!-- Generated by graphviz version 6.0.1 (20220911.1526)
 -->
<!-- Title: parent Pages: 1 -->
<svg width="544pt" height="627pt"
 viewBox="0.00 0.00 544.00 627.00" xmlns="http://www.w3.org/2000/svg" xmlns:xlink="http://www.w3.org/1999/xlink">
<g id="graph0" class="graph" transform="scale(1 1) rotate(0) translate(4 623)">
<title>parent</title>
<polygon fill="white" stroke="none" points="-4,4 -4,-623 540,-623 540,4 -4,4"/>
<g id="clust1" class="cluster">
<title>cluster_child_fabric_name</title>
<polygon fill="none" stroke="black" points="8,-8 8,-611 528,-611 528,-8 8,-8"/>
<text text-anchor="middle" x="268" y="-595.8" font-family="Times,serif" font-size="14.00">fabric_name</text>
</g>
<g id="clust8" class="cluster">
<title>cluster_child_dc_name1</title>
<polygon fill="none" stroke="black" points="16,-16 16,-453 520,-453 520,-16 16,-16"/>
<text text-anchor="middle" x="268" y="-437.8" font-family="Times,serif" font-size="14.00">dc_name1</text>
</g>
<g id="clust15" class="cluster">
<title>cluster_child_pod_name1</title>
<polygon fill="none" stroke="black" points="24,-24 24,-286 264,-286 264,-24 24,-24"/>
<text text-anchor="middle" x="144" y="-270.8" font-family="Times,serif" font-size="14.00">pod_name1</text>
</g>
<g id="clust22" class="cluster">
<title>cluster_child_pod_name1.5</title>
<polygon fill="none" stroke="black" points="41,-32 41,-119 247,-119 247,-32 41,-32"/>
<text text-anchor="middle" x="144" y="-103.8" font-family="Times,serif" font-size="14.00">pod_name1.5</text>
</g>
<g id="clust29" class="cluster">
<title>cluster_child_pod_name2</title>
<polygon fill="none" stroke="black" points="272,-24 272,-286 512,-286 512,-24 272,-24"/>
<text text-anchor="middle" x="392" y="-270.8" font-family="Times,serif" font-size="14.00">pod_name2</text>
</g>
<g id="clust36" class="cluster">
<title>cluster_child_pod_name2.5</title>
<polygon fill="none" stroke="black" points="289,-32 289,-119 495,-119 495,-32 289,-32"/>
<text text-anchor="middle" x="392" y="-103.8" font-family="Times,serif" font-size="14.00">pod_name2.5</text>
</g>
<!-- FIREWALL -->
<g id="node1" class="node">
<title>FIREWALL</title>
<polygon fill="none" stroke="black" points="230,-565.5 230,-575.5 240,-575.5 240,-565.5 230,-565.5"/>
<polygon fill="none" stroke="black" points="240,-565.5 240,-575.5 250,-575.5 250,-565.5 240,-565.5"/>
<polygon fill="none" stroke="black" points="250,-565.5 250,-575.5 260,-575.5 260,-565.5 250,-565.5"/>
<polygon fill="none" stroke="black" points="260,-565.5 260,-575.5 274,-575.5 274,-565.5 260,-565.5"/>
<polygon fill="none" stroke="black" points="274,-565.5 274,-575.5 288,-575.5 288,-565.5 274,-565.5"/>
<polygon fill="none" stroke="black" points="288,-565.5 288,-575.5 298,-575.5 298,-565.5 288,-565.5"/>
<polygon fill="none" stroke="black" points="298,-565.5 298,-575.5 308,-575.5 308,-565.5 298,-565.5"/>
<polygon fill="none" stroke="black" points="230,-555.5 230,-565.5 240,-565.5 240,-555.5 230,-555.5"/>
<polygon fill="none" stroke="black" points="240,-545.5 240,-565.5 298,-565.5 298,-545.5 240,-545.5"/>
<text text-anchor="start" x="248" y="-553.6" font-family="Times,serif" font-size="8.00">FIREWALL</text>
<polygon fill="none" stroke="black" points="298,-555.5 298,-565.5 308,-565.5 308,-555.5 298,-555.5"/>
<polygon fill="none" stroke="black" points="230,-545.5 230,-555.5 240,-555.5 240,-545.5 230,-545.5"/>
<polygon fill="none" stroke="black" points="298,-545.5 298,-555.5 308,-555.5 308,-545.5 298,-545.5"/>
<polygon fill="none" stroke="black" points="230,-526.5 230,-545.5 240,-545.5 240,-526.5 230,-526.5"/>
<polygon fill="none" stroke="black" points="240,-526.5 240,-545.5 250,-545.5 250,-526.5 240,-526.5"/>
<polygon fill="none" stroke="black" points="250,-526.5 250,-545.5 260,-545.5 260,-526.5 250,-526.5"/>
<polygon fill="none" stroke="black" points="260,-526.5 260,-545.5 274,-545.5 274,-526.5 260,-526.5"/>
<text text-anchor="start" x="265" y="-534.1" font-family="Times,serif" font-size="8.00">4</text>
<polygon fill="none" stroke="black" points="274,-526.5 274,-545.5 288,-545.5 288,-526.5 274,-526.5"/>
<text text-anchor="start" x="279" y="-534.1" font-family="Times,serif" font-size="8.00">6</text>
<polygon fill="none" stroke="black" points="288,-526.5 288,-545.5 298,-545.5 298,-526.5 288,-526.5"/>
<polygon fill="none" stroke="black" points="298,-526.5 298,-545.5 308,-545.5 308,-526.5 298,-526.5"/>
</g>
<!-- SPINE1 -->
<g id="node2" class="node">
<title>SPINE1</title>
<polygon fill="none" stroke="black" points="298,-399 298,-418 308,-418 308,-399 298,-399"/>
<polygon fill="none" stroke="black" points="308,-399 308,-418 322,-418 322,-399 308,-399"/>
<polygon fill="none" stroke="black" points="322,-399 322,-418 336,-418 336,-399 322,-399"/>
<polygon fill="none" stroke="black" points="336,-399 336,-418 350,-418 350,-399 336,-399"/>
<text text-anchor="start" x="341" y="-406.6" font-family="Times,serif" font-size="8.00">5</text>
<polygon fill="none" stroke="black" points="350,-399 350,-418 364,-418 364,-399 350,-399"/>
<polygon fill="none" stroke="black" points="364,-399 364,-418 374,-418 374,-399 364,-399"/>
<polygon fill="none" stroke="black" points="374,-399 374,-418 384,-418 384,-399 374,-399"/>
<polygon fill="none" stroke="black" points="298,-389 298,-399 308,-399 308,-389 298,-389"/>
<polygon fill="none" stroke="black" points="308,-379 308,-399 374,-399 374,-379 308,-379"/>
<text text-anchor="start" x="327" y="-387.1" font-family="Times,serif" font-size="8.00">SPINE1</text>
<polygon fill="none" stroke="black" points="374,-389 374,-399 384,-399 384,-389 374,-389"/>
<polygon fill="none" stroke="black" points="298,-379 298,-389 308,-389 308,-379 298,-379"/>
<polygon fill="none" stroke="black" points="374,-379 374,-389 384,-389 384,-379 374,-379"/>
<polygon fill="none" stroke="black" points="298,-360 298,-379 308,-379 308,-360 298,-360"/>
<polygon fill="none" stroke="black" points="308,-360 308,-379 322,-379 322,-360 308,-360"/>
<text text-anchor="start" x="313" y="-367.6" font-family="Times,serif" font-size="8.00">1</text>
<polygon fill="none" stroke="black" points="322,-360 322,-379 336,-379 336,-360 322,-360"/>
<text text-anchor="start" x="327" y="-367.6" font-family="Times,serif" font-size="8.00">2</text>
<polygon fill="none" stroke="black" points="336,-360 336,-379 350,-379 350,-360 336,-360"/>
<text text-anchor="start" x="341" y="-367.6" font-family="Times,serif" font-size="8.00">3</text>
<polygon fill="none" stroke="black" points="350,-360 350,-379 364,-379 364,-360 350,-360"/>
<text text-anchor="start" x="355" y="-367.6" font-family="Times,serif" font-size="8.00">4</text>
<polygon fill="none" stroke="black" points="364,-360 364,-379 374,-379 374,-360 364,-360"/>
<polygon fill="none" stroke="black" points="374,-360 374,-379 384,-379 384,-360 374,-360"/>
</g>
<!-- FIREWALL&#45;&#45;SPINE1 -->
<g id="edge1" class="edge">
<title>FIREWALL:4&#45;&#45;SPINE1:5</title>
<path fill="none" stroke="black" d="M272.47,-526.4C286.49,-503.06 323.62,-441.26 337.58,-418.02"/>
</g>
<!-- SPINE2 -->
<g id="node3" class="node">
<title>SPINE2</title>
<polygon fill="none" stroke="black" points="160,-399 160,-418 170,-418 170,-399 160,-399"/>
<polygon fill="none" stroke="black" points="170,-399 170,-418 184,-418 184,-399 170,-399"/>
<polygon fill="none" stroke="black" points="184,-399 184,-418 198,-418 198,-399 184,-399"/>
<polygon fill="none" stroke="black" points="198,-399 198,-418 212,-418 212,-399 198,-399"/>
<text text-anchor="start" x="203" y="-406.6" font-family="Times,serif" font-size="8.00">5</text>
<polygon fill="none" stroke="black" points="212,-399 212,-418 226,-418 226,-399 212,-399"/>
<polygon fill="none" stroke="black" points="226,-399 226,-418 236,-418 236,-399 226,-399"/>
<polygon fill="none" stroke="black" points="236,-399 236,-418 246,-418 246,-399 236,-399"/>
<polygon fill="none" stroke="black" points="160,-389 160,-399 170,-399 170,-389 160,-389"/>
<polygon fill="none" stroke="black" points="170,-379 170,-399 236,-399 236,-379 170,-379"/>
<text text-anchor="start" x="189" y="-387.1" font-family="Times,serif" font-size="8.00">SPINE2</text>
<polygon fill="none" stroke="black" points="236,-389 236,-399 246,-399 246,-389 236,-389"/>
<polygon fill="none" stroke="black" points="160,-379 160,-389 170,-389 170,-379 160,-379"/>
<polygon fill="none" stroke="black" points="236,-379 236,-389 246,-389 246,-379 236,-379"/>
<polygon fill="none" stroke="black" points="160,-360 160,-379 170,-379 170,-360 160,-360"/>
<polygon fill="none" stroke="black" points="170,-360 170,-379 184,-379 184,-360 170,-360"/>
<text text-anchor="start" x="175" y="-367.6" font-family="Times,serif" font-size="8.00">1</text>
<polygon fill="none" stroke="black" points="184,-360 184,-379 198,-379 198,-360 184,-360"/>
<text text-anchor="start" x="189" y="-367.6" font-family="Times,serif" font-size="8.00">2</text>
<polygon fill="none" stroke="black" points="198,-360 198,-379 212,-379 212,-360 198,-360"/>
<text text-anchor="start" x="203" y="-367.6" font-family="Times,serif" font-size="8.00">3</text>
<polygon fill="none" stroke="black" points="212,-360 212,-379 226,-379 226,-360 212,-360"/>
<text text-anchor="start" x="217" y="-367.6" font-family="Times,serif" font-size="8.00">4</text>
<polygon fill="none" stroke="black" points="226,-360 226,-379 236,-379 236,-360 226,-360"/>
<polygon fill="none" stroke="black" points="236,-360 236,-379 246,-379 246,-360 236,-360"/>
</g>
<!-- FIREWALL&#45;&#45;SPINE2 -->
<g id="edge2" class="edge">
<title>FIREWALL:6&#45;&#45;SPINE2:5</title>
<path fill="none" stroke="black" d="M275.53,-526.4C261.51,-503.06 224.38,-441.26 210.42,-418.02"/>
</g>
<!-- LEAF1 -->
<g id="node4" class="node">
<title>LEAF1</title>
<polygon fill="none" stroke="black" points="40,-232 40,-251 50,-251 50,-232 40,-232"/>
<polygon fill="none" stroke="black" points="50,-232 50,-251 60,-251 60,-232 50,-232"/>
<polygon fill="none" stroke="black" points="60,-232 60,-251 70,-251 70,-232 60,-232"/>
<polygon fill="none" stroke="black" points="70,-232 70,-251 84,-251 84,-232 70,-232"/>
<text text-anchor="start" x="75" y="-239.6" font-family="Times,serif" font-size="8.00">2</text>
<polygon fill="none" stroke="black" points="84,-232 84,-251 98,-251 98,-232 84,-232"/>
<text text-anchor="start" x="89" y="-239.6" font-family="Times,serif" font-size="8.00">1</text>
<polygon fill="none" stroke="black" points="98,-232 98,-251 108,-251 108,-232 98,-232"/>
<polygon fill="none" stroke="black" points="108,-232 108,-251 118,-251 118,-232 108,-232"/>
<polygon fill="none" stroke="black" points="40,-222 40,-232 50,-232 50,-222 40,-222"/>
<polygon fill="none" stroke="black" points="50,-212 50,-232 108,-232 108,-212 50,-212"/>
<text text-anchor="start" x="66.5" y="-220.1" font-family="Times,serif" font-size="8.00">LEAF1</text>
<polygon fill="none" stroke="black" points="108,-222 108,-232 118,-232 118,-222 108,-222"/>
<polygon fill="none" stroke="black" points="40,-212 40,-222 50,-222 50,-212 40,-212"/>
<polygon fill="none" stroke="black" points="108,-212 108,-222 118,-222 118,-212 108,-212"/>
<polygon fill="none" stroke="black" points="40,-193 40,-212 50,-212 50,-193 40,-193"/>
<polygon fill="none" stroke="black" points="50,-193 50,-212 60,-212 60,-193 50,-193"/>
<polygon fill="none" stroke="black" points="60,-193 60,-212 70,-212 70,-193 60,-193"/>
<polygon fill="none" stroke="black" points="70,-193 70,-212 84,-212 84,-193 70,-193"/>
<text text-anchor="start" x="75" y="-200.6" font-family="Times,serif" font-size="8.00">3</text>
<polygon fill="none" stroke="black" points="84,-193 84,-212 98,-212 98,-193 84,-193"/>
<polygon fill="none" stroke="black" points="98,-193 98,-212 108,-212 108,-193 98,-193"/>
<polygon fill="none" stroke="black" points="108,-193 108,-212 118,-212 118,-193 108,-193"/>
</g>
<!-- SPINE1&#45;&#45;LEAF1 -->
<g id="edge9" class="edge">
<title>SPINE1:1&#45;&#45;LEAF1:1</title>
<path fill="none" stroke="black" d="M307.55,-364.77C273.39,-345.41 132,-265.24 98.25,-246.11"/>
</g>
<!-- LEAF2 -->
<g id="node5" class="node">
<title>LEAF2</title>
<polygon fill="none" stroke="black" points="170,-232 170,-251 180,-251 180,-232 170,-232"/>
<polygon fill="none" stroke="black" points="180,-232 180,-251 190,-251 190,-232 180,-232"/>
<polygon fill="none" stroke="black" points="190,-232 190,-251 200,-251 200,-232 190,-232"/>
<polygon fill="none" stroke="black" points="200,-232 200,-251 214,-251 214,-232 200,-232"/>
<text text-anchor="start" x="205" y="-239.6" font-family="Times,serif" font-size="8.00">2</text>
<polygon fill="none" stroke="black" points="214,-232 214,-251 228,-251 228,-232 214,-232"/>
<text text-anchor="start" x="219" y="-239.6" font-family="Times,serif" font-size="8.00">1</text>
<polygon fill="none" stroke="black" points="228,-232 228,-251 238,-251 238,-232 228,-232"/>
<polygon fill="none" stroke="black" points="238,-232 238,-251 248,-251 248,-232 238,-232"/>
<polygon fill="none" stroke="black" points="170,-222 170,-232 180,-232 180,-222 170,-222"/>
<polygon fill="none" stroke="black" points="180,-212 180,-232 238,-232 238,-212 180,-212"/>
<text text-anchor="start" x="196.5" y="-220.1" font-family="Times,serif" font-size="8.00">LEAF2</text>
<polygon fill="none" stroke="black" points="238,-222 238,-232 248,-232 248,-222 238,-222"/>
<polygon fill="none" stroke="black" points="170,-212 170,-222 180,-222 180,-212 170,-212"/>
<polygon fill="none" stroke="black" points="238,-212 238,-222 248,-222 248,-212 238,-212"/>
<polygon fill="none" stroke="black" points="170,-193 170,-212 180,-212 180,-193 170,-193"/>
<polygon fill="none" stroke="black" points="180,-193 180,-212 190,-212 190,-193 180,-193"/>
<polygon fill="none" stroke="black" points="190,-193 190,-212 200,-212 200,-193 190,-193"/>
<polygon fill="none" stroke="black" points="200,-193 200,-212 214,-212 214,-193 200,-193"/>
<text text-anchor="start" x="205" y="-200.6" font-family="Times,serif" font-size="8.00">3</text>
<polygon fill="none" stroke="black" points="214,-193 214,-212 228,-212 228,-193 214,-193"/>
<polygon fill="none" stroke="black" points="228,-193 228,-212 238,-212 238,-193 228,-193"/>
<polygon fill="none" stroke="black" points="238,-193 238,-212 248,-212 248,-193 238,-193"/>
</g>
<!-- SPINE1&#45;&#45;LEAF2 -->
<g id="edge10" class="edge">
<title>SPINE1:2&#45;&#45;LEAF2:1</title>
<path fill="none" stroke="black" d="M321.91,-360.67C302.39,-337.71 247.97,-273.72 228.25,-250.53"/>
</g>
<!-- LEAF3 -->
<g id="node8" class="node">
<title>LEAF3</title>
<polygon fill="none" stroke="black" points="288,-232 288,-251 298,-251 298,-232 288,-232"/>
<polygon fill="none" stroke="black" points="298,-232 298,-251 308,-251 308,-232 298,-232"/>
<polygon fill="none" stroke="black" points="308,-232 308,-251 318,-251 318,-232 308,-232"/>
<polygon fill="none" stroke="black" points="318,-232 318,-251 332,-251 332,-232 318,-232"/>
<text text-anchor="start" x="323" y="-239.6" font-family="Times,serif" font-size="8.00">2</text>
<polygon fill="none" stroke="black" points="332,-232 332,-251 346,-251 346,-232 332,-232"/>
<text text-anchor="start" x="337" y="-239.6" font-family="Times,serif" font-size="8.00">1</text>
<polygon fill="none" stroke="black" points="346,-232 346,-251 356,-251 356,-232 346,-232"/>
<polygon fill="none" stroke="black" points="356,-232 356,-251 366,-251 366,-232 356,-232"/>
<polygon fill="none" stroke="black" points="288,-222 288,-232 298,-232 298,-222 288,-222"/>
<polygon fill="none" stroke="black" points="298,-212 298,-232 356,-232 356,-212 298,-212"/>
<text text-anchor="start" x="314.5" y="-220.1" font-family="Times,serif" font-size="8.00">LEAF3</text>
<polygon fill="none" stroke="black" points="356,-222 356,-232 366,-232 366,-222 356,-222"/>
<polygon fill="none" stroke="black" points="288,-212 288,-222 298,-222 298,-212 288,-212"/>
<polygon fill="none" stroke="black" points="356,-212 356,-222 366,-222 366,-212 356,-212"/>
<polygon fill="none" stroke="black" points="288,-193 288,-212 298,-212 298,-193 288,-193"/>
<polygon fill="none" stroke="black" points="298,-193 298,-212 308,-212 308,-193 298,-193"/>
<polygon fill="none" stroke="black" points="308,-193 308,-212 318,-212 318,-193 308,-193"/>
<polygon fill="none" stroke="black" points="318,-193 318,-212 332,-212 332,-193 318,-193"/>
<text text-anchor="start" x="323" y="-200.6" font-family="Times,serif" font-size="8.00">3</text>
<polygon fill="none" stroke="black" points="332,-193 332,-212 346,-212 346,-193 332,-193"/>
<polygon fill="none" stroke="black" points="346,-193 346,-212 356,-212 356,-193 346,-193"/>
<polygon fill="none" stroke="black" points="356,-193 356,-212 366,-212 366,-193 356,-193"/>
</g>
<!-- SPINE1&#45;&#45;LEAF3 -->
<g id="edge11" class="edge">
<title>SPINE1:3&#45;&#45;LEAF3:1</title>
<path fill="none" stroke="black" d="M342.71,-359.87C341.97,-336.43 340.02,-274.39 339.29,-251.05"/>
</g>
<!-- LEAF4 -->
<g id="node9" class="node">
<title>LEAF4</title>
<polygon fill="none" stroke="black" points="418,-232 418,-251 428,-251 428,-232 418,-232"/>
<polygon fill="none" stroke="black" points="428,-232 428,-251 438,-251 438,-232 428,-232"/>
<polygon fill="none" stroke="black" points="438,-232 438,-251 448,-251 448,-232 438,-232"/>
<polygon fill="none" stroke="black" points="448,-232 448,-251 462,-251 462,-232 448,-232"/>
<text text-anchor="start" x="453" y="-239.6" font-family="Times,serif" font-size="8.00">2</text>
<polygon fill="none" stroke="black" points="462,-232 462,-251 476,-251 476,-232 462,-232"/>
<text text-anchor="start" x="467" y="-239.6" font-family="Times,serif" font-size="8.00">1</text>
<polygon fill="none" stroke="black" points="476,-232 476,-251 486,-251 486,-232 476,-232"/>
<polygon fill="none" stroke="black" points="486,-232 486,-251 496,-251 496,-232 486,-232"/>
<polygon fill="none" stroke="black" points="418,-222 418,-232 428,-232 428,-222 418,-222"/>
<polygon fill="none" stroke="black" points="428,-212 428,-232 486,-232 486,-212 428,-212"/>
<text text-anchor="start" x="444.5" y="-220.1" font-family="Times,serif" font-size="8.00">LEAF4</text>
<polygon fill="none" stroke="black" points="486,-222 486,-232 496,-232 496,-222 486,-222"/>
<polygon fill="none" stroke="black" points="418,-212 418,-222 428,-222 428,-212 418,-212"/>
<polygon fill="none" stroke="black" points="486,-212 486,-222 496,-222 496,-212 486,-212"/>
<polygon fill="none" stroke="black" points="418,-193 418,-212 428,-212 428,-193 418,-193"/>
<polygon fill="none" stroke="black" points="428,-193 428,-212 438,-212 438,-193 428,-193"/>
<polygon fill="none" stroke="black" points="438,-193 438,-212 448,-212 448,-193 438,-193"/>
<polygon fill="none" stroke="black" points="448,-193 448,-212 462,-212 462,-193 448,-193"/>
<text text-anchor="start" x="453" y="-200.6" font-family="Times,serif" font-size="8.00">3</text>
<polygon fill="none" stroke="black" points="462,-193 462,-212 476,-212 476,-193 462,-193"/>
<polygon fill="none" stroke="black" points="476,-193 476,-212 486,-212 486,-193 476,-193"/>
<polygon fill="none" stroke="black" points="486,-193 486,-212 496,-212 496,-193 486,-193"/>
</g>
<!-- SPINE1&#45;&#45;LEAF4 -->
<g id="edge12" class="edge">
<title>SPINE1:4&#45;&#45;LEAF4:1</title>
<path fill="none" stroke="black" d="M364.01,-361.06C384.12,-338.25 441.89,-272.75 462,-249.94"/>
</g>
<!-- SPINE2&#45;&#45;SPINE1 -->
<g id="edge3" class="edge">
<title>SPINE2:47&#45;&#45;SPINE1:47</title>
<path fill="none" stroke="black" d="M254.21,-365.9C266.08,-363.7 277.94,-363.7 289.81,-365.9"/>
</g>
<!-- SPINE2&#45;&#45;SPINE1 -->
<g id="edge4" class="edge">
<title>SPINE2:48&#45;&#45;SPINE1:48</title>
<path fill="none" stroke="black" d="M254.21,-412.1C266.08,-414.3 277.94,-414.3 289.81,-412.1"/>
</g>
<!-- SPINE2&#45;&#45;LEAF1 -->
<g id="edge5" class="edge">
<title>SPINE2:1&#45;&#45;LEAF1:2</title>
<path fill="none" stroke="black" d="M169.81,-359.87C151.36,-336.43 102.51,-274.39 84.13,-251.05"/>
</g>
<!-- SPINE2&#45;&#45;LEAF2 -->
<g id="edge6" class="edge">
<title>SPINE2:2&#45;&#45;LEAF2:2</title>
<path fill="none" stroke="black" d="M192.15,-359.87C195.1,-336.43 202.92,-274.39 205.86,-251.05"/>
</g>
<!-- SPINE2&#45;&#45;LEAF3 -->
<g id="edge7" class="edge">
<title>SPINE2:3&#45;&#45;LEAF3:2</title>
<path fill="none" stroke="black" d="M212.15,-361.44C233.44,-338.9 296.3,-272.38 317.74,-249.69"/>
</g>
<!-- SPINE2&#45;&#45;LEAF4 -->
<g id="edge8" class="edge">
<title>SPINE2:4&#45;&#45;LEAF4:2</title>
<path fill="none" stroke="black" d="M226.06,-365.2C260.73,-346.54 412.61,-264.81 447.73,-245.91"/>
</g>
<!-- LEAF1&#45;&#45;LEAF2 -->
<g id="edge13" class="edge">
<title>LEAF1:47&#45;&#45;LEAF2:47</title>
<path fill="none" stroke="black" d="M126.23,-199.1C138.08,-196.63 149.94,-196.63 161.79,-199.1"/>
</g>
<!-- LEAF1&#45;&#45;LEAF2 -->
<g id="edge14" class="edge">
<title>LEAF1:48&#45;&#45;LEAF2:48</title>
<path fill="none" stroke="black" d="M126.23,-244.9C138.08,-247.37 149.94,-247.37 161.79,-244.9"/>
</g>
<!-- HostA -->
<g id="node6" class="node">
<title>HostA</title>
<polygon fill="none" stroke="black" points="57,-74 57,-84 67,-84 67,-74 57,-74"/>
<polygon fill="none" stroke="black" points="67,-74 67,-84 77,-84 77,-74 67,-74"/>
<polygon fill="none" stroke="black" points="77,-74 77,-84 87,-84 87,-74 77,-74"/>
<polygon fill="none" stroke="black" points="87,-74 87,-84 97,-84 97,-74 87,-74"/>
<polygon fill="none" stroke="black" points="97,-74 97,-84 107,-84 107,-74 97,-74"/>
<polygon fill="none" stroke="black" points="107,-74 107,-84 117,-84 117,-74 107,-74"/>
<polygon fill="none" stroke="black" points="117,-74 117,-84 127,-84 127,-74 117,-74"/>
<polygon fill="none" stroke="black" points="57,-64 57,-74 67,-74 67,-64 57,-64"/>
<polygon fill="none" stroke="black" points="67,-54 67,-74 117,-74 117,-54 67,-54"/>
<text text-anchor="start" x="81" y="-62.1" font-family="Times,serif" font-size="8.00">HostA</text>
<polygon fill="none" stroke="black" points="117,-64 117,-74 127,-74 127,-64 117,-64"/>
<polygon fill="none" stroke="black" points="57,-54 57,-64 67,-64 67,-54 57,-54"/>
<polygon fill="none" stroke="black" points="117,-54 117,-64 127,-64 127,-54 117,-54"/>
<polygon fill="none" stroke="black" points="57,-44 57,-54 67,-54 67,-44 57,-44"/>
<polygon fill="none" stroke="black" points="67,-44 67,-54 77,-54 77,-44 67,-44"/>
<polygon fill="none" stroke="black" points="77,-44 77,-54 87,-54 87,-44 77,-44"/>
<polygon fill="none" stroke="black" points="87,-44 87,-54 97,-54 97,-44 87,-44"/>
<polygon fill="none" stroke="black" points="97,-44 97,-54 107,-54 107,-44 97,-44"/>
<polygon fill="none" stroke="black" points="107,-44 107,-54 117,-54 117,-44 107,-44"/>
<polygon fill="none" stroke="black" points="117,-44 117,-54 127,-54 127,-44 117,-44"/>
</g>
<!-- LEAF1&#45;&#45;HostA -->
<g id="edge15" class="edge">
<title>LEAF1:3&#45;&#45;HostA</title>
<path fill="none" stroke="black" d="M77.98,-192.95C80.27,-171.96 85.98,-119.41 89.36,-88.25"/>
</g>
<!-- HostB -->
<g id="node7" class="node">
<title>HostB</title>
<polygon fill="none" stroke="black" points="161,-74 161,-84 171,-84 171,-74 161,-74"/>
<polygon fill="none" stroke="black" points="171,-74 171,-84 181,-84 181,-74 171,-74"/>
<polygon fill="none" stroke="black" points="181,-74 181,-84 191,-84 191,-74 181,-74"/>
<polygon fill="none" stroke="black" points="191,-74 191,-84 201,-84 201,-74 191,-74"/>
<polygon fill="none" stroke="black" points="201,-74 201,-84 211,-84 211,-74 201,-74"/>
<polygon fill="none" stroke="black" points="211,-74 211,-84 221,-84 221,-74 211,-74"/>
<polygon fill="none" stroke="black" points="221,-74 221,-84 231,-84 231,-74 221,-74"/>
<polygon fill="none" stroke="black" points="161,-64 161,-74 171,-74 171,-64 161,-64"/>
<polygon fill="none" stroke="black" points="171,-54 171,-74 221,-74 221,-54 171,-54"/>
<text text-anchor="start" x="185.5" y="-62.1" font-family="Times,serif" font-size="8.00">HostB</text>
<polygon fill="none" stroke="black" points="221,-64 221,-74 231,-74 231,-64 221,-64"/>
<polygon fill="none" stroke="black" points="161,-54 161,-64 171,-64 171,-54 161,-54"/>
<polygon fill="none" stroke="black" points="221,-54 221,-64 231,-64 231,-54 221,-54"/>
<polygon fill="none" stroke="black" points="161,-44 161,-54 171,-54 171,-44 161,-44"/>
<polygon fill="none" stroke="black" points="171,-44 171,-54 181,-54 181,-44 171,-44"/>
<polygon fill="none" stroke="black" points="181,-44 181,-54 191,-54 191,-44 181,-44"/>
<polygon fill="none" stroke="black" points="191,-44 191,-54 201,-54 201,-44 191,-44"/>
<polygon fill="none" stroke="black" points="201,-44 201,-54 211,-54 211,-44 201,-44"/>
<polygon fill="none" stroke="black" points="211,-44 211,-54 221,-54 221,-44 211,-44"/>
<polygon fill="none" stroke="black" points="221,-44 221,-54 231,-54 231,-44 221,-44"/>
</g>
<!-- LEAF2&#45;&#45;HostB -->
<g id="edge16" class="edge">
<title>LEAF2:3&#45;&#45;HostB</title>
<path fill="none" stroke="black" d="M206.28,-192.95C204.61,-171.96 200.42,-119.41 197.93,-88.25"/>
</g>
<!-- LEAF3&#45;&#45;LEAF4 -->
<g id="edge17" class="edge">
<title>LEAF3:47&#45;&#45;LEAF4:47</title>
<path fill="none" stroke="black" d="M374.23,-199.1C386.08,-196.63 397.94,-196.63 409.79,-199.1"/>
</g>
<!-- LEAF3&#45;&#45;LEAF4 -->
<g id="edge18" class="edge">
<title>LEAF3:48&#45;&#45;LEAF4:48</title>
<path fill="none" stroke="black" d="M374.23,-244.9C386.08,-247.37 397.94,-247.37 409.79,-244.9"/>
</g>
<!-- HostC -->
<g id="node10" class="node">
<title>HostC</title>
<polygon fill="none" stroke="black" points="305,-74 305,-84 315,-84 315,-74 305,-74"/>
<polygon fill="none" stroke="black" points="315,-74 315,-84 325,-84 325,-74 315,-74"/>
<polygon fill="none" stroke="black" points="325,-74 325,-84 335,-84 335,-74 325,-74"/>
<polygon fill="none" stroke="black" points="335,-74 335,-84 345,-84 345,-74 335,-74"/>
<polygon fill="none" stroke="black" points="345,-74 345,-84 355,-84 355,-74 345,-74"/>
<polygon fill="none" stroke="black" points="355,-74 355,-84 365,-84 365,-74 355,-74"/>
<polygon fill="none" stroke="black" points="365,-74 365,-84 375,-84 375,-74 365,-74"/>
<polygon fill="none" stroke="black" points="305,-64 305,-74 315,-74 315,-64 305,-64"/>
<polygon fill="none" stroke="black" points="315,-54 315,-74 365,-74 365,-54 315,-54"/>
<text text-anchor="start" x="329.5" y="-62.1" font-family="Times,serif" font-size="8.00">HostC</text>
<polygon fill="none" stroke="black" points="365,-64 365,-74 375,-74 375,-64 365,-64"/>
<polygon fill="none" stroke="black" points="305,-54 305,-64 315,-64 315,-54 305,-54"/>
<polygon fill="none" stroke="black" points="365,-54 365,-64 375,-64 375,-54 365,-54"/>
<polygon fill="none" stroke="black" points="305,-44 305,-54 315,-54 315,-44 305,-44"/>
<polygon fill="none" stroke="black" points="315,-44 315,-54 325,-54 325,-44 315,-44"/>
<polygon fill="none" stroke="black" points="325,-44 325,-54 335,-54 335,-44 325,-44"/>
<polygon fill="none" stroke="black" points="335,-44 335,-54 345,-54 345,-44 335,-44"/>
<polygon fill="none" stroke="black" points="345,-44 345,-54 355,-54 355,-44 345,-44"/>
<polygon fill="none" stroke="black" points="355,-44 355,-54 365,-54 365,-44 355,-44"/>
<polygon fill="none" stroke="black" points="365,-44 365,-54 375,-54 375,-44 365,-44"/>
</g>
<!-- LEAF3&#45;&#45;HostC -->
<g id="edge19" class="edge">
<title>LEAF3:3&#45;&#45;HostC</title>
<path fill="none" stroke="black" d="M325.98,-192.95C328.27,-171.96 333.98,-119.41 337.36,-88.25"/>
</g>
<!-- Host2 -->
<g id="node11" class="node">
<title>Host2</title>
<polygon fill="none" stroke="black" points="409,-74 409,-84 419,-84 419,-74 409,-74"/>
<polygon fill="none" stroke="black" points="419,-74 419,-84 429,-84 429,-74 419,-74"/>
<polygon fill="none" stroke="black" points="429,-74 429,-84 439,-84 439,-74 429,-74"/>
<polygon fill="none" stroke="black" points="439,-74 439,-84 449,-84 449,-74 439,-74"/>
<polygon fill="none" stroke="black" points="449,-74 449,-84 459,-84 459,-74 449,-74"/>
<polygon fill="none" stroke="black" points="459,-74 459,-84 469,-84 469,-74 459,-74"/>
<polygon fill="none" stroke="black" points="469,-74 469,-84 479,-84 479,-74 469,-74"/>
<polygon fill="none" stroke="black" points="409,-64 409,-74 419,-74 419,-64 409,-64"/>
<polygon fill="none" stroke="black" points="419,-54 419,-74 469,-74 469,-54 419,-54"/>
<text text-anchor="start" x="434.5" y="-62.1" font-family="Times,serif" font-size="8.00">Host2</text>
<polygon fill="none" stroke="black" points="469,-64 469,-74 479,-74 479,-64 469,-64"/>
<polygon fill="none" stroke="black" points="409,-54 409,-64 419,-64 419,-54 409,-54"/>
<polygon fill="none" stroke="black" points="469,-54 469,-64 479,-64 479,-54 469,-54"/>
<polygon fill="none" stroke="black" points="409,-44 409,-54 419,-54 419,-44 409,-44"/>
<polygon fill="none" stroke="black" points="419,-44 419,-54 429,-54 429,-44 419,-44"/>
<polygon fill="none" stroke="black" points="429,-44 429,-54 439,-54 439,-44 429,-44"/>
<polygon fill="none" stroke="black" points="439,-44 439,-54 449,-54 449,-44 439,-44"/>
<polygon fill="none" stroke="black" points="449,-44 449,-54 459,-54 459,-44 449,-44"/>
<polygon fill="none" stroke="black" points="459,-44 459,-54 469,-54 469,-44 459,-44"/>
<polygon fill="none" stroke="black" points="469,-44 469,-54 479,-54 479,-44 469,-44"/>
</g>
<!-- LEAF4&#45;&#45;Host2 -->
<g id="edge20" class="edge">
<title>LEAF4:3&#45;&#45;Host2</title>
<path fill="none" stroke="black" d="M454.28,-192.95C452.61,-171.96 448.42,-119.41 445.93,-88.25"/>
</g>
</g>
</svg>
