<?xml version="1.0" encoding="UTF-8" standalone="no"?>
<!DOCTYPE svg PUBLIC "-//W3C//DTD SVG 1.1//EN"
 "http://www.w3.org/Graphics/SVG/1.1/DTD/svg11.dtd">
<!-- Generated by graphviz version 6.0.1 (20220911.1526)
 -->
<!-- Title: parent Pages: 1 -->
<svg width="570pt" height="703pt"
 viewBox="0.00 0.00 570.00 703.00" xmlns="http://www.w3.org/2000/svg" xmlns:xlink="http://www.w3.org/1999/xlink">
<g id="graph0" class="graph" transform="scale(1 1) rotate(0) translate(4 699)">
<title>parent</title>
<polygon fill="white" stroke="none" points="-4,4 -4,-699 566,-699 566,4 -4,4"/>
<g id="clust1" class="cluster">
<title>cluster_child_fabric_name</title>
<polygon fill="none" stroke="black" points="8,-8 8,-687 554,-687 554,-8 8,-8"/>
<text text-anchor="middle" x="281" y="-671.8" font-family="Times,serif" font-size="14.00">fabric_name</text>
</g>
<g id="clust3" class="cluster">
<title>cluster_child_dc_name1</title>
<polygon fill="none" stroke="black" points="16,-16 16,-525 546,-525 546,-16 16,-16"/>
<text text-anchor="middle" x="281" y="-509.8" font-family="Times,serif" font-size="14.00">dc_name1</text>
</g>
<g id="clust5" class="cluster">
<title>cluster_child_pod_name1</title>
<polygon fill="none" stroke="black" points="24,-24 24,-323 277,-323 277,-24 24,-24"/>
<text text-anchor="middle" x="150.5" y="-307.8" font-family="Times,serif" font-size="14.00">pod_name1</text>
</g>
<g id="clust7" class="cluster">
<title>cluster_child_pod_name1.5</title>
<polygon fill="none" stroke="black" points="58,-32 58,-121 243,-121 243,-32 58,-32"/>
<text text-anchor="middle" x="150.5" y="-105.8" font-family="Times,serif" font-size="14.00">pod_name1.5</text>
</g>
<g id="clust9" class="cluster">
<title>cluster_child_pod_name2</title>
<polygon fill="none" stroke="black" points="285,-24 285,-323 538,-323 538,-24 285,-24"/>
<text text-anchor="middle" x="411.5" y="-307.8" font-family="Times,serif" font-size="14.00">pod_name2</text>
</g>
<g id="clust11" class="cluster">
<title>cluster_child_pod_name2.5</title>
<polygon fill="none" stroke="black" points="319,-32 319,-121 504,-121 504,-32 319,-32"/>
<text text-anchor="middle" x="411.5" y="-105.8" font-family="Times,serif" font-size="14.00">pod_name2.5</text>
</g>
<!-- FIREWALL -->
<g id="node1" class="node">
<title>FIREWALL</title>
<text text-anchor="start" x="253" y="-641.1" font-family="Times,serif" font-size="8.00"> </text>
<polygon fill="#4a69bd" stroke="none" points="260,-617.5 260,-651.5 315,-651.5 315,-617.5 260,-617.5"/>
<polygon fill="none" stroke="black" points="260,-617.5 260,-651.5 315,-651.5 315,-617.5 260,-617.5"/>
<text text-anchor="start" x="265" y="-633.6" font-family="Times,serif" font-size="8.00"> </text>
<text text-anchor="start" x="268" y="-633.6" font-family="Times,serif" font-size="8.00" fill="#ffffff">FIREWALL</text>
<text text-anchor="start" x="253" y="-624.1" font-family="Times,serif" font-size="8.00"> </text>
<polygon fill="none" stroke="black" points="278,-598.5 278,-617.5 292,-617.5 292,-598.5 278,-598.5"/>
<text text-anchor="start" x="283" y="-606.1" font-family="Times,serif" font-size="8.00">4</text>
<polygon fill="none" stroke="black" points="292,-598.5 292,-617.5 306,-617.5 306,-598.5 292,-598.5"/>
<text text-anchor="start" x="297" y="-606.1" font-family="Times,serif" font-size="8.00">6</text>
</g>
<!-- SPINE1 -->
<g id="node2" class="node">
<title>SPINE1</title>
<polygon fill="none" stroke="black" points="205,-470.5 205,-489.5 219,-489.5 219,-470.5 205,-470.5"/>
<text text-anchor="start" x="210" y="-478.1" font-family="Times,serif" font-size="8.00">5</text>
<text text-anchor="start" x="168" y="-459.1" font-family="Times,serif" font-size="8.00"> &#160;</text>
<polygon fill="#4a69bd" stroke="none" points="177,-415.5 177,-470.5 241,-470.5 241,-415.5 177,-415.5"/>
<polygon fill="none" stroke="black" points="177,-415.5 177,-470.5 241,-470.5 241,-415.5 177,-415.5"/>
<text text-anchor="start" x="193.5" y="-442.1" font-family="Times,serif" font-size="8.00"> </text>
<text text-anchor="start" x="196.5" y="-442.1" font-family="Times,serif" font-size="8.00" fill="#ffffff">SPINE1</text>
<polygon fill="none" stroke="black" points="241,-451.5 241,-470.5 261,-470.5 261,-451.5 241,-451.5"/>
<text text-anchor="start" x="247" y="-459.1" font-family="Times,serif" font-size="8.00">47</text>
<text text-anchor="start" x="169" y="-441.1" font-family="Times,serif" font-size="8.00"> </text>
<polygon fill="none" stroke="black" points="241,-415.5 241,-434.5 261,-434.5 261,-415.5 241,-415.5"/>
<text text-anchor="start" x="246" y="-423.1" font-family="Times,serif" font-size="8.00"> 48</text>
<polygon fill="none" stroke="black" points="177,-396.5 177,-415.5 191,-415.5 191,-396.5 177,-396.5"/>
<text text-anchor="start" x="182" y="-404.1" font-family="Times,serif" font-size="8.00">1</text>
<polygon fill="none" stroke="black" points="191,-396.5 191,-415.5 205,-415.5 205,-396.5 191,-396.5"/>
<text text-anchor="start" x="196" y="-404.1" font-family="Times,serif" font-size="8.00">2</text>
<polygon fill="none" stroke="black" points="205,-396.5 205,-415.5 219,-415.5 219,-396.5 205,-396.5"/>
<text text-anchor="start" x="210" y="-404.1" font-family="Times,serif" font-size="8.00">3</text>
<polygon fill="none" stroke="black" points="219,-396.5 219,-415.5 233,-415.5 233,-396.5 219,-396.5"/>
<text text-anchor="start" x="224" y="-404.1" font-family="Times,serif" font-size="8.00">4</text>
</g>
<!-- FIREWALL&#45;&#45;SPINE1 -->
<g id="edge1" class="edge">
<title>FIREWALL:4&#45;&#45;SPINE1:5</title>
<path fill="none" stroke="black" d="M279.75,-598.37C266.28,-574.93 230.62,-512.89 217.2,-489.55"/>
</g>
<!-- SPINE2 -->
<g id="node3" class="node">
<title>SPINE2</title>
<polygon fill="none" stroke="black" points="364,-470.5 364,-489.5 378,-489.5 378,-470.5 364,-470.5"/>
<text text-anchor="start" x="369" y="-478.1" font-family="Times,serif" font-size="8.00">5</text>
<polygon fill="none" stroke="black" points="313,-451.5 313,-470.5 336,-470.5 336,-451.5 313,-451.5"/>
<text text-anchor="start" x="318" y="-459.1" font-family="Times,serif" font-size="8.00"> 47 </text>
<polygon fill="#4a69bd" stroke="none" points="336,-415.5 336,-470.5 400,-470.5 400,-415.5 336,-415.5"/>
<polygon fill="none" stroke="black" points="336,-415.5 336,-470.5 400,-470.5 400,-415.5 336,-415.5"/>
<text text-anchor="start" x="352.5" y="-442.1" font-family="Times,serif" font-size="8.00"> </text>
<text text-anchor="start" x="355.5" y="-442.1" font-family="Times,serif" font-size="8.00" fill="#ffffff">SPINE2</text>
<text text-anchor="start" x="323" y="-441.1" font-family="Times,serif" font-size="8.00"> </text>
<polygon fill="none" stroke="black" points="313,-415.5 313,-434.5 336,-434.5 336,-415.5 313,-415.5"/>
<text text-anchor="start" x="319.5" y="-423.1" font-family="Times,serif" font-size="8.00"> 48</text>
<polygon fill="none" stroke="black" points="336,-396.5 336,-415.5 350,-415.5 350,-396.5 336,-396.5"/>
<text text-anchor="start" x="341" y="-404.1" font-family="Times,serif" font-size="8.00">1</text>
<polygon fill="none" stroke="black" points="350,-396.5 350,-415.5 364,-415.5 364,-396.5 350,-396.5"/>
<text text-anchor="start" x="355" y="-404.1" font-family="Times,serif" font-size="8.00">2</text>
<polygon fill="none" stroke="black" points="364,-396.5 364,-415.5 378,-415.5 378,-396.5 364,-396.5"/>
<text text-anchor="start" x="369" y="-404.1" font-family="Times,serif" font-size="8.00">3</text>
<polygon fill="none" stroke="black" points="378,-396.5 378,-415.5 392,-415.5 392,-396.5 378,-396.5"/>
<text text-anchor="start" x="383" y="-404.1" font-family="Times,serif" font-size="8.00">4</text>
</g>
<!-- FIREWALL&#45;&#45;SPINE2 -->
<g id="edge2" class="edge">
<title>FIREWALL:6&#45;&#45;SPINE2:5</title>
<path fill="none" stroke="black" d="M304.18,-598.37C317.46,-574.93 352.64,-512.89 365.87,-489.55"/>
</g>
<!-- LEAF1 -->
<g id="node4" class="node">
<title>LEAF1</title>
<polygon fill="none" stroke="black" points="70,-268.5 70,-287.5 84,-287.5 84,-268.5 70,-268.5"/>
<text text-anchor="start" x="75" y="-276.1" font-family="Times,serif" font-size="8.00">1</text>
<polygon fill="none" stroke="black" points="84,-268.5 84,-287.5 98,-287.5 98,-268.5 84,-268.5"/>
<text text-anchor="start" x="89" y="-276.1" font-family="Times,serif" font-size="8.00">2</text>
<text text-anchor="start" x="45" y="-257.1" font-family="Times,serif" font-size="8.00"> &#160;</text>
<polygon fill="#4a69bd" stroke="none" points="54,-213.5 54,-268.5 106,-268.5 106,-213.5 54,-213.5"/>
<polygon fill="none" stroke="black" points="54,-213.5 54,-268.5 106,-268.5 106,-213.5 54,-213.5"/>
<text text-anchor="start" x="66" y="-240.1" font-family="Times,serif" font-size="8.00"> </text>
<text text-anchor="start" x="69" y="-240.1" font-family="Times,serif" font-size="8.00" fill="#ffffff">LEAF1</text>
<polygon fill="none" stroke="black" points="106,-249.5 106,-268.5 126,-268.5 126,-249.5 106,-249.5"/>
<text text-anchor="start" x="112" y="-257.1" font-family="Times,serif" font-size="8.00">47</text>
<text text-anchor="start" x="46" y="-239.1" font-family="Times,serif" font-size="8.00"> </text>
<polygon fill="none" stroke="black" points="106,-213.5 106,-232.5 126,-232.5 126,-213.5 106,-213.5"/>
<text text-anchor="start" x="111" y="-221.1" font-family="Times,serif" font-size="8.00"> 48</text>
<polygon fill="none" stroke="black" points="70,-194.5 70,-213.5 84,-213.5 84,-194.5 70,-194.5"/>
<text text-anchor="start" x="75" y="-202.1" font-family="Times,serif" font-size="8.00">3</text>
</g>
<!-- SPINE1&#45;&#45;LEAF1 -->
<g id="edge9" class="edge">
<title>SPINE1:1&#45;&#45;LEAF1:1</title>
<path fill="none" stroke="black" d="M176.98,-397.17C157.64,-374.21 103.72,-310.22 84.19,-287.03"/>
</g>
<!-- LEAF2 -->
<g id="node5" class="node">
<title>LEAF2</title>
<polygon fill="none" stroke="black" points="217,-268.5 217,-287.5 231,-287.5 231,-268.5 217,-268.5"/>
<text text-anchor="start" x="222" y="-276.1" font-family="Times,serif" font-size="8.00">1</text>
<polygon fill="none" stroke="black" points="231,-268.5 231,-287.5 245,-287.5 245,-268.5 231,-268.5"/>
<text text-anchor="start" x="236" y="-276.1" font-family="Times,serif" font-size="8.00">2</text>
<polygon fill="none" stroke="black" points="178,-249.5 178,-268.5 201,-268.5 201,-249.5 178,-249.5"/>
<text text-anchor="start" x="183" y="-257.1" font-family="Times,serif" font-size="8.00"> 47 </text>
<polygon fill="#4a69bd" stroke="none" points="201,-213.5 201,-268.5 253,-268.5 253,-213.5 201,-213.5"/>
<polygon fill="none" stroke="black" points="201,-213.5 201,-268.5 253,-268.5 253,-213.5 201,-213.5"/>
<text text-anchor="start" x="213" y="-240.1" font-family="Times,serif" font-size="8.00"> </text>
<text text-anchor="start" x="216" y="-240.1" font-family="Times,serif" font-size="8.00" fill="#ffffff">LEAF2</text>
<text text-anchor="start" x="188" y="-239.1" font-family="Times,serif" font-size="8.00"> </text>
<polygon fill="none" stroke="black" points="178,-213.5 178,-232.5 201,-232.5 201,-213.5 178,-213.5"/>
<text text-anchor="start" x="184.5" y="-221.1" font-family="Times,serif" font-size="8.00"> 48</text>
<polygon fill="none" stroke="black" points="217,-194.5 217,-213.5 231,-213.5 231,-194.5 217,-194.5"/>
<text text-anchor="start" x="222" y="-202.1" font-family="Times,serif" font-size="8.00">3</text>
</g>
<!-- SPINE1&#45;&#45;LEAF2 -->
<g id="edge10" class="edge">
<title>SPINE1:2&#45;&#45;LEAF2:1</title>
<path fill="none" stroke="black" d="M199.87,-396.37C204.67,-372.93 217.37,-310.89 222.15,-287.55"/>
</g>
<!-- LEAF3 -->
<g id="node8" class="node">
<title>LEAF3</title>
<polygon fill="none" stroke="black" points="331,-268.5 331,-287.5 345,-287.5 345,-268.5 331,-268.5"/>
<text text-anchor="start" x="336" y="-276.1" font-family="Times,serif" font-size="8.00">1</text>
<polygon fill="none" stroke="black" points="345,-268.5 345,-287.5 359,-287.5 359,-268.5 345,-268.5"/>
<text text-anchor="start" x="350" y="-276.1" font-family="Times,serif" font-size="8.00">2</text>
<text text-anchor="start" x="306" y="-257.1" font-family="Times,serif" font-size="8.00"> &#160;</text>
<polygon fill="#4a69bd" stroke="none" points="315,-213.5 315,-268.5 367,-268.5 367,-213.5 315,-213.5"/>
<polygon fill="none" stroke="black" points="315,-213.5 315,-268.5 367,-268.5 367,-213.5 315,-213.5"/>
<text text-anchor="start" x="327" y="-240.1" font-family="Times,serif" font-size="8.00"> </text>
<text text-anchor="start" x="330" y="-240.1" font-family="Times,serif" font-size="8.00" fill="#ffffff">LEAF3</text>
<polygon fill="none" stroke="black" points="367,-249.5 367,-268.5 387,-268.5 387,-249.5 367,-249.5"/>
<text text-anchor="start" x="373" y="-257.1" font-family="Times,serif" font-size="8.00">47</text>
<text text-anchor="start" x="307" y="-239.1" font-family="Times,serif" font-size="8.00"> </text>
<polygon fill="none" stroke="black" points="367,-213.5 367,-232.5 387,-232.5 387,-213.5 367,-213.5"/>
<text text-anchor="start" x="372" y="-221.1" font-family="Times,serif" font-size="8.00"> 48</text>
<polygon fill="none" stroke="black" points="331,-194.5 331,-213.5 345,-213.5 345,-194.5 331,-194.5"/>
<text text-anchor="start" x="336" y="-202.1" font-family="Times,serif" font-size="8.00">3</text>
</g>
<!-- SPINE1&#45;&#45;LEAF3 -->
<g id="edge11" class="edge">
<title>SPINE1:3&#45;&#45;LEAF3:1</title>
<path fill="none" stroke="black" d="M219.14,-398.31C241.31,-375.95 308.87,-307.86 330.94,-285.61"/>
</g>
<!-- LEAF4 -->
<g id="node9" class="node">
<title>LEAF4</title>
<polygon fill="none" stroke="black" points="478,-268.5 478,-287.5 492,-287.5 492,-268.5 478,-268.5"/>
<text text-anchor="start" x="483" y="-276.1" font-family="Times,serif" font-size="8.00">1</text>
<polygon fill="none" stroke="black" points="492,-268.5 492,-287.5 506,-287.5 506,-268.5 492,-268.5"/>
<text text-anchor="start" x="497" y="-276.1" font-family="Times,serif" font-size="8.00">2</text>
<polygon fill="none" stroke="black" points="439,-249.5 439,-268.5 462,-268.5 462,-249.5 439,-249.5"/>
<text text-anchor="start" x="444" y="-257.1" font-family="Times,serif" font-size="8.00"> 47 </text>
<polygon fill="#4a69bd" stroke="none" points="462,-213.5 462,-268.5 514,-268.5 514,-213.5 462,-213.5"/>
<polygon fill="none" stroke="black" points="462,-213.5 462,-268.5 514,-268.5 514,-213.5 462,-213.5"/>
<text text-anchor="start" x="474" y="-240.1" font-family="Times,serif" font-size="8.00"> </text>
<text text-anchor="start" x="477" y="-240.1" font-family="Times,serif" font-size="8.00" fill="#ffffff">LEAF4</text>
<text text-anchor="start" x="449" y="-239.1" font-family="Times,serif" font-size="8.00"> </text>
<polygon fill="none" stroke="black" points="439,-213.5 439,-232.5 462,-232.5 462,-213.5 439,-213.5"/>
<text text-anchor="start" x="445.5" y="-221.1" font-family="Times,serif" font-size="8.00"> 48</text>
<polygon fill="none" stroke="black" points="478,-194.5 478,-213.5 492,-213.5 492,-194.5 478,-194.5"/>
<text text-anchor="start" x="483" y="-202.1" font-family="Times,serif" font-size="8.00">3</text>
</g>
<!-- SPINE1&#45;&#45;LEAF4 -->
<g id="edge12" class="edge">
<title>SPINE1:4&#45;&#45;LEAF4:1</title>
<path fill="none" stroke="black" d="M233.2,-401.97C270.45,-383.7 441.08,-300.04 477.96,-281.95"/>
</g>
<!-- SPINE2&#45;&#45;SPINE1 -->
<g id="edge3" class="edge">
<title>SPINE2:47&#45;&#45;SPINE1:47</title>
<path fill="none" stroke="black" d="M312,-461.5C312,-461.5 262,-461.5 262,-461.5"/>
</g>
<!-- SPINE2&#45;&#45;SPINE1 -->
<g id="edge4" class="edge">
<title>SPINE2:48&#45;&#45;SPINE1:48</title>
<path fill="none" stroke="black" d="M312,-424.5C312,-424.5 262,-424.5 262,-424.5"/>
</g>
<!-- SPINE2&#45;&#45;LEAF1 -->
<g id="edge5" class="edge">
<title>SPINE2:1&#45;&#45;LEAF1:2</title>
<path fill="none" stroke="black" d="M336,-401.97C299.91,-383.78 135.19,-300.77 98.33,-282.19"/>
</g>
<!-- SPINE2&#45;&#45;LEAF2 -->
<g id="edge6" class="edge">
<title>SPINE2:2&#45;&#45;LEAF2:2</title>
<path fill="none" stroke="black" d="M349.91,-397.94C328.8,-375.4 266.46,-308.88 245.2,-286.19"/>
</g>
<!-- SPINE2&#45;&#45;LEAF3 -->
<g id="edge7" class="edge">
<title>SPINE2:3&#45;&#45;LEAF3:2</title>
<path fill="none" stroke="black" d="M369.63,-396.37C366.13,-372.93 356.85,-310.89 353.35,-287.55"/>
</g>
<!-- SPINE2&#45;&#45;LEAF4 -->
<g id="edge8" class="edge">
<title>SPINE2:4&#45;&#45;LEAF4:2</title>
<path fill="none" stroke="black" d="M392.13,-397.56C412.6,-374.75 471.4,-309.25 491.87,-286.44"/>
</g>
<!-- LEAF1&#45;&#45;LEAF2 -->
<g id="edge13" class="edge">
<title>LEAF1:47&#45;&#45;LEAF2:47</title>
<path fill="none" stroke="black" d="M127,-259.5C127,-259.5 177,-259.5 177,-259.5"/>
</g>
<!-- LEAF1&#45;&#45;LEAF2 -->
<g id="edge14" class="edge">
<title>LEAF1:48&#45;&#45;LEAF2:48</title>
<path fill="none" stroke="black" d="M127,-222.5C127,-222.5 177,-222.5 177,-222.5"/>
</g>
<!-- HostA -->
<g id="node6" class="node">
<title>HostA</title>
<text text-anchor="start" x="79" y="-75.6" font-family="Times,serif" font-size="8.00"> </text>
<polygon fill="#4a69bd" stroke="none" points="86,-52 86,-86 126,-86 126,-52 86,-52"/>
<polygon fill="none" stroke="black" points="86,-52 86,-86 126,-86 126,-52 86,-52"/>
<text text-anchor="start" x="93.5" y="-68.1" font-family="Times,serif" font-size="8.00"> </text>
<text text-anchor="start" x="96.5" y="-68.1" font-family="Times,serif" font-size="8.00" fill="#ffffff">HostA</text>
<text text-anchor="start" x="79" y="-58.6" font-family="Times,serif" font-size="8.00"> </text>
</g>
<!-- LEAF1&#45;&#45;HostA -->
<g id="edge15" class="edge">
<title>LEAF1:3&#45;&#45;HostA</title>
<path fill="none" stroke="black" d="M78.77,-194.41C82.84,-173.53 92.98,-121.51 99.1,-90.15"/>
</g>
<!-- HostB -->
<g id="node7" class="node">
<title>HostB</title>
<text text-anchor="start" x="172" y="-75.6" font-family="Times,serif" font-size="8.00"> </text>
<polygon fill="#4a69bd" stroke="none" points="179,-52 179,-86 219,-86 219,-52 179,-52"/>
<polygon fill="none" stroke="black" points="179,-52 179,-86 219,-86 219,-52 179,-52"/>
<text text-anchor="start" x="187" y="-68.1" font-family="Times,serif" font-size="8.00"> </text>
<text text-anchor="start" x="190" y="-68.1" font-family="Times,serif" font-size="8.00" fill="#ffffff">HostB</text>
<text text-anchor="start" x="172" y="-58.6" font-family="Times,serif" font-size="8.00"> </text>
</g>
<!-- LEAF2&#45;&#45;HostB -->
<g id="edge16" class="edge">
<title>LEAF2:3&#45;&#45;HostB</title>
<path fill="none" stroke="black" d="M222.23,-194.41C218.16,-173.53 208.02,-121.51 201.9,-90.15"/>
</g>
<!-- LEAF3&#45;&#45;LEAF4 -->
<g id="edge17" class="edge">
<title>LEAF3:47&#45;&#45;LEAF4:47</title>
<path fill="none" stroke="black" d="M388,-259.5C388,-259.5 438,-259.5 438,-259.5"/>
</g>
<!-- LEAF3&#45;&#45;LEAF4 -->
<g id="edge18" class="edge">
<title>LEAF3:48&#45;&#45;LEAF4:48</title>
<path fill="none" stroke="black" d="M388,-222.5C388,-222.5 438,-222.5 438,-222.5"/>
</g>
<!-- HostC -->
<g id="node10" class="node">
<title>HostC</title>
<text text-anchor="start" x="340" y="-75.6" font-family="Times,serif" font-size="8.00"> </text>
<polygon fill="#4a69bd" stroke="none" points="347,-52 347,-86 387,-86 387,-52 347,-52"/>
<polygon fill="none" stroke="black" points="347,-52 347,-86 387,-86 387,-52 347,-52"/>
<text text-anchor="start" x="355" y="-68.1" font-family="Times,serif" font-size="8.00"> </text>
<text text-anchor="start" x="358" y="-68.1" font-family="Times,serif" font-size="8.00" fill="#ffffff">HostC</text>
<text text-anchor="start" x="340" y="-58.6" font-family="Times,serif" font-size="8.00"> </text>
</g>
<!-- LEAF3&#45;&#45;HostC -->
<g id="edge19" class="edge">
<title>LEAF3:3&#45;&#45;HostC</title>
<path fill="none" stroke="black" d="M339.77,-194.41C343.84,-173.53 353.98,-121.51 360.1,-90.15"/>
</g>
<!-- Host2 -->
<g id="node11" class="node">
<title>Host2</title>
<text text-anchor="start" x="433" y="-75.6" font-family="Times,serif" font-size="8.00"> </text>
<polygon fill="#4a69bd" stroke="none" points="440,-52 440,-86 480,-86 480,-52 440,-52"/>
<polygon fill="none" stroke="black" points="440,-52 440,-86 480,-86 480,-52 440,-52"/>
<text text-anchor="start" x="449" y="-68.1" font-family="Times,serif" font-size="8.00"> </text>
<text text-anchor="start" x="452" y="-68.1" font-family="Times,serif" font-size="8.00" fill="#ffffff">Host2</text>
<text text-anchor="start" x="433" y="-58.6" font-family="Times,serif" font-size="8.00"> </text>
</g>
<!-- LEAF4&#45;&#45;Host2 -->
<g id="edge20" class="edge">
<title>LEAF4:3&#45;&#45;Host2</title>
<path fill="none" stroke="black" d="M483.23,-194.41C479.16,-173.53 469.02,-121.51 462.9,-90.15"/>
</g>
</g>
</svg>
