<?xml version="1.0" encoding="UTF-8" standalone="no"?>
<!DOCTYPE svg PUBLIC "-//W3C//DTD SVG 1.1//EN"
 "http://www.w3.org/Graphics/SVG/1.1/DTD/svg11.dtd">
<!-- Generated by graphviz version 7.1.0 (20230121.1956)
 -->
<!-- Title: parent Pages: 1 -->
<svg width="861pt" height="784pt"
 viewBox="0.00 0.00 860.50 784.00" xmlns="http://www.w3.org/2000/svg" xmlns:xlink="http://www.w3.org/1999/xlink">
<g id="graph0" class="graph" transform="scale(1 1) rotate(0) translate(4 780)">
<title>parent</title>
<polygon fill="white" stroke="none" points="-4,4 -4,-780 856.5,-780 856.5,4 -4,4"/>
<g id="clust1" class="cluster">
<title>cluster_child_TWODC_5STAGE_CLOS</title>
<polygon fill="none" stroke="black" points="0,0 0,-776 852.5,-776 852.5,0 0,0"/>
<text text-anchor="middle" x="426.25" y="-760.8" font-family="Times,serif" font-size="14.00">TWODC_5STAGE_CLOS</text>
</g>
<!-- DC1&#45;SUPER&#45;SPINE1 -->
<g id="node1" class="node">
<title>DC1&#45;SUPER&#45;SPINE1</title>
<polygon fill="#4a69bd" stroke="none" points="26.5,-672 26.5,-752 113.5,-752 113.5,-672 26.5,-672"/>
<polygon fill="none" stroke="black" points="26.5,-672 26.5,-752 113.5,-752 113.5,-672 26.5,-672"/>
<text text-anchor="start" x="31.5" y="-711.1" font-family="Times,serif" font-size="8.00"> </text>
<text text-anchor="start" x="34.5" y="-711.1" font-family="Times,serif" font-size="8.00" fill="#ffffff">DC1&#45;SUPER&#45;SPINE1</text>
<text text-anchor="start" x="119" y="-740.1" font-family="Times,serif" font-size="8.00"> </text>
<polygon fill="none" stroke="black" points="113.5,-712 113.5,-732 127.5,-732 127.5,-712 113.5,-712"/>
<text text-anchor="start" x="118.5" y="-720.1" font-family="Times,serif" font-size="8.00">6</text>
<polygon fill="none" stroke="black" points="26.5,-652 26.5,-672 48.5,-672 48.5,-652 26.5,-652"/>
<text text-anchor="start" x="35.5" y="-660.1" font-family="Times,serif" font-size="8.00">1</text>
<polygon fill="none" stroke="black" points="48.5,-652 48.5,-672 66.5,-672 66.5,-652 48.5,-652"/>
<text text-anchor="start" x="55.5" y="-660.1" font-family="Times,serif" font-size="8.00">2</text>
<polygon fill="none" stroke="black" points="66.5,-652 66.5,-672 82.5,-672 82.5,-652 66.5,-652"/>
<text text-anchor="start" x="72.5" y="-660.1" font-family="Times,serif" font-size="8.00">3</text>
<polygon fill="none" stroke="black" points="82.5,-652 82.5,-672 97.5,-672 97.5,-652 82.5,-652"/>
<text text-anchor="start" x="88" y="-660.1" font-family="Times,serif" font-size="8.00">4</text>
</g>
<!-- DC1&#45;POD2&#45;SPINE1 -->
<g id="node3" class="node">
<title>DC1&#45;POD2&#45;SPINE1</title>
<polygon fill="none" stroke="black" points="65.5,-536 65.5,-556 80.5,-556 80.5,-536 65.5,-536"/>
<text text-anchor="start" x="71" y="-544.1" font-family="Times,serif" font-size="8.00">1</text>
<polygon fill="none" stroke="black" points="80.5,-536 80.5,-556 95.5,-556 95.5,-536 80.5,-536"/>
<text text-anchor="start" x="86" y="-544.1" font-family="Times,serif" font-size="8.00">2</text>
<polygon fill="#4a69bd" stroke="none" points="28.5,-456 28.5,-536 110.5,-536 110.5,-456 28.5,-456"/>
<polygon fill="none" stroke="black" points="28.5,-456 28.5,-536 110.5,-536 110.5,-456 28.5,-456"/>
<text text-anchor="start" x="33.5" y="-495.1" font-family="Times,serif" font-size="8.00"> </text>
<text text-anchor="start" x="36.5" y="-495.1" font-family="Times,serif" font-size="8.00" fill="#ffffff">DC1&#45;POD2&#45;SPINE1</text>
<text text-anchor="start" x="116" y="-524.1" font-family="Times,serif" font-size="8.00"> </text>
<polygon fill="none" stroke="black" points="110.5,-496 110.5,-516 124.5,-516 124.5,-496 110.5,-496"/>
<text text-anchor="start" x="115.5" y="-504.1" font-family="Times,serif" font-size="8.00">5</text>
<polygon fill="none" stroke="black" points="65.5,-436 65.5,-456 80.5,-456 80.5,-436 65.5,-436"/>
<text text-anchor="start" x="71" y="-444.1" font-family="Times,serif" font-size="8.00">3</text>
</g>
<!-- DC1&#45;SUPER&#45;SPINE1&#45;&#45;DC1&#45;POD2&#45;SPINE1 -->
<g id="edge3" class="edge">
<title>DC1&#45;SUPER&#45;SPINE1:3&#45;&#45;DC1&#45;POD2&#45;SPINE1:1</title>
<path fill="none" stroke="black" d="M74.5,-652C74.5,-652 73.5,-556 73.5,-556"/>
</g>
<!-- DC1&#45;POD2&#45;SPINE2 -->
<g id="node4" class="node">
<title>DC1&#45;POD2&#45;SPINE2</title>
<polygon fill="none" stroke="black" points="209.5,-536 209.5,-556 224.5,-556 224.5,-536 209.5,-536"/>
<text text-anchor="start" x="215" y="-544.1" font-family="Times,serif" font-size="8.00">1</text>
<polygon fill="none" stroke="black" points="224.5,-536 224.5,-556 239.5,-556 239.5,-536 224.5,-536"/>
<text text-anchor="start" x="230" y="-544.1" font-family="Times,serif" font-size="8.00">2</text>
<polygon fill="#4a69bd" stroke="none" points="172.5,-456 172.5,-536 254.5,-536 254.5,-456 172.5,-456"/>
<polygon fill="none" stroke="black" points="172.5,-456 172.5,-536 254.5,-536 254.5,-456 172.5,-456"/>
<text text-anchor="start" x="177.5" y="-495.1" font-family="Times,serif" font-size="8.00"> </text>
<text text-anchor="start" x="180.5" y="-495.1" font-family="Times,serif" font-size="8.00" fill="#ffffff">DC1&#45;POD2&#45;SPINE2</text>
<text text-anchor="start" x="260" y="-524.1" font-family="Times,serif" font-size="8.00"> </text>
<polygon fill="none" stroke="black" points="254.5,-496 254.5,-516 268.5,-516 268.5,-496 254.5,-496"/>
<text text-anchor="start" x="259.5" y="-504.1" font-family="Times,serif" font-size="8.00">4</text>
<polygon fill="none" stroke="black" points="209.5,-436 209.5,-456 224.5,-456 224.5,-436 209.5,-436"/>
<text text-anchor="start" x="215" y="-444.1" font-family="Times,serif" font-size="8.00">3</text>
</g>
<!-- DC1&#45;SUPER&#45;SPINE1&#45;&#45;DC1&#45;POD2&#45;SPINE2 -->
<g id="edge4" class="edge">
<title>DC1&#45;SUPER&#45;SPINE1:4&#45;&#45;DC1&#45;POD2&#45;SPINE2:1</title>
<path fill="none" stroke="black" d="M90.5,-652C90.5,-652 217.5,-556 217.5,-556"/>
</g>
<!-- DC1&#45;POD1&#45;SPINE1 -->
<g id="node6" class="node">
<title>DC1&#45;POD1&#45;SPINE1</title>
<polygon fill="none" stroke="black" points="353.5,-536 353.5,-556 368.5,-556 368.5,-536 353.5,-536"/>
<text text-anchor="start" x="359" y="-544.1" font-family="Times,serif" font-size="8.00">1</text>
<polygon fill="none" stroke="black" points="368.5,-536 368.5,-556 383.5,-556 383.5,-536 368.5,-536"/>
<text text-anchor="start" x="374" y="-544.1" font-family="Times,serif" font-size="8.00">2</text>
<polygon fill="#4a69bd" stroke="none" points="316.5,-456 316.5,-536 398.5,-536 398.5,-456 316.5,-456"/>
<polygon fill="none" stroke="black" points="316.5,-456 316.5,-536 398.5,-536 398.5,-456 316.5,-456"/>
<text text-anchor="start" x="321.5" y="-495.1" font-family="Times,serif" font-size="8.00"> </text>
<text text-anchor="start" x="324.5" y="-495.1" font-family="Times,serif" font-size="8.00" fill="#ffffff">DC1&#45;POD1&#45;SPINE1</text>
<polygon fill="none" stroke="black" points="336.5,-436 336.5,-456 353.5,-456 353.5,-436 336.5,-436"/>
<text text-anchor="start" x="343" y="-444.1" font-family="Times,serif" font-size="8.00">3</text>
<polygon fill="none" stroke="black" points="353.5,-436 353.5,-456 368.5,-456 368.5,-436 353.5,-436"/>
<text text-anchor="start" x="359" y="-444.1" font-family="Times,serif" font-size="8.00">5</text>
<polygon fill="none" stroke="black" points="368.5,-436 368.5,-456 383.5,-456 383.5,-436 368.5,-436"/>
<text text-anchor="start" x="374" y="-444.1" font-family="Times,serif" font-size="8.00">8</text>
</g>
<!-- DC1&#45;SUPER&#45;SPINE1&#45;&#45;DC1&#45;POD1&#45;SPINE1 -->
<g id="edge1" class="edge">
<title>DC1&#45;SUPER&#45;SPINE1:1&#45;&#45;DC1&#45;POD1&#45;SPINE1:1</title>
<path fill="none" stroke="black" d="M37.5,-652C37.5,-652 361.5,-556 361.5,-556"/>
</g>
<!-- DC1&#45;POD1&#45;SPINE2 -->
<g id="node7" class="node">
<title>DC1&#45;POD1&#45;SPINE2</title>
<polygon fill="none" stroke="black" points="497.5,-536 497.5,-556 512.5,-556 512.5,-536 497.5,-536"/>
<text text-anchor="start" x="503" y="-544.1" font-family="Times,serif" font-size="8.00">1</text>
<polygon fill="none" stroke="black" points="512.5,-536 512.5,-556 527.5,-556 527.5,-536 512.5,-536"/>
<text text-anchor="start" x="518" y="-544.1" font-family="Times,serif" font-size="8.00">2</text>
<polygon fill="#4a69bd" stroke="none" points="460.5,-456 460.5,-536 542.5,-536 542.5,-456 460.5,-456"/>
<polygon fill="none" stroke="black" points="460.5,-456 460.5,-536 542.5,-536 542.5,-456 460.5,-456"/>
<text text-anchor="start" x="465.5" y="-495.1" font-family="Times,serif" font-size="8.00"> </text>
<text text-anchor="start" x="468.5" y="-495.1" font-family="Times,serif" font-size="8.00" fill="#ffffff">DC1&#45;POD1&#45;SPINE2</text>
<polygon fill="none" stroke="black" points="480.5,-436 480.5,-456 497.5,-456 497.5,-436 480.5,-436"/>
<text text-anchor="start" x="487" y="-444.1" font-family="Times,serif" font-size="8.00">3</text>
<polygon fill="none" stroke="black" points="497.5,-436 497.5,-456 512.5,-456 512.5,-436 497.5,-436"/>
<text text-anchor="start" x="503" y="-444.1" font-family="Times,serif" font-size="8.00">5</text>
<polygon fill="none" stroke="black" points="512.5,-436 512.5,-456 527.5,-456 527.5,-436 512.5,-436"/>
<text text-anchor="start" x="518" y="-444.1" font-family="Times,serif" font-size="8.00">8</text>
</g>
<!-- DC1&#45;SUPER&#45;SPINE1&#45;&#45;DC1&#45;POD1&#45;SPINE2 -->
<g id="edge2" class="edge">
<title>DC1&#45;SUPER&#45;SPINE1:2&#45;&#45;DC1&#45;POD1&#45;SPINE2:1</title>
<path fill="none" stroke="black" d="M57.5,-652C57.5,-652 505.5,-556 505.5,-556"/>
</g>
<!-- DC2&#45;SUPER&#45;SPINE1 -->
<g id="node13" class="node">
<title>DC2&#45;SUPER&#45;SPINE1</title>
<polygon fill="#4a69bd" stroke="none" points="314.5,-672 314.5,-752 401.5,-752 401.5,-672 314.5,-672"/>
<polygon fill="none" stroke="black" points="314.5,-672 314.5,-752 401.5,-752 401.5,-672 314.5,-672"/>
<text text-anchor="start" x="319.5" y="-711.1" font-family="Times,serif" font-size="8.00"> </text>
<text text-anchor="start" x="322.5" y="-711.1" font-family="Times,serif" font-size="8.00" fill="#ffffff">DC2&#45;SUPER&#45;SPINE1</text>
<text text-anchor="start" x="407" y="-740.1" font-family="Times,serif" font-size="8.00"> </text>
<polygon fill="none" stroke="black" points="300.5,-712 300.5,-732 314.5,-732 314.5,-712 300.5,-712"/>
<text text-anchor="start" x="305.5" y="-720.1" font-family="Times,serif" font-size="8.00">4</text>
<polygon fill="none" stroke="black" points="354.5,-652 354.5,-672 370.5,-672 370.5,-652 354.5,-652"/>
<text text-anchor="start" x="360.5" y="-660.1" font-family="Times,serif" font-size="8.00">1</text>
<polygon fill="none" stroke="black" points="370.5,-652 370.5,-672 385.5,-672 385.5,-652 370.5,-652"/>
<text text-anchor="start" x="376" y="-660.1" font-family="Times,serif" font-size="8.00">2</text>
</g>
<!-- DC1&#45;SUPER&#45;SPINE1&#45;&#45;DC2&#45;SUPER&#45;SPINE1 -->
<g id="edge5" class="edge">
<title>DC1&#45;SUPER&#45;SPINE1:6&#45;&#45;DC2&#45;SUPER&#45;SPINE1:4</title>
<path fill="none" stroke="black" d="M127.5,-722C127.5,-722 300.5,-722 300.5,-722"/>
</g>
<!-- DC1&#45;SUPER&#45;SPINE2 -->
<g id="node2" class="node">
<title>DC1&#45;SUPER&#45;SPINE2</title>
<polygon fill="#4a69bd" stroke="none" points="170.5,-672 170.5,-752 257.5,-752 257.5,-672 170.5,-672"/>
<polygon fill="none" stroke="black" points="170.5,-672 170.5,-752 257.5,-752 257.5,-672 170.5,-672"/>
<text text-anchor="start" x="175.5" y="-711.1" font-family="Times,serif" font-size="8.00"> </text>
<text text-anchor="start" x="178.5" y="-711.1" font-family="Times,serif" font-size="8.00" fill="#ffffff">DC1&#45;SUPER&#45;SPINE2</text>
<text text-anchor="start" x="263" y="-740.1" font-family="Times,serif" font-size="8.00"> </text>
<polygon fill="none" stroke="black" points="257.5,-712 257.5,-732 271.5,-732 271.5,-712 257.5,-712"/>
<text text-anchor="start" x="262.5" y="-720.1" font-family="Times,serif" font-size="8.00">6</text>
<polygon fill="none" stroke="black" points="170.5,-652 170.5,-672 192.5,-672 192.5,-652 170.5,-652"/>
<text text-anchor="start" x="179.5" y="-660.1" font-family="Times,serif" font-size="8.00">1</text>
<polygon fill="none" stroke="black" points="192.5,-652 192.5,-672 210.5,-672 210.5,-652 192.5,-652"/>
<text text-anchor="start" x="199.5" y="-660.1" font-family="Times,serif" font-size="8.00">2</text>
<polygon fill="none" stroke="black" points="210.5,-652 210.5,-672 226.5,-672 226.5,-652 210.5,-652"/>
<text text-anchor="start" x="216.5" y="-660.1" font-family="Times,serif" font-size="8.00">3</text>
<polygon fill="none" stroke="black" points="226.5,-652 226.5,-672 241.5,-672 241.5,-652 226.5,-652"/>
<text text-anchor="start" x="232" y="-660.1" font-family="Times,serif" font-size="8.00">4</text>
</g>
<!-- DC1&#45;SUPER&#45;SPINE2&#45;&#45;DC1&#45;POD2&#45;SPINE1 -->
<g id="edge8" class="edge">
<title>DC1&#45;SUPER&#45;SPINE2:3&#45;&#45;DC1&#45;POD2&#45;SPINE1:2</title>
<path fill="none" stroke="black" d="M218.5,-652C218.5,-652 88.5,-556 88.5,-556"/>
</g>
<!-- DC1&#45;SUPER&#45;SPINE2&#45;&#45;DC1&#45;POD2&#45;SPINE2 -->
<g id="edge9" class="edge">
<title>DC1&#45;SUPER&#45;SPINE2:4&#45;&#45;DC1&#45;POD2&#45;SPINE2:2</title>
<path fill="none" stroke="black" d="M234.5,-652C234.5,-652 232.5,-556 232.5,-556"/>
</g>
<!-- DC1&#45;SUPER&#45;SPINE2&#45;&#45;DC1&#45;POD1&#45;SPINE1 -->
<g id="edge6" class="edge">
<title>DC1&#45;SUPER&#45;SPINE2:1&#45;&#45;DC1&#45;POD1&#45;SPINE1:2</title>
<path fill="none" stroke="black" d="M181.5,-652C181.5,-652 376.5,-556 376.5,-556"/>
</g>
<!-- DC1&#45;SUPER&#45;SPINE2&#45;&#45;DC1&#45;POD1&#45;SPINE2 -->
<g id="edge7" class="edge">
<title>DC1&#45;SUPER&#45;SPINE2:2&#45;&#45;DC1&#45;POD1&#45;SPINE2:2</title>
<path fill="none" stroke="black" d="M201.5,-652C201.5,-652 520.5,-556 520.5,-556"/>
</g>
<!-- DC2&#45;SUPER&#45;SPINE2 -->
<g id="node14" class="node">
<title>DC2&#45;SUPER&#45;SPINE2</title>
<polygon fill="#4a69bd" stroke="none" points="458.5,-672 458.5,-752 545.5,-752 545.5,-672 458.5,-672"/>
<polygon fill="none" stroke="black" points="458.5,-672 458.5,-752 545.5,-752 545.5,-672 458.5,-672"/>
<text text-anchor="start" x="463.5" y="-711.1" font-family="Times,serif" font-size="8.00"> </text>
<text text-anchor="start" x="466.5" y="-711.1" font-family="Times,serif" font-size="8.00" fill="#ffffff">DC2&#45;SUPER&#45;SPINE2</text>
<text text-anchor="start" x="551" y="-740.1" font-family="Times,serif" font-size="8.00"> </text>
<polygon fill="none" stroke="black" points="444.5,-712 444.5,-732 458.5,-732 458.5,-712 444.5,-712"/>
<text text-anchor="start" x="449.5" y="-720.1" font-family="Times,serif" font-size="8.00">4</text>
<polygon fill="none" stroke="black" points="498.5,-652 498.5,-672 514.5,-672 514.5,-652 498.5,-652"/>
<text text-anchor="start" x="504.5" y="-660.1" font-family="Times,serif" font-size="8.00">1</text>
<polygon fill="none" stroke="black" points="514.5,-652 514.5,-672 529.5,-672 529.5,-652 514.5,-652"/>
<text text-anchor="start" x="520" y="-660.1" font-family="Times,serif" font-size="8.00">2</text>
</g>
<!-- DC1&#45;SUPER&#45;SPINE2&#45;&#45;DC2&#45;SUPER&#45;SPINE2 -->
<g id="edge10" class="edge">
<title>DC1&#45;SUPER&#45;SPINE2:6&#45;&#45;DC2&#45;SUPER&#45;SPINE2:4</title>
<path fill="none" stroke="black" d="M271.5,-722C271.5,-722 444.5,-722 444.5,-722"/>
</g>
<!-- DC1&#45;POD2&#45;LEAF1A -->
<g id="node5" class="node">
<title>DC1&#45;POD2&#45;LEAF1A</title>
<polygon fill="none" stroke="black" points="66.5,-320 66.5,-340 82.5,-340 82.5,-320 66.5,-320"/>
<text text-anchor="start" x="72.5" y="-328.1" font-family="Times,serif" font-size="8.00">1</text>
<polygon fill="none" stroke="black" points="82.5,-320 82.5,-340 97.5,-340 97.5,-320 82.5,-320"/>
<text text-anchor="start" x="88" y="-328.1" font-family="Times,serif" font-size="8.00">2</text>
<polygon fill="#4a69bd" stroke="none" points="26.5,-240 26.5,-320 112.5,-320 112.5,-240 26.5,-240"/>
<polygon fill="none" stroke="black" points="26.5,-240 26.5,-320 112.5,-320 112.5,-240 26.5,-240"/>
<text text-anchor="start" x="31.5" y="-279.1" font-family="Times,serif" font-size="8.00"> </text>
<text text-anchor="start" x="34.5" y="-279.1" font-family="Times,serif" font-size="8.00" fill="#ffffff">DC1&#45;POD2&#45;LEAF1A</text>
</g>
<!-- DC1&#45;POD2&#45;SPINE1&#45;&#45;DC1&#45;POD2&#45;LEAF1A -->
<g id="edge11" class="edge">
<title>DC1&#45;POD2&#45;SPINE1:3&#45;&#45;DC1&#45;POD2&#45;LEAF1A:1</title>
<path fill="none" stroke="black" d="M73.5,-436C73.5,-436 74.5,-340 74.5,-340"/>
</g>
<!-- DC2&#45;POD1&#45;SPINE1 -->
<g id="node15" class="node">
<title>DC2&#45;POD1&#45;SPINE1</title>
<polygon fill="none" stroke="black" points="641.5,-536 641.5,-556 656.5,-556 656.5,-536 641.5,-536"/>
<text text-anchor="start" x="647" y="-544.1" font-family="Times,serif" font-size="8.00">1</text>
<polygon fill="none" stroke="black" points="656.5,-536 656.5,-556 671.5,-556 671.5,-536 656.5,-536"/>
<text text-anchor="start" x="662" y="-544.1" font-family="Times,serif" font-size="8.00">2</text>
<polygon fill="#4a69bd" stroke="none" points="604.5,-456 604.5,-536 686.5,-536 686.5,-456 604.5,-456"/>
<polygon fill="none" stroke="black" points="604.5,-456 604.5,-536 686.5,-536 686.5,-456 604.5,-456"/>
<text text-anchor="start" x="609.5" y="-495.1" font-family="Times,serif" font-size="8.00"> </text>
<text text-anchor="start" x="612.5" y="-495.1" font-family="Times,serif" font-size="8.00" fill="#ffffff">DC2&#45;POD1&#45;SPINE1</text>
<text text-anchor="start" x="692" y="-524.1" font-family="Times,serif" font-size="8.00"> </text>
<polygon fill="none" stroke="black" points="590.5,-496 590.5,-516 604.5,-516 604.5,-496 590.5,-496"/>
<text text-anchor="start" x="595.5" y="-504.1" font-family="Times,serif" font-size="8.00">5</text>
<polygon fill="none" stroke="black" points="641.5,-436 641.5,-456 656.5,-456 656.5,-436 641.5,-436"/>
<text text-anchor="start" x="647" y="-444.1" font-family="Times,serif" font-size="8.00">3</text>
<polygon fill="none" stroke="black" points="656.5,-436 656.5,-456 671.5,-456 671.5,-436 656.5,-436"/>
<text text-anchor="start" x="662" y="-444.1" font-family="Times,serif" font-size="8.00">4</text>
</g>
<!-- DC1&#45;POD2&#45;SPINE1&#45;&#45;DC2&#45;POD1&#45;SPINE1 -->
<g id="edge12" class="edge">
<title>DC1&#45;POD2&#45;SPINE1:5&#45;&#45;DC2&#45;POD1&#45;SPINE1:5</title>
<path fill="none" stroke="black" d="M124.5,-506C124.5,-506 590.5,-506 590.5,-506"/>
</g>
<!-- DC1&#45;POD2&#45;SPINE2&#45;&#45;DC1&#45;POD2&#45;LEAF1A -->
<g id="edge13" class="edge">
<title>DC1&#45;POD2&#45;SPINE2:3&#45;&#45;DC1&#45;POD2&#45;LEAF1A:2</title>
<path fill="none" stroke="black" d="M217.5,-436C217.5,-436 90.5,-340 90.5,-340"/>
</g>
<!-- DC2&#45;POD1&#45;SPINE2 -->
<g id="node16" class="node">
<title>DC2&#45;POD1&#45;SPINE2</title>
<polygon fill="none" stroke="black" points="785.5,-536 785.5,-556 800.5,-556 800.5,-536 785.5,-536"/>
<text text-anchor="start" x="791" y="-544.1" font-family="Times,serif" font-size="8.00">1</text>
<polygon fill="none" stroke="black" points="800.5,-536 800.5,-556 815.5,-556 815.5,-536 800.5,-536"/>
<text text-anchor="start" x="806" y="-544.1" font-family="Times,serif" font-size="8.00">2</text>
<polygon fill="#4a69bd" stroke="none" points="748.5,-456 748.5,-536 830.5,-536 830.5,-456 748.5,-456"/>
<polygon fill="none" stroke="black" points="748.5,-456 748.5,-536 830.5,-536 830.5,-456 748.5,-456"/>
<text text-anchor="start" x="753.5" y="-495.1" font-family="Times,serif" font-size="8.00"> </text>
<text text-anchor="start" x="756.5" y="-495.1" font-family="Times,serif" font-size="8.00" fill="#ffffff">DC2&#45;POD1&#45;SPINE2</text>
<text text-anchor="start" x="836" y="-524.1" font-family="Times,serif" font-size="8.00"> </text>
<polygon fill="none" stroke="black" points="734.5,-496 734.5,-516 748.5,-516 748.5,-496 734.5,-496"/>
<text text-anchor="start" x="739.5" y="-504.1" font-family="Times,serif" font-size="8.00">5</text>
<polygon fill="none" stroke="black" points="785.5,-436 785.5,-456 800.5,-456 800.5,-436 785.5,-436"/>
<text text-anchor="start" x="791" y="-444.1" font-family="Times,serif" font-size="8.00">3</text>
<polygon fill="none" stroke="black" points="800.5,-436 800.5,-456 815.5,-456 815.5,-436 800.5,-436"/>
<text text-anchor="start" x="806" y="-444.1" font-family="Times,serif" font-size="8.00">4</text>
</g>
<!-- DC1&#45;POD2&#45;SPINE2&#45;&#45;DC2&#45;POD1&#45;SPINE2 -->
<g id="edge14" class="edge">
<title>DC1&#45;POD2&#45;SPINE2:4&#45;&#45;DC2&#45;POD1&#45;SPINE2:5</title>
<path fill="none" stroke="black" d="M268.5,-506C268.5,-506 734.5,-506 734.5,-506"/>
</g>
<!-- DC1&#45;POD1&#45;LEAF1A -->
<g id="node8" class="node">
<title>DC1&#45;POD1&#45;LEAF1A</title>
<polygon fill="none" stroke="black" points="210.5,-320 210.5,-340 226.5,-340 226.5,-320 210.5,-320"/>
<text text-anchor="start" x="216.5" y="-328.1" font-family="Times,serif" font-size="8.00">1</text>
<polygon fill="none" stroke="black" points="226.5,-320 226.5,-340 241.5,-340 241.5,-320 226.5,-320"/>
<text text-anchor="start" x="232" y="-328.1" font-family="Times,serif" font-size="8.00">2</text>
<polygon fill="#4a69bd" stroke="none" points="170.5,-240 170.5,-320 256.5,-320 256.5,-240 170.5,-240"/>
<polygon fill="none" stroke="black" points="170.5,-240 170.5,-320 256.5,-320 256.5,-240 170.5,-240"/>
<text text-anchor="start" x="175.5" y="-279.1" font-family="Times,serif" font-size="8.00"> </text>
<text text-anchor="start" x="178.5" y="-279.1" font-family="Times,serif" font-size="8.00" fill="#ffffff">DC1&#45;POD1&#45;LEAF1A</text>
<polygon fill="none" stroke="black" points="210.5,-220 210.5,-240 226.5,-240 226.5,-220 210.5,-220"/>
<text text-anchor="start" x="216.5" y="-228.1" font-family="Times,serif" font-size="8.00">3</text>
</g>
<!-- DC1&#45;POD1&#45;LEAF1A&#45;&#45;DC1&#45;POD1&#45;SPINE1 -->
<g id="edge25" class="edge">
<title>DC1&#45;POD1&#45;LEAF1A:1&#45;&#45;DC1&#45;POD1&#45;SPINE1:3</title>
<path fill="none" stroke="black" d="M218.5,-340C218.5,-340 344.5,-436 344.5,-436"/>
</g>
<!-- DC1&#45;POD1&#45;LEAF1A&#45;&#45;DC1&#45;POD1&#45;SPINE2 -->
<g id="edge26" class="edge">
<title>DC1&#45;POD1&#45;LEAF1A:2&#45;&#45;DC1&#45;POD1&#45;SPINE2:3</title>
<path fill="none" stroke="black" d="M234.5,-340C234.5,-340 488.5,-436 488.5,-436"/>
</g>
<!-- DC1&#45;POD1&#45;LEAF2B -->
<g id="node9" class="node">
<title>DC1&#45;POD1&#45;LEAF2B</title>
<polygon fill="none" stroke="black" points="315.5,-320 315.5,-340 332.5,-340 332.5,-320 315.5,-320"/>
<text text-anchor="start" x="322" y="-328.1" font-family="Times,serif" font-size="8.00">1</text>
<polygon fill="none" stroke="black" points="332.5,-320 332.5,-340 352.5,-340 352.5,-320 332.5,-320"/>
<text text-anchor="start" x="338.5" y="-328.1" font-family="Times,serif" font-size="8.00">11</text>
<polygon fill="none" stroke="black" points="352.5,-320 352.5,-340 371.5,-340 371.5,-320 352.5,-320"/>
<text text-anchor="start" x="358" y="-328.1" font-family="Times,serif" font-size="8.00">12</text>
<polygon fill="none" stroke="black" points="371.5,-320 371.5,-340 385.5,-340 385.5,-320 371.5,-320"/>
<text text-anchor="start" x="376.5" y="-328.1" font-family="Times,serif" font-size="8.00">2</text>
<polygon fill="#4a69bd" stroke="none" points="315.5,-240 315.5,-320 400.5,-320 400.5,-240 315.5,-240"/>
<polygon fill="none" stroke="black" points="315.5,-240 315.5,-320 400.5,-320 400.5,-240 315.5,-240"/>
<text text-anchor="start" x="320.5" y="-279.1" font-family="Times,serif" font-size="8.00"> </text>
<text text-anchor="start" x="323.5" y="-279.1" font-family="Times,serif" font-size="8.00" fill="#ffffff">DC1&#45;POD1&#45;LEAF2B</text>
<text text-anchor="start" x="406" y="-308.1" font-family="Times,serif" font-size="8.00"> </text>
<polygon fill="none" stroke="black" points="400.5,-280 400.5,-300 414.5,-300 414.5,-280 400.5,-280"/>
<text text-anchor="start" x="405.5" y="-288.1" font-family="Times,serif" font-size="8.00">7</text>
<polygon fill="none" stroke="black" points="352.5,-220 352.5,-240 371.5,-240 371.5,-220 352.5,-220"/>
<text text-anchor="start" x="360" y="-228.1" font-family="Times,serif" font-size="8.00">3</text>
<polygon fill="none" stroke="black" points="371.5,-220 371.5,-240 385.5,-240 385.5,-220 371.5,-220"/>
<text text-anchor="start" x="376.5" y="-228.1" font-family="Times,serif" font-size="8.00">4</text>
</g>
<!-- DC1&#45;POD1&#45;LEAF2B&#45;&#45;DC1&#45;POD1&#45;SPINE1 -->
<g id="edge15" class="edge">
<title>DC1&#45;POD1&#45;LEAF2B:1&#45;&#45;DC1&#45;POD1&#45;SPINE1:5</title>
<path fill="none" stroke="black" d="M323.5,-340C323.5,-340 361.5,-436 361.5,-436"/>
</g>
<!-- DC1&#45;POD1&#45;LEAF2B&#45;&#45;DC1&#45;POD1&#45;SPINE1 -->
<g id="edge19" class="edge">
<title>DC1&#45;POD1&#45;LEAF2B:11&#45;&#45;DC1&#45;POD1&#45;SPINE1:8</title>
<path fill="none" stroke="black" d="M342.5,-340C342.5,-340 376.5,-436 376.5,-436"/>
</g>
<!-- DC1&#45;POD1&#45;LEAF2B&#45;&#45;DC1&#45;POD1&#45;SPINE2 -->
<g id="edge16" class="edge">
<title>DC1&#45;POD1&#45;LEAF2B:2&#45;&#45;DC1&#45;POD1&#45;SPINE2:5</title>
<path fill="none" stroke="black" d="M378.5,-340C378.5,-340 505.5,-436 505.5,-436"/>
</g>
<!-- DC1&#45;POD1&#45;LEAF2B&#45;&#45;DC1&#45;POD1&#45;SPINE2 -->
<g id="edge20" class="edge">
<title>DC1&#45;POD1&#45;LEAF2B:12&#45;&#45;DC1&#45;POD1&#45;SPINE2:8</title>
<path fill="none" stroke="black" d="M362.5,-340C362.5,-340 520.5,-436 520.5,-436"/>
</g>
<!-- DC1&#45;POD1&#45;L2LEAF2A -->
<g id="node11" class="node">
<title>DC1&#45;POD1&#45;L2LEAF2A</title>
<polygon fill="none" stroke="black" points="212.5,-104 212.5,-124 229.5,-124 229.5,-104 212.5,-104"/>
<text text-anchor="start" x="219" y="-112.1" font-family="Times,serif" font-size="8.00">2</text>
<polygon fill="#4a69bd" stroke="none" points="166.5,-24 166.5,-104 261.5,-104 261.5,-24 166.5,-24"/>
<polygon fill="none" stroke="black" points="166.5,-24 166.5,-104 261.5,-104 261.5,-24 166.5,-24"/>
<text text-anchor="start" x="171.5" y="-63.1" font-family="Times,serif" font-size="8.00"> </text>
<text text-anchor="start" x="174.5" y="-63.1" font-family="Times,serif" font-size="8.00" fill="#ffffff">DC1&#45;POD1&#45;L2LEAF2A</text>
<text text-anchor="start" x="267" y="-92.1" font-family="Times,serif" font-size="8.00"> </text>
<polygon fill="none" stroke="black" points="261.5,-64 261.5,-84 275.5,-84 275.5,-64 261.5,-64"/>
<text text-anchor="start" x="266.5" y="-72.1" font-family="Times,serif" font-size="8.00">3</text>
<polygon fill="none" stroke="black" points="261.5,-44 261.5,-64 275.5,-64 275.5,-44 261.5,-44"/>
<text text-anchor="start" x="266.5" y="-52.1" font-family="Times,serif" font-size="8.00">4</text>
</g>
<!-- DC1&#45;POD1&#45;LEAF2B&#45;&#45;DC1&#45;POD1&#45;L2LEAF2A -->
<g id="edge17" class="edge">
<title>DC1&#45;POD1&#45;LEAF2B:3&#45;&#45;DC1&#45;POD1&#45;L2LEAF2A:2</title>
<path fill="none" stroke="black" d="M362.5,-220C362.5,-220 221.5,-124 221.5,-124"/>
</g>
<!-- DC1&#45;POD1&#45;L2LEAF2B -->
<g id="node12" class="node">
<title>DC1&#45;POD1&#45;L2LEAF2B</title>
<polygon fill="none" stroke="black" points="356.5,-104 356.5,-124 373.5,-124 373.5,-104 356.5,-104"/>
<text text-anchor="start" x="363" y="-112.1" font-family="Times,serif" font-size="8.00">2</text>
<polygon fill="#4a69bd" stroke="none" points="310.5,-24 310.5,-104 404.5,-104 404.5,-24 310.5,-24"/>
<polygon fill="none" stroke="black" points="310.5,-24 310.5,-104 404.5,-104 404.5,-24 310.5,-24"/>
<text text-anchor="start" x="315.5" y="-63.1" font-family="Times,serif" font-size="8.00"> </text>
<text text-anchor="start" x="318.5" y="-63.1" font-family="Times,serif" font-size="8.00" fill="#ffffff">DC1&#45;POD1&#45;L2LEAF2B</text>
<text text-anchor="start" x="410" y="-92.1" font-family="Times,serif" font-size="8.00"> </text>
<polygon fill="none" stroke="black" points="296.5,-64 296.5,-84 310.5,-84 310.5,-64 296.5,-64"/>
<text text-anchor="start" x="301.5" y="-72.1" font-family="Times,serif" font-size="8.00">3</text>
<polygon fill="none" stroke="black" points="296.5,-44 296.5,-64 310.5,-64 310.5,-44 296.5,-44"/>
<text text-anchor="start" x="301.5" y="-52.1" font-family="Times,serif" font-size="8.00">4</text>
</g>
<!-- DC1&#45;POD1&#45;LEAF2B&#45;&#45;DC1&#45;POD1&#45;L2LEAF2B -->
<g id="edge18" class="edge">
<title>DC1&#45;POD1&#45;LEAF2B:4&#45;&#45;DC1&#45;POD1&#45;L2LEAF2B:2</title>
<path fill="none" stroke="black" d="M378.5,-220C378.5,-220 365.5,-124 365.5,-124"/>
</g>
<!-- DC2&#45;POD1&#45;LEAF1A -->
<g id="node17" class="node">
<title>DC2&#45;POD1&#45;LEAF1A</title>
<polygon fill="none" stroke="black" points="498.5,-320 498.5,-340 514.5,-340 514.5,-320 498.5,-320"/>
<text text-anchor="start" x="504.5" y="-328.1" font-family="Times,serif" font-size="8.00">1</text>
<polygon fill="none" stroke="black" points="514.5,-320 514.5,-340 529.5,-340 529.5,-320 514.5,-320"/>
<text text-anchor="start" x="520" y="-328.1" font-family="Times,serif" font-size="8.00">2</text>
<polygon fill="#4a69bd" stroke="none" points="458.5,-240 458.5,-320 544.5,-320 544.5,-240 458.5,-240"/>
<polygon fill="none" stroke="black" points="458.5,-240 458.5,-320 544.5,-320 544.5,-240 458.5,-240"/>
<text text-anchor="start" x="463.5" y="-279.1" font-family="Times,serif" font-size="8.00"> </text>
<text text-anchor="start" x="466.5" y="-279.1" font-family="Times,serif" font-size="8.00" fill="#ffffff">DC2&#45;POD1&#45;LEAF1A</text>
<text text-anchor="start" x="550" y="-308.1" font-family="Times,serif" font-size="8.00"> </text>
<polygon fill="none" stroke="black" points="444.5,-280 444.5,-300 458.5,-300 458.5,-280 444.5,-280"/>
<text text-anchor="start" x="449.5" y="-288.1" font-family="Times,serif" font-size="8.00">7</text>
<polygon fill="none" stroke="black" points="498.5,-220 498.5,-240 514.5,-240 514.5,-220 498.5,-220"/>
<text text-anchor="start" x="504.5" y="-228.1" font-family="Times,serif" font-size="8.00">3</text>
</g>
<!-- DC1&#45;POD1&#45;LEAF2B&#45;&#45;DC2&#45;POD1&#45;LEAF1A -->
<g id="edge21" class="edge">
<title>DC1&#45;POD1&#45;LEAF2B:7&#45;&#45;DC2&#45;POD1&#45;LEAF1A:7</title>
<path fill="none" stroke="black" d="M414.5,-290C414.5,-290 444.5,-290 444.5,-290"/>
</g>
<!-- DC1&#45;POD1&#45;L2LEAF1A -->
<g id="node10" class="node">
<title>DC1&#45;POD1&#45;L2LEAF1A</title>
<polygon fill="none" stroke="black" points="68.5,-104 68.5,-124 85.5,-124 85.5,-104 68.5,-104"/>
<text text-anchor="start" x="75" y="-112.1" font-family="Times,serif" font-size="8.00">1</text>
<polygon fill="#4a69bd" stroke="none" points="22.5,-24 22.5,-104 117.5,-104 117.5,-24 22.5,-24"/>
<polygon fill="none" stroke="black" points="22.5,-24 22.5,-104 117.5,-104 117.5,-24 22.5,-24"/>
<text text-anchor="start" x="27.5" y="-63.1" font-family="Times,serif" font-size="8.00"> </text>
<text text-anchor="start" x="30.5" y="-63.1" font-family="Times,serif" font-size="8.00" fill="#ffffff">DC1&#45;POD1&#45;L2LEAF1A</text>
</g>
<!-- DC1&#45;POD1&#45;L2LEAF1A&#45;&#45;DC1&#45;POD1&#45;LEAF1A -->
<g id="edge24" class="edge">
<title>DC1&#45;POD1&#45;L2LEAF1A:1&#45;&#45;DC1&#45;POD1&#45;LEAF1A:3</title>
<path fill="none" stroke="black" d="M77.5,-124C77.5,-124 218.5,-220 218.5,-220"/>
</g>
<!-- DC1&#45;POD1&#45;L2LEAF2B&#45;&#45;DC1&#45;POD1&#45;L2LEAF2A -->
<g id="edge22" class="edge">
<title>DC1&#45;POD1&#45;L2LEAF2B:3&#45;&#45;DC1&#45;POD1&#45;L2LEAF2A:3</title>
<path fill="none" stroke="black" d="M296.5,-74C296.5,-74 275.5,-74 275.5,-74"/>
</g>
<!-- DC1&#45;POD1&#45;L2LEAF2B&#45;&#45;DC1&#45;POD1&#45;L2LEAF2A -->
<g id="edge23" class="edge">
<title>DC1&#45;POD1&#45;L2LEAF2B:4&#45;&#45;DC1&#45;POD1&#45;L2LEAF2A:4</title>
<path fill="none" stroke="black" d="M296.5,-54C296.5,-54 275.5,-54 275.5,-54"/>
</g>
<!-- DC2&#45;SUPER&#45;SPINE1&#45;&#45;DC2&#45;POD1&#45;SPINE1 -->
<g id="edge29" class="edge">
<title>DC2&#45;SUPER&#45;SPINE1:1&#45;&#45;DC2&#45;POD1&#45;SPINE1:1</title>
<path fill="none" stroke="black" d="M362.5,-652C362.5,-652 649.5,-556 649.5,-556"/>
</g>
<!-- DC2&#45;SUPER&#45;SPINE1&#45;&#45;DC2&#45;POD1&#45;SPINE2 -->
<g id="edge30" class="edge">
<title>DC2&#45;SUPER&#45;SPINE1:2&#45;&#45;DC2&#45;POD1&#45;SPINE2:1</title>
<path fill="none" stroke="black" d="M378.5,-652C378.5,-652 793.5,-556 793.5,-556"/>
</g>
<!-- DC2&#45;SUPER&#45;SPINE2&#45;&#45;DC2&#45;POD1&#45;SPINE1 -->
<g id="edge27" class="edge">
<title>DC2&#45;SUPER&#45;SPINE2:1&#45;&#45;DC2&#45;POD1&#45;SPINE1:2</title>
<path fill="none" stroke="black" d="M506.5,-652C506.5,-652 664.5,-556 664.5,-556"/>
</g>
<!-- DC2&#45;SUPER&#45;SPINE2&#45;&#45;DC2&#45;POD1&#45;SPINE2 -->
<g id="edge28" class="edge">
<title>DC2&#45;SUPER&#45;SPINE2:2&#45;&#45;DC2&#45;POD1&#45;SPINE2:2</title>
<path fill="none" stroke="black" d="M522.5,-652C522.5,-652 808.5,-556 808.5,-556"/>
</g>
<!-- DC2&#45;POD1&#45;LEAF2A -->
<g id="node18" class="node">
<title>DC2&#45;POD1&#45;LEAF2A</title>
<polygon fill="none" stroke="black" points="642.5,-320 642.5,-340 658.5,-340 658.5,-320 642.5,-320"/>
<text text-anchor="start" x="648.5" y="-328.1" font-family="Times,serif" font-size="8.00">1</text>
<polygon fill="none" stroke="black" points="658.5,-320 658.5,-340 673.5,-340 673.5,-320 658.5,-320"/>
<text text-anchor="start" x="664" y="-328.1" font-family="Times,serif" font-size="8.00">2</text>
<polygon fill="#4a69bd" stroke="none" points="602.5,-240 602.5,-320 688.5,-320 688.5,-240 602.5,-240"/>
<polygon fill="none" stroke="black" points="602.5,-240 602.5,-320 688.5,-320 688.5,-240 602.5,-240"/>
<text text-anchor="start" x="607.5" y="-279.1" font-family="Times,serif" font-size="8.00"> </text>
<text text-anchor="start" x="610.5" y="-279.1" font-family="Times,serif" font-size="8.00" fill="#ffffff">DC2&#45;POD1&#45;LEAF2A</text>
<polygon fill="none" stroke="black" points="642.5,-220 642.5,-240 658.5,-240 658.5,-220 642.5,-220"/>
<text text-anchor="start" x="648.5" y="-228.1" font-family="Times,serif" font-size="8.00">3</text>
</g>
<!-- DC2&#45;POD1&#45;SPINE1&#45;&#45;DC2&#45;POD1&#45;LEAF2A -->
<g id="edge35" class="edge">
<title>DC2&#45;POD1&#45;SPINE1:4&#45;&#45;DC2&#45;POD1&#45;LEAF2A:1</title>
<path fill="none" stroke="black" d="M664.5,-436C664.5,-436 650.5,-340 650.5,-340"/>
</g>
<!-- DC2&#45;POD1&#45;SPINE2&#45;&#45;DC2&#45;POD1&#45;LEAF2A -->
<g id="edge36" class="edge">
<title>DC2&#45;POD1&#45;SPINE2:4&#45;&#45;DC2&#45;POD1&#45;LEAF2A:2</title>
<path fill="none" stroke="black" d="M808.5,-436C808.5,-436 666.5,-340 666.5,-340"/>
</g>
<!-- DC2&#45;POD1&#45;LEAF1A&#45;&#45;DC2&#45;POD1&#45;SPINE1 -->
<g id="edge31" class="edge">
<title>DC2&#45;POD1&#45;LEAF1A:1&#45;&#45;DC2&#45;POD1&#45;SPINE1:3</title>
<path fill="none" stroke="black" d="M506.5,-340C506.5,-340 649.5,-436 649.5,-436"/>
</g>
<!-- DC2&#45;POD1&#45;LEAF1A&#45;&#45;DC2&#45;POD1&#45;SPINE2 -->
<g id="edge32" class="edge">
<title>DC2&#45;POD1&#45;LEAF1A:2&#45;&#45;DC2&#45;POD1&#45;SPINE2:3</title>
<path fill="none" stroke="black" d="M522.5,-340C522.5,-340 793.5,-436 793.5,-436"/>
</g>
<!-- DC2&#45;POD1&#45;L2LEAF1A -->
<g id="node19" class="node">
<title>DC2&#45;POD1&#45;L2LEAF1A</title>
<polygon fill="none" stroke="black" points="500.5,-104 500.5,-124 517.5,-124 517.5,-104 500.5,-104"/>
<text text-anchor="start" x="507" y="-112.1" font-family="Times,serif" font-size="8.00">1</text>
<polygon fill="#4a69bd" stroke="none" points="454.5,-24 454.5,-104 549.5,-104 549.5,-24 454.5,-24"/>
<polygon fill="none" stroke="black" points="454.5,-24 454.5,-104 549.5,-104 549.5,-24 454.5,-24"/>
<text text-anchor="start" x="459.5" y="-63.1" font-family="Times,serif" font-size="8.00"> </text>
<text text-anchor="start" x="462.5" y="-63.1" font-family="Times,serif" font-size="8.00" fill="#ffffff">DC2&#45;POD1&#45;L2LEAF1A</text>
</g>
<!-- DC2&#45;POD1&#45;LEAF1A&#45;&#45;DC2&#45;POD1&#45;L2LEAF1A -->
<g id="edge33" class="edge">
<title>DC2&#45;POD1&#45;LEAF1A:3&#45;&#45;DC2&#45;POD1&#45;L2LEAF1A:1</title>
<path fill="none" stroke="black" d="M506.5,-220C506.5,-220 509.5,-124 509.5,-124"/>
</g>
<!-- DC2&#45;POD1&#45;L2LEAF2A -->
<g id="node20" class="node">
<title>DC2&#45;POD1&#45;L2LEAF2A</title>
<polygon fill="none" stroke="black" points="644.5,-104 644.5,-124 661.5,-124 661.5,-104 644.5,-104"/>
<text text-anchor="start" x="651" y="-112.1" font-family="Times,serif" font-size="8.00">1</text>
<polygon fill="#4a69bd" stroke="none" points="598.5,-24 598.5,-104 693.5,-104 693.5,-24 598.5,-24"/>
<polygon fill="none" stroke="black" points="598.5,-24 598.5,-104 693.5,-104 693.5,-24 598.5,-24"/>
<text text-anchor="start" x="603.5" y="-63.1" font-family="Times,serif" font-size="8.00"> </text>
<text text-anchor="start" x="606.5" y="-63.1" font-family="Times,serif" font-size="8.00" fill="#ffffff">DC2&#45;POD1&#45;L2LEAF2A</text>
</g>
<!-- DC2&#45;POD1&#45;L2LEAF2A&#45;&#45;DC2&#45;POD1&#45;LEAF2A -->
<g id="edge34" class="edge">
<title>DC2&#45;POD1&#45;L2LEAF2A:1&#45;&#45;DC2&#45;POD1&#45;LEAF2A:3</title>
<path fill="none" stroke="black" d="M653.5,-124C653.5,-124 650.5,-220 650.5,-220"/>
</g>
</g>
</svg>
