<?xml version="1.0" encoding="UTF-8"?>
<svg xmlns="http://www.w3.org/2000/svg" xmlns:xlink="http://www.w3.org/1999/xlink"
     width="2130" height="1353.75" viewBox="0 -1353.75 2130 1353.75" font-family="monospace">
<defs>
</defs>
<rect x="0" y="-1353.75" width="2130" height="1353.75" fill="#00285A" />
<rect x="20" y="-1328.75" width="2080" height="1303.75" fill="hsl(0, 0%, 90%)" rx="25" stroke="hsl(0, 0%, 60.0%)" stroke-width="4" />
<rect x="45" y="-1291.25" width="1375" height="1235.0" fill="hsl(0, 0%, 80%)" rx="25" stroke="hsl(0, 0%, 52.5%)" stroke-width="4" />
<rect x="70" y="-1013.75" width="480" height="617.5" fill="hsl(0, 0%, 70%)" rx="25" stroke="hsl(0, 0%, 45.0%)" stroke-width="4" />
<rect x="155.0" y="-651.25" width="120" height="120" fill="#5167B7" text="DC1-POD2-LEAF1A" />
<text x="215.0" y="-594.25" font-size="18" fill="white" text-anchor="middle" dy="0em">DC1-POD2</text>
<text x="215.0" y="-576.25" font-size="18" fill="white" text-anchor="middle" dy="0em">LEAF1A</text>
<rect x="130.0" y="-928.75" width="120" height="120" fill="#5167B7" text="DC1-POD2-SPINE1" />
<text x="190.0" y="-871.75" font-size="18" fill="white" text-anchor="middle" dy="0em">DC1-POD2</text>
<text x="190.0" y="-853.75" font-size="18" fill="white" text-anchor="middle" dy="0em">SPINE1</text>
<rect x="370.0" y="-928.75" width="120" height="120" fill="#5167B7" text="DC1-POD2-SPINE2" />
<text x="430.0" y="-871.75" font-size="18" fill="white" text-anchor="middle" dy="0em">DC1-POD2</text>
<text x="430.0" y="-853.75" font-size="18" fill="white" text-anchor="middle" dy="0em">SPINE2</text>
<rect x="575" y="-1013.75" width="820" height="926.25" fill="hsl(0, 0%, 70%)" rx="25" stroke="hsl(0, 0%, 45.0%)" stroke-width="4" />
<rect x="685.0" y="-373.75" width="120" height="120" fill="#5167B7" text="DC1-POD1-L2LEAF1A" />
<text x="745.0" y="-316.75" font-size="18" fill="white" text-anchor="middle" dy="0em">DC1-POD1</text>
<text x="745.0" y="-298.75" font-size="18" fill="white" text-anchor="middle" dy="0em">L2LEAF1A</text>
<rect x="925.0" y="-373.75" width="120" height="120" fill="#5167B7" text="DC1-POD1-L2LEAF2A" />
<text x="985.0" y="-316.75" font-size="18" fill="white" text-anchor="middle" dy="0em">DC1-POD1</text>
<text x="985.0" y="-298.75" font-size="18" fill="white" text-anchor="middle" dy="0em">L2LEAF2A</text>
<rect x="1165.0" y="-373.75" width="120" height="120" fill="#5167B7" text="DC1-POD1-L2LEAF2B" />
<text x="1225.0" y="-316.75" font-size="18" fill="white" text-anchor="middle" dy="0em">DC1-POD1</text>
<text x="1225.0" y="-298.75" font-size="18" fill="white" text-anchor="middle" dy="0em">L2LEAF2B</text>
<rect x="805.0" y="-651.25" width="120" height="120" fill="#5167B7" text="DC1-POD1-LEAF1A" />
<text x="865.0" y="-594.25" font-size="18" fill="white" text-anchor="middle" dy="0em">DC1-POD1</text>
<text x="865.0" y="-576.25" font-size="18" fill="white" text-anchor="middle" dy="0em">LEAF1A</text>
<rect x="1045.0" y="-651.25" width="120" height="120" fill="#5167B7" text="DC1-POD1-LEAF2B" />
<text x="1105.0" y="-594.25" font-size="18" fill="white" text-anchor="middle" dy="0em">DC1-POD1</text>
<text x="1105.0" y="-576.25" font-size="18" fill="white" text-anchor="middle" dy="0em">LEAF2B</text>
<rect x="805.0" y="-928.75" width="120" height="120" fill="#5167B7" text="DC1-POD1-SPINE1" />
<text x="865.0" y="-871.75" font-size="18" fill="white" text-anchor="middle" dy="0em">DC1-POD1</text>
<text x="865.0" y="-853.75" font-size="18" fill="white" text-anchor="middle" dy="0em">SPINE1</text>
<rect x="1045.0" y="-928.75" width="120" height="120" fill="#5167B7" text="DC1-POD1-SPINE2" />
<text x="1105.0" y="-871.75" font-size="18" fill="white" text-anchor="middle" dy="0em">DC1-POD1</text>
<text x="1105.0" y="-853.75" font-size="18" fill="white" text-anchor="middle" dy="0em">SPINE2</text>
<rect x="552.5" y="-1206.25" width="120" height="120" fill="#5167B7" text="DC1-SUPER-SPINE1" />
<text x="612.5" y="-1149.25" font-size="18" fill="white" text-anchor="middle" dy="0em">DC1-SUPER</text>
<text x="612.5" y="-1131.25" font-size="18" fill="white" text-anchor="middle" dy="0em">SPINE1</text>
<rect x="792.5" y="-1206.25" width="120" height="120" fill="#5167B7" text="DC1-SUPER-SPINE2" />
<text x="852.5" y="-1149.25" font-size="18" fill="white" text-anchor="middle" dy="0em">DC1-SUPER</text>
<text x="852.5" y="-1131.25" font-size="18" fill="white" text-anchor="middle" dy="0em">SPINE2</text>
<rect x="1445" y="-1291.25" width="630" height="1235.0" fill="hsl(0, 0%, 80%)" rx="25" stroke="hsl(0, 0%, 52.5%)" stroke-width="4" />
<rect x="1470" y="-1013.75" width="580" height="926.25" fill="hsl(0, 0%, 70%)" rx="25" stroke="hsl(0, 0%, 45.0%)" stroke-width="4" />
<rect x="1580.0" y="-373.75" width="120" height="120" fill="#5167B7" text="DC2-POD1-L2LEAF1A" />
<text x="1640.0" y="-316.75" font-size="18" fill="white" text-anchor="middle" dy="0em">DC2-POD1</text>
<text x="1640.0" y="-298.75" font-size="18" fill="white" text-anchor="middle" dy="0em">L2LEAF1A</text>
<rect x="1820.0" y="-373.75" width="120" height="120" fill="#5167B7" text="DC2-POD1-L2LEAF2A" />
<text x="1880.0" y="-316.75" font-size="18" fill="white" text-anchor="middle" dy="0em">DC2-POD1</text>
<text x="1880.0" y="-298.75" font-size="18" fill="white" text-anchor="middle" dy="0em">L2LEAF2A</text>
<rect x="1580.0" y="-651.25" width="120" height="120" fill="#5167B7" text="DC2-POD1-LEAF1A" />
<text x="1640.0" y="-594.25" font-size="18" fill="white" text-anchor="middle" dy="0em">DC2-POD1</text>
<text x="1640.0" y="-576.25" font-size="18" fill="white" text-anchor="middle" dy="0em">LEAF1A</text>
<rect x="1820.0" y="-651.25" width="120" height="120" fill="#5167B7" text="DC2-POD1-LEAF2A" />
<text x="1880.0" y="-594.25" font-size="18" fill="white" text-anchor="middle" dy="0em">DC2-POD1</text>
<text x="1880.0" y="-576.25" font-size="18" fill="white" text-anchor="middle" dy="0em">LEAF2A</text>
<rect x="1580.0" y="-928.75" width="120" height="120" fill="#5167B7" text="DC2-POD1-SPINE1" />
<text x="1640.0" y="-871.75" font-size="18" fill="white" text-anchor="middle" dy="0em">DC2-POD1</text>
<text x="1640.0" y="-853.75" font-size="18" fill="white" text-anchor="middle" dy="0em">SPINE1</text>
<rect x="1820.0" y="-928.75" width="120" height="120" fill="#5167B7" text="DC2-POD1-SPINE2" />
<text x="1880.0" y="-871.75" font-size="18" fill="white" text-anchor="middle" dy="0em">DC2-POD1</text>
<text x="1880.0" y="-853.75" font-size="18" fill="white" text-anchor="middle" dy="0em">SPINE2</text>
<rect x="1580.0" y="-1206.25" width="120" height="120" fill="#5167B7" text="DC2-SUPER-SPINE1" />
<text x="1640.0" y="-1149.25" font-size="18" fill="white" text-anchor="middle" dy="0em">DC2-SUPER</text>
<text x="1640.0" y="-1131.25" font-size="18" fill="white" text-anchor="middle" dy="0em">SPINE1</text>
<rect x="1820.0" y="-1206.25" width="120" height="120" fill="#5167B7" text="DC2-SUPER-SPINE2" />
<text x="1880.0" y="-1149.25" font-size="18" fill="white" text-anchor="middle" dy="0em">DC2-SUPER</text>
<text x="1880.0" y="-1131.25" font-size="18" fill="white" text-anchor="middle" dy="0em">SPINE2</text>
<rect x="552.5" y="-1086.25" width="20" height="30" fill="white" stroke="black" />
<text x="562.5" y="-1065.9166666666667" font-size="16" fill="black" text-anchor="middle" dy="0em">1</text>
<rect x="575.5" y="-1086.25" width="20" height="30" fill="white" stroke="black" />
<text x="585.5" y="-1065.9166666666667" font-size="16" fill="black" text-anchor="middle" dy="0em">2</text>
<rect x="575.5" y="-1086.25" width="20" height="30" fill="white" stroke="black" />
<text x="585.5" y="-1065.9166666666667" font-size="16" fill="black" text-anchor="middle" dy="0em">3</text>
<rect x="575.5" y="-1086.25" width="20" height="30" fill="white" stroke="black" />
<text x="585.5" y="-1065.9166666666667" font-size="16" fill="black" text-anchor="middle" dy="0em">4</text>
<rect x="672.5" y="-1206.25" width="30" height="20" fill="white" stroke="black" />
<text x="687.5" y="-1190.9166666666667" font-size="16" fill="black" text-anchor="middle" dy="0em">6</text>
<rect x="792.5" y="-1086.25" width="20" height="30" fill="white" stroke="black" />
<text x="802.5" y="-1065.9166666666667" font-size="16" fill="black" text-anchor="middle" dy="0em">1</text>
<rect x="815.5" y="-1086.25" width="20" height="30" fill="white" stroke="black" />
<text x="825.5" y="-1065.9166666666667" font-size="16" fill="black" text-anchor="middle" dy="0em">2</text>
<rect x="815.5" y="-1086.25" width="20" height="30" fill="white" stroke="black" />
<text x="825.5" y="-1065.9166666666667" font-size="16" fill="black" text-anchor="middle" dy="0em">3</text>
<rect x="815.5" y="-1086.25" width="20" height="30" fill="white" stroke="black" />
<text x="825.5" y="-1065.9166666666667" font-size="16" fill="black" text-anchor="middle" dy="0em">4</text>
<rect x="912.5" y="-1206.25" width="30" height="20" fill="white" stroke="black" />
<text x="927.5" y="-1190.9166666666667" font-size="16" fill="black" text-anchor="middle" dy="0em">6</text>
<rect x="1820.0" y="-1086.25" width="20" height="30" fill="white" stroke="black" />
<text x="1830.0" y="-1065.9166666666667" font-size="16" fill="black" text-anchor="middle" dy="0em">1</text>
<rect x="1843.0" y="-1086.25" width="20" height="30" fill="white" stroke="black" />
<text x="1853.0" y="-1065.9166666666667" font-size="16" fill="black" text-anchor="middle" dy="0em">2</text>
<rect x="1790.0" y="-1206.25" width="30" height="20" fill="white" stroke="black" />
<text x="1805.0" y="-1190.9166666666667" font-size="16" fill="black" text-anchor="middle" dy="0em">4</text>
<rect x="1580.0" y="-1086.25" width="20" height="30" fill="white" stroke="black" />
<text x="1590.0" y="-1065.9166666666667" font-size="16" fill="black" text-anchor="middle" dy="0em">1</text>
<rect x="1603.0" y="-1086.25" width="20" height="30" fill="white" stroke="black" />
<text x="1613.0" y="-1065.9166666666667" font-size="16" fill="black" text-anchor="middle" dy="0em">2</text>
<rect x="1550.0" y="-1206.25" width="30" height="20" fill="white" stroke="black" />
<text x="1565.0" y="-1190.9166666666667" font-size="16" fill="black" text-anchor="middle" dy="0em">4</text>
<rect x="805.0" y="-958.75" width="20" height="30" fill="white" stroke="black" />
<text x="815.0" y="-938.4166666666666" font-size="16" fill="black" text-anchor="middle" dy="0em">1</text>
<rect x="828.0" y="-958.75" width="20" height="30" fill="white" stroke="black" />
<text x="838.0" y="-938.4166666666666" font-size="16" fill="black" text-anchor="middle" dy="0em">2</text>
<rect x="805.0" y="-808.75" width="20" height="30" fill="white" stroke="black" />
<text x="815.0" y="-788.4166666666666" font-size="16" fill="black" text-anchor="middle" dy="0em">5</text>
<rect x="828.0" y="-808.75" width="20" height="30" fill="white" stroke="black" />
<text x="838.0" y="-788.4166666666666" font-size="16" fill="black" text-anchor="middle" dy="0em">8</text>
<rect x="828.0" y="-808.75" width="20" height="30" fill="white" stroke="black" />
<text x="838.0" y="-788.4166666666666" font-size="16" fill="black" text-anchor="middle" dy="0em">3</text>
<rect x="1045.0" y="-958.75" width="20" height="30" fill="white" stroke="black" />
<text x="1055.0" y="-938.4166666666666" font-size="16" fill="black" text-anchor="middle" dy="0em">1</text>
<rect x="1068.0" y="-958.75" width="20" height="30" fill="white" stroke="black" />
<text x="1078.0" y="-938.4166666666666" font-size="16" fill="black" text-anchor="middle" dy="0em">2</text>
<rect x="1045.0" y="-808.75" width="20" height="30" fill="white" stroke="black" />
<text x="1055.0" y="-788.4166666666666" font-size="16" fill="black" text-anchor="middle" dy="0em">5</text>
<rect x="1068.0" y="-808.75" width="20" height="30" fill="white" stroke="black" />
<text x="1078.0" y="-788.4166666666666" font-size="16" fill="black" text-anchor="middle" dy="0em">8</text>
<rect x="1068.0" y="-808.75" width="20" height="30" fill="white" stroke="black" />
<text x="1078.0" y="-788.4166666666666" font-size="16" fill="black" text-anchor="middle" dy="0em">3</text>
<rect x="130.0" y="-958.75" width="20" height="30" fill="white" stroke="black" />
<text x="140.0" y="-938.4166666666666" font-size="16" fill="black" text-anchor="middle" dy="0em">1</text>
<rect x="153.0" y="-958.75" width="20" height="30" fill="white" stroke="black" />
<text x="163.0" y="-938.4166666666666" font-size="16" fill="black" text-anchor="middle" dy="0em">2</text>
<rect x="130.0" y="-808.75" width="20" height="30" fill="white" stroke="black" />
<text x="140.0" y="-788.4166666666666" font-size="16" fill="black" text-anchor="middle" dy="0em">3</text>
<rect x="250.0" y="-928.75" width="30" height="20" fill="white" stroke="black" />
<text x="265.0" y="-913.4166666666666" font-size="16" fill="black" text-anchor="middle" dy="0em">5</text>
<rect x="370.0" y="-958.75" width="20" height="30" fill="white" stroke="black" />
<text x="380.0" y="-938.4166666666666" font-size="16" fill="black" text-anchor="middle" dy="0em">1</text>
<rect x="393.0" y="-958.75" width="20" height="30" fill="white" stroke="black" />
<text x="403.0" y="-938.4166666666666" font-size="16" fill="black" text-anchor="middle" dy="0em">2</text>
<rect x="370.0" y="-808.75" width="20" height="30" fill="white" stroke="black" />
<text x="380.0" y="-788.4166666666666" font-size="16" fill="black" text-anchor="middle" dy="0em">3</text>
<rect x="490.0" y="-928.75" width="30" height="20" fill="white" stroke="black" />
<text x="505.0" y="-913.4166666666666" font-size="16" fill="black" text-anchor="middle" dy="0em">4</text>
<rect x="1580.0" y="-958.75" width="20" height="30" fill="white" stroke="black" />
<text x="1590.0" y="-938.4166666666666" font-size="16" fill="black" text-anchor="middle" dy="0em">2</text>
<rect x="1603.0" y="-958.75" width="20" height="30" fill="white" stroke="black" />
<text x="1613.0" y="-938.4166666666666" font-size="16" fill="black" text-anchor="middle" dy="0em">1</text>
<rect x="1580.0" y="-808.75" width="20" height="30" fill="white" stroke="black" />
<text x="1590.0" y="-788.4166666666666" font-size="16" fill="black" text-anchor="middle" dy="0em">3</text>
<rect x="1603.0" y="-808.75" width="20" height="30" fill="white" stroke="black" />
<text x="1613.0" y="-788.4166666666666" font-size="16" fill="black" text-anchor="middle" dy="0em">4</text>
<rect x="1550.0" y="-928.75" width="30" height="20" fill="white" stroke="black" />
<text x="1565.0" y="-913.4166666666666" font-size="16" fill="black" text-anchor="middle" dy="0em">5</text>
<rect x="1820.0" y="-958.75" width="20" height="30" fill="white" stroke="black" />
<text x="1830.0" y="-938.4166666666666" font-size="16" fill="black" text-anchor="middle" dy="0em">2</text>
<rect x="1843.0" y="-958.75" width="20" height="30" fill="white" stroke="black" />
<text x="1853.0" y="-938.4166666666666" font-size="16" fill="black" text-anchor="middle" dy="0em">1</text>
<rect x="1820.0" y="-808.75" width="20" height="30" fill="white" stroke="black" />
<text x="1830.0" y="-788.4166666666666" font-size="16" fill="black" text-anchor="middle" dy="0em">3</text>
<rect x="1843.0" y="-808.75" width="20" height="30" fill="white" stroke="black" />
<text x="1853.0" y="-788.4166666666666" font-size="16" fill="black" text-anchor="middle" dy="0em">4</text>
<rect x="1790.0" y="-928.75" width="30" height="20" fill="white" stroke="black" />
<text x="1805.0" y="-913.4166666666666" font-size="16" fill="black" text-anchor="middle" dy="0em">5</text>
<rect x="805.0" y="-681.25" width="20" height="30" fill="white" stroke="black" />
<text x="815.0" y="-660.9166666666666" font-size="16" fill="black" text-anchor="middle" dy="0em">1</text>
<rect x="828.0" y="-681.25" width="20" height="30" fill="white" stroke="black" />
<text x="838.0" y="-660.9166666666666" font-size="16" fill="black" text-anchor="middle" dy="0em">2</text>
<rect x="805.0" y="-531.25" width="20" height="30" fill="white" stroke="black" />
<text x="815.0" y="-510.9166666666667" font-size="16" fill="black" text-anchor="middle" dy="0em">3</text>
<rect x="1045.0" y="-681.25" width="20" height="30" fill="white" stroke="black" />
<text x="1055.0" y="-660.9166666666666" font-size="16" fill="black" text-anchor="middle" dy="0em">1</text>
<rect x="1068.0" y="-681.25" width="20" height="30" fill="white" stroke="black" />
<text x="1078.0" y="-660.9166666666666" font-size="16" fill="black" text-anchor="middle" dy="0em">2</text>
<rect x="1068.0" y="-681.25" width="20" height="30" fill="white" stroke="black" />
<text x="1078.0" y="-660.9166666666666" font-size="16" fill="black" text-anchor="middle" dy="0em">11</text>
<rect x="1068.0" y="-681.25" width="20" height="30" fill="white" stroke="black" />
<text x="1078.0" y="-660.9166666666666" font-size="16" fill="black" text-anchor="middle" dy="0em">12</text>
<rect x="1045.0" y="-531.25" width="20" height="30" fill="white" stroke="black" />
<text x="1055.0" y="-510.9166666666667" font-size="16" fill="black" text-anchor="middle" dy="0em">3</text>
<rect x="1068.0" y="-531.25" width="20" height="30" fill="white" stroke="black" />
<text x="1078.0" y="-510.9166666666667" font-size="16" fill="black" text-anchor="middle" dy="0em">4</text>
<rect x="1165.0" y="-651.25" width="30" height="20" fill="white" stroke="black" />
<text x="1180.0" y="-635.9166666666666" font-size="16" fill="black" text-anchor="middle" dy="0em">7</text>
<rect x="155.0" y="-681.25" width="20" height="30" fill="white" stroke="black" />
<text x="165.0" y="-660.9166666666666" font-size="16" fill="black" text-anchor="middle" dy="0em">1</text>
<rect x="178.0" y="-681.25" width="20" height="30" fill="white" stroke="black" />
<text x="188.0" y="-660.9166666666666" font-size="16" fill="black" text-anchor="middle" dy="0em">2</text>
<rect x="1580.0" y="-681.25" width="20" height="30" fill="white" stroke="black" />
<text x="1590.0" y="-660.9166666666666" font-size="16" fill="black" text-anchor="middle" dy="0em">1</text>
<rect x="1603.0" y="-681.25" width="20" height="30" fill="white" stroke="black" />
<text x="1613.0" y="-660.9166666666666" font-size="16" fill="black" text-anchor="middle" dy="0em">2</text>
<rect x="1580.0" y="-531.25" width="20" height="30" fill="white" stroke="black" />
<text x="1590.0" y="-510.9166666666667" font-size="16" fill="black" text-anchor="middle" dy="0em">3</text>
<rect x="1550.0" y="-651.25" width="30" height="20" fill="white" stroke="black" />
<text x="1565.0" y="-635.9166666666666" font-size="16" fill="black" text-anchor="middle" dy="0em">7</text>
<rect x="1820.0" y="-681.25" width="20" height="30" fill="white" stroke="black" />
<text x="1830.0" y="-660.9166666666666" font-size="16" fill="black" text-anchor="middle" dy="0em">1</text>
<rect x="1843.0" y="-681.25" width="20" height="30" fill="white" stroke="black" />
<text x="1853.0" y="-660.9166666666666" font-size="16" fill="black" text-anchor="middle" dy="0em">2</text>
<rect x="1820.0" y="-531.25" width="20" height="30" fill="white" stroke="black" />
<text x="1830.0" y="-510.9166666666667" font-size="16" fill="black" text-anchor="middle" dy="0em">3</text>
<rect x="685.0" y="-403.75" width="20" height="30" fill="white" stroke="black" />
<text x="695.0" y="-383.4166666666667" font-size="16" fill="black" text-anchor="middle" dy="0em">1</text>
<rect x="925.0" y="-403.75" width="20" height="30" fill="white" stroke="black" />
<text x="935.0" y="-383.4166666666667" font-size="16" fill="black" text-anchor="middle" dy="0em">2</text>
<rect x="1045.0" y="-373.75" width="30" height="20" fill="white" stroke="black" />
<text x="1060.0" y="-358.4166666666667" font-size="16" fill="black" text-anchor="middle" dy="0em">3</text>
<rect x="1045.0" y="-350.75" width="30" height="20" fill="white" stroke="black" />
<text x="1060.0" y="-335.4166666666667" font-size="16" fill="black" text-anchor="middle" dy="0em">4</text>
<rect x="1165.0" y="-403.75" width="20" height="30" fill="white" stroke="black" />
<text x="1175.0" y="-383.4166666666667" font-size="16" fill="black" text-anchor="middle" dy="0em">2</text>
<rect x="1135.0" y="-373.75" width="30" height="20" fill="white" stroke="black" />
<text x="1150.0" y="-358.4166666666667" font-size="16" fill="black" text-anchor="middle" dy="0em">3</text>
<rect x="1135.0" y="-350.75" width="30" height="20" fill="white" stroke="black" />
<text x="1150.0" y="-335.4166666666667" font-size="16" fill="black" text-anchor="middle" dy="0em">4</text>
<rect x="1580.0" y="-403.75" width="20" height="30" fill="white" stroke="black" />
<text x="1590.0" y="-383.4166666666667" font-size="16" fill="black" text-anchor="middle" dy="0em">1</text>
<rect x="1820.0" y="-403.75" width="20" height="30" fill="white" stroke="black" />
<text x="1830.0" y="-383.4166666666667" font-size="16" fill="black" text-anchor="middle" dy="0em">1</text>
<path d="M562.5,-1056.25 L815.0,-958.75" stroke="black" stroke-width="2" />
<path d="M585.5,-1056.25 L1055.0,-958.75" stroke="black" stroke-width="2" />
<path d="M585.5,-1056.25 L140.0,-958.75" stroke="black" stroke-width="2" />
<path d="M585.5,-1056.25 L380.0,-958.75" stroke="black" stroke-width="2" />
<path d="M702.5,-1196.25 L712.5,-1196.25" stroke="black" stroke-width="2" />
<path d="M712.5,-1196.25 L712.5,-1252.25" stroke="black" stroke-width="2" />
<path d="M712.5,-1252.25 L1126.25,-1252.25" stroke="black" stroke-width="2" />
<path d="M1550.0,-1196.25 L1540.0,-1196.25" stroke="black" stroke-width="2" />
<path d="M1540.0,-1196.25 L1540.0,-1252.25" stroke="black" stroke-width="2" />
<path d="M1540.0,-1252.25 L1126.25,-1252.25" stroke="black" stroke-width="2" />
<path d="M802.5,-1056.25 L838.0,-958.75" stroke="black" stroke-width="2" />
<path d="M825.5,-1056.25 L1078.0,-958.75" stroke="black" stroke-width="2" />
<path d="M825.5,-1056.25 L163.0,-958.75" stroke="black" stroke-width="2" />
<path d="M825.5,-1056.25 L403.0,-958.75" stroke="black" stroke-width="2" />
<path d="M942.5,-1196.25 L952.5,-1196.25" stroke="black" stroke-width="2" />
<path d="M952.5,-1196.25 L952.5,-1258.25" stroke="black" stroke-width="2" />
<path d="M952.5,-1258.25 L1366.25,-1258.25" stroke="black" stroke-width="2" />
<path d="M1790.0,-1196.25 L1780.0,-1196.25" stroke="black" stroke-width="2" />
<path d="M1780.0,-1196.25 L1780.0,-1258.25" stroke="black" stroke-width="2" />
<path d="M1780.0,-1258.25 L1366.25,-1258.25" stroke="black" stroke-width="2" />
<path d="M140.0,-778.75 L165.0,-681.25" stroke="black" stroke-width="2" />
<path d="M280.0,-918.75 L290.0,-918.75" stroke="black" stroke-width="2" />
<path d="M290.0,-918.75 L290.0,-974.75" stroke="black" stroke-width="2" />
<path d="M290.0,-974.75 L915.0,-974.75" stroke="black" stroke-width="2" />
<path d="M1550.0,-918.75 L1540.0,-918.75" stroke="black" stroke-width="2" />
<path d="M1540.0,-918.75 L1540.0,-974.75" stroke="black" stroke-width="2" />
<path d="M1540.0,-974.75 L915.0,-974.75" stroke="black" stroke-width="2" />
<path d="M380.0,-778.75 L188.0,-681.25" stroke="black" stroke-width="2" />
<path d="M520.0,-918.75 L530.0,-918.75" stroke="black" stroke-width="2" />
<path d="M530.0,-918.75 L530.0,-980.75" stroke="black" stroke-width="2" />
<path d="M530.0,-980.75 L1155.0,-980.75" stroke="black" stroke-width="2" />
<path d="M1790.0,-918.75 L1780.0,-918.75" stroke="black" stroke-width="2" />
<path d="M1780.0,-918.75 L1780.0,-980.75" stroke="black" stroke-width="2" />
<path d="M1780.0,-980.75 L1155.0,-980.75" stroke="black" stroke-width="2" />
<path d="M1055.0,-681.25 L815.0,-778.75" stroke="black" stroke-width="2" />
<path d="M1078.0,-681.25 L1055.0,-778.75" stroke="black" stroke-width="2" />
<path d="M1055.0,-501.25 L935.0,-403.75" stroke="black" stroke-width="2" />
<path d="M1078.0,-501.25 L1175.0,-403.75" stroke="black" stroke-width="2" />
<path d="M1078.0,-681.25 L838.0,-778.75" stroke="black" stroke-width="2" />
<path d="M1078.0,-681.25 L1078.0,-778.75" stroke="black" stroke-width="2" />
<path d="M1195.0,-641.25 L1550.0,-641.25" stroke="black" stroke-width="2" />
<path d="M1135.0,-363.75 L1075.0,-363.75" stroke="black" stroke-width="2" />
<path d="M1135.0,-340.75 L1075.0,-340.75" stroke="black" stroke-width="2" />
<path d="M695.0,-403.75 L815.0,-501.25" stroke="black" stroke-width="2" />
<path d="M815.0,-681.25 L838.0,-778.75" stroke="black" stroke-width="2" />
<path d="M838.0,-681.25 L1078.0,-778.75" stroke="black" stroke-width="2" />
<path d="M1830.0,-1056.25 L1590.0,-958.75" stroke="black" stroke-width="2" />
<path d="M1853.0,-1056.25 L1830.0,-958.75" stroke="black" stroke-width="2" />
<path d="M1590.0,-1056.25 L1613.0,-958.75" stroke="black" stroke-width="2" />
<path d="M1613.0,-1056.25 L1853.0,-958.75" stroke="black" stroke-width="2" />
<path d="M1590.0,-681.25 L1590.0,-778.75" stroke="black" stroke-width="2" />
<path d="M1613.0,-681.25 L1830.0,-778.75" stroke="black" stroke-width="2" />
<path d="M1590.0,-501.25 L1590.0,-403.75" stroke="black" stroke-width="2" />
<path d="M1830.0,-403.75 L1830.0,-501.25" stroke="black" stroke-width="2" />
<path d="M1613.0,-778.75 L1830.0,-681.25" stroke="black" stroke-width="2" />
<path d="M1853.0,-778.75 L1853.0,-681.25" stroke="black" stroke-width="2" />
<rect x="933.52" y="-1324.75" width="252.96" height="23" fill="hsl(0, 0%, 90%)" />
<text x="1060.0" y="-1304.75" font-size="24" fill="black" text-anchor="middle" dy="0em">TWODC_5STAGE_CLOS</text>
<rect x="710.18" y="-1287.25" width="44.64" height="23" fill="hsl(0, 0%, 80%)" />
<text x="732.5" y="-1267.25" font-size="24" fill="black" text-anchor="middle" dy="0em">DC1</text>
<rect x="250.48000000000002" y="-1009.75" width="119.03999999999999" height="23" fill="hsl(0, 0%, 70%)" />
<text x="310.0" y="-989.75" font-size="24" fill="black" text-anchor="middle" dy="0em">DC1_POD2</text>
<rect x="925.48" y="-1009.75" width="119.03999999999999" height="23" fill="hsl(0, 0%, 70%)" />
<text x="985.0" y="-989.75" font-size="24" fill="black" text-anchor="middle" dy="0em">DC1_POD1</text>
<rect x="1737.68" y="-1287.25" width="44.64" height="23" fill="hsl(0, 0%, 80%)" />
<text x="1760.0" y="-1267.25" font-size="24" fill="black" text-anchor="middle" dy="0em">DC2</text>
<rect x="1700.48" y="-1009.75" width="119.03999999999999" height="23" fill="hsl(0, 0%, 70%)" />
<text x="1760.0" y="-989.75" font-size="24" fill="black" text-anchor="middle" dy="0em">DC2_POD1</text>
</svg>